<?xml version="1.0" encoding="utf-8" standalone="no"?>
<!DOCTYPE svg PUBLIC "-//W3C//DTD SVG 1.1//EN"
  "http://www.w3.org/Graphics/SVG/1.1/DTD/svg11.dtd">
<svg xmlns:xlink="http://www.w3.org/1999/xlink" width="144pt" height="144pt" viewBox="0 0 144 144" xmlns="http://www.w3.org/2000/svg" version="1.1">
 <metadata>
  <rdf:RDF xmlns:dc="http://purl.org/dc/elements/1.1/" xmlns:cc="http://creativecommons.org/ns#" xmlns:rdf="http://www.w3.org/1999/02/22-rdf-syntax-ns#">
   <cc:Work>
    <dc:type rdf:resource="http://purl.org/dc/dcmitype/StillImage"/>
    <dc:date>2024-02-07T14:57:35.580094</dc:date>
    <dc:format>image/svg+xml</dc:format>
    <dc:creator>
     <cc:Agent>
      <dc:title>Matplotlib v3.5.1, https://matplotlib.org/</dc:title>
     </cc:Agent>
    </dc:creator>
   </cc:Work>
  </rdf:RDF>
 </metadata>
 <defs>
  <style type="text/css">*{stroke-linejoin: round; stroke-linecap: butt}</style>
 </defs>
 <g id="figure_1">
  <g id="patch_1">
   <path d="M 0 144 
L 144 144 
L 144 0 
L 0 0 
L 0 144 
z
" style="fill: none"/>
  </g>
  <g id="axes_1">
   <g id="patch_2">
    <path d="M 14.4 129.6 
L 108 129.6 
L 108 36 
L 14.4 36 
z
" style="fill: #ffffff"/>
   </g>
   <g id="PathCollection_1">
    <defs>
     <path id="m7640a08c5f" d="M 0 1.581139 
C 0.419323 1.581139 0.821528 1.41454 1.118034 1.118034 
C 1.41454 0.821528 1.581139 0.419323 1.581139 0 
C 1.581139 -0.419323 1.41454 -0.821528 1.118034 -1.118034 
C 0.821528 -1.41454 0.419323 -1.581139 0 -1.581139 
C -0.419323 -1.581139 -0.821528 -1.41454 -1.118034 -1.118034 
C -1.41454 -0.821528 -1.581139 -0.419323 -1.581139 0 
C -1.581139 0.419323 -1.41454 0.821528 -1.118034 1.118034 
C -0.821528 1.41454 -0.419323 1.581139 0 1.581139 
z
" style="stroke: #95529f; stroke-opacity: 0.5"/>
    </defs>
    <g clip-path="url(#pa46434f012)">
     <use xlink:href="#m7640a08c5f" x="72.973424" y="85.379534" style="fill: #95529f; fill-opacity: 0.5; stroke: #95529f; stroke-opacity: 0.5"/>
     <use xlink:href="#m7640a08c5f" x="80.948977" y="67.760776" style="fill: #95529f; fill-opacity: 0.5; stroke: #95529f; stroke-opacity: 0.5"/>
     <use xlink:href="#m7640a08c5f" x="71.985649" y="76.626041" style="fill: #95529f; fill-opacity: 0.5; stroke: #95529f; stroke-opacity: 0.5"/>
     <use xlink:href="#m7640a08c5f" x="65.460525" y="83.795192" style="fill: #95529f; fill-opacity: 0.5; stroke: #95529f; stroke-opacity: 0.5"/>
     <use xlink:href="#m7640a08c5f" x="70.728628" y="87.365974" style="fill: #95529f; fill-opacity: 0.5; stroke: #95529f; stroke-opacity: 0.5"/>
     <use xlink:href="#m7640a08c5f" x="76.480508" y="84.449634" style="fill: #95529f; fill-opacity: 0.5; stroke: #95529f; stroke-opacity: 0.5"/>
     <use xlink:href="#m7640a08c5f" x="68.341758" y="92.090267" style="fill: #95529f; fill-opacity: 0.5; stroke: #95529f; stroke-opacity: 0.5"/>
     <use xlink:href="#m7640a08c5f" x="67.630488" y="82.334793" style="fill: #95529f; fill-opacity: 0.5; stroke: #95529f; stroke-opacity: 0.5"/>
     <use xlink:href="#m7640a08c5f" x="73.527494" y="77.908955" style="fill: #95529f; fill-opacity: 0.5; stroke: #95529f; stroke-opacity: 0.5"/>
     <use xlink:href="#m7640a08c5f" x="75.1842" y="84.217932" style="fill: #95529f; fill-opacity: 0.5; stroke: #95529f; stroke-opacity: 0.5"/>
     <use xlink:href="#m7640a08c5f" x="83.344363" y="77.107874" style="fill: #95529f; fill-opacity: 0.5; stroke: #95529f; stroke-opacity: 0.5"/>
     <use xlink:href="#m7640a08c5f" x="73.939466" y="70.321034" style="fill: #95529f; fill-opacity: 0.5; stroke: #95529f; stroke-opacity: 0.5"/>
     <use xlink:href="#m7640a08c5f" x="72.837241" y="86.175365" style="fill: #95529f; fill-opacity: 0.5; stroke: #95529f; stroke-opacity: 0.5"/>
     <use xlink:href="#m7640a08c5f" x="69.429533" y="86.901657" style="fill: #95529f; fill-opacity: 0.5; stroke: #95529f; stroke-opacity: 0.5"/>
     <use xlink:href="#m7640a08c5f" x="57.947918" y="76.360832" style="fill: #95529f; fill-opacity: 0.5; stroke: #95529f; stroke-opacity: 0.5"/>
     <use xlink:href="#m7640a08c5f" x="77.129462" y="72.802706" style="fill: #95529f; fill-opacity: 0.5; stroke: #95529f; stroke-opacity: 0.5"/>
     <use xlink:href="#m7640a08c5f" x="87.624301" y="78.497597" style="fill: #95529f; fill-opacity: 0.5; stroke: #95529f; stroke-opacity: 0.5"/>
     <use xlink:href="#m7640a08c5f" x="77.652428" y="79.595569" style="fill: #95529f; fill-opacity: 0.5; stroke: #95529f; stroke-opacity: 0.5"/>
     <use xlink:href="#m7640a08c5f" x="70.365203" y="80.569684" style="fill: #95529f; fill-opacity: 0.5; stroke: #95529f; stroke-opacity: 0.5"/>
     <use xlink:href="#m7640a08c5f" x="59.065105" y="77.632218" style="fill: #95529f; fill-opacity: 0.5; stroke: #95529f; stroke-opacity: 0.5"/>
     <use xlink:href="#m7640a08c5f" x="82.239673" y="69.0431" style="fill: #95529f; fill-opacity: 0.5; stroke: #95529f; stroke-opacity: 0.5"/>
     <use xlink:href="#m7640a08c5f" x="77.675456" y="62.878779" style="fill: #95529f; fill-opacity: 0.5; stroke: #95529f; stroke-opacity: 0.5"/>
     <use xlink:href="#m7640a08c5f" x="70.735102" y="82.137201" style="fill: #95529f; fill-opacity: 0.5; stroke: #95529f; stroke-opacity: 0.5"/>
     <use xlink:href="#m7640a08c5f" x="60.672532" y="68.039335" style="fill: #95529f; fill-opacity: 0.5; stroke: #95529f; stroke-opacity: 0.5"/>
     <use xlink:href="#m7640a08c5f" x="69.386851" y="82.496" style="fill: #95529f; fill-opacity: 0.5; stroke: #95529f; stroke-opacity: 0.5"/>
     <use xlink:href="#m7640a08c5f" x="60.515907" y="72.890831" style="fill: #95529f; fill-opacity: 0.5; stroke: #95529f; stroke-opacity: 0.5"/>
     <use xlink:href="#m7640a08c5f" x="76.273706" y="78.593111" style="fill: #95529f; fill-opacity: 0.5; stroke: #95529f; stroke-opacity: 0.5"/>
     <use xlink:href="#m7640a08c5f" x="72.564021" y="71.967931" style="fill: #95529f; fill-opacity: 0.5; stroke: #95529f; stroke-opacity: 0.5"/>
     <use xlink:href="#m7640a08c5f" x="74.86732" y="86.198727" style="fill: #95529f; fill-opacity: 0.5; stroke: #95529f; stroke-opacity: 0.5"/>
     <use xlink:href="#m7640a08c5f" x="69.337323" y="58.380453" style="fill: #95529f; fill-opacity: 0.5; stroke: #95529f; stroke-opacity: 0.5"/>
     <use xlink:href="#m7640a08c5f" x="88.513368" y="71.049745" style="fill: #95529f; fill-opacity: 0.5; stroke: #95529f; stroke-opacity: 0.5"/>
     <use xlink:href="#m7640a08c5f" x="62.602817" y="87.815058" style="fill: #95529f; fill-opacity: 0.5; stroke: #95529f; stroke-opacity: 0.5"/>
     <use xlink:href="#m7640a08c5f" x="82.250445" y="83.704388" style="fill: #95529f; fill-opacity: 0.5; stroke: #95529f; stroke-opacity: 0.5"/>
     <use xlink:href="#m7640a08c5f" x="67.985627" y="87.639282" style="fill: #95529f; fill-opacity: 0.5; stroke: #95529f; stroke-opacity: 0.5"/>
     <use xlink:href="#m7640a08c5f" x="81.527217" y="84.832735" style="fill: #95529f; fill-opacity: 0.5; stroke: #95529f; stroke-opacity: 0.5"/>
     <use xlink:href="#m7640a08c5f" x="74.951941" y="85.755384" style="fill: #95529f; fill-opacity: 0.5; stroke: #95529f; stroke-opacity: 0.5"/>
     <use xlink:href="#m7640a08c5f" x="70.974779" y="90.934822" style="fill: #95529f; fill-opacity: 0.5; stroke: #95529f; stroke-opacity: 0.5"/>
     <use xlink:href="#m7640a08c5f" x="61.731543" y="74.194406" style="fill: #95529f; fill-opacity: 0.5; stroke: #95529f; stroke-opacity: 0.5"/>
     <use xlink:href="#m7640a08c5f" x="71.047795" y="89.485969" style="fill: #95529f; fill-opacity: 0.5; stroke: #95529f; stroke-opacity: 0.5"/>
     <use xlink:href="#m7640a08c5f" x="77.504649" y="82.618471" style="fill: #95529f; fill-opacity: 0.5; stroke: #95529f; stroke-opacity: 0.5"/>
     <use xlink:href="#m7640a08c5f" x="74.417165" y="77.195625" style="fill: #95529f; fill-opacity: 0.5; stroke: #95529f; stroke-opacity: 0.5"/>
     <use xlink:href="#m7640a08c5f" x="72.758464" y="85.744811" style="fill: #95529f; fill-opacity: 0.5; stroke: #95529f; stroke-opacity: 0.5"/>
     <use xlink:href="#m7640a08c5f" x="80.545379" y="69.3312" style="fill: #95529f; fill-opacity: 0.5; stroke: #95529f; stroke-opacity: 0.5"/>
     <use xlink:href="#m7640a08c5f" x="77.972019" y="80.951713" style="fill: #95529f; fill-opacity: 0.5; stroke: #95529f; stroke-opacity: 0.5"/>
     <use xlink:href="#m7640a08c5f" x="77.766444" y="77.418756" style="fill: #95529f; fill-opacity: 0.5; stroke: #95529f; stroke-opacity: 0.5"/>
     <use xlink:href="#m7640a08c5f" x="84.031017" y="79.76645" style="fill: #95529f; fill-opacity: 0.5; stroke: #95529f; stroke-opacity: 0.5"/>
     <use xlink:href="#m7640a08c5f" x="78.152516" y="74.833347" style="fill: #95529f; fill-opacity: 0.5; stroke: #95529f; stroke-opacity: 0.5"/>
     <use xlink:href="#m7640a08c5f" x="72.255003" y="85.788694" style="fill: #95529f; fill-opacity: 0.5; stroke: #95529f; stroke-opacity: 0.5"/>
     <use xlink:href="#m7640a08c5f" x="78.415878" y="88.461426" style="fill: #95529f; fill-opacity: 0.5; stroke: #95529f; stroke-opacity: 0.5"/>
     <use xlink:href="#m7640a08c5f" x="73.131331" y="83.784873" style="fill: #95529f; fill-opacity: 0.5; stroke: #95529f; stroke-opacity: 0.5"/>
     <use xlink:href="#m7640a08c5f" x="76.005037" y="73.633953" style="fill: #95529f; fill-opacity: 0.5; stroke: #95529f; stroke-opacity: 0.5"/>
     <use xlink:href="#m7640a08c5f" x="81.21914" y="89.293002" style="fill: #95529f; fill-opacity: 0.5; stroke: #95529f; stroke-opacity: 0.5"/>
     <use xlink:href="#m7640a08c5f" x="76.212291" y="69.205497" style="fill: #95529f; fill-opacity: 0.5; stroke: #95529f; stroke-opacity: 0.5"/>
     <use xlink:href="#m7640a08c5f" x="84.693103" y="73.01086" style="fill: #95529f; fill-opacity: 0.5; stroke: #95529f; stroke-opacity: 0.5"/>
     <use xlink:href="#m7640a08c5f" x="82.704842" y="85.771346" style="fill: #95529f; fill-opacity: 0.5; stroke: #95529f; stroke-opacity: 0.5"/>
     <use xlink:href="#m7640a08c5f" x="61.143314" y="75.978136" style="fill: #95529f; fill-opacity: 0.5; stroke: #95529f; stroke-opacity: 0.5"/>
     <use xlink:href="#m7640a08c5f" x="79.86622" y="76.747603" style="fill: #95529f; fill-opacity: 0.5; stroke: #95529f; stroke-opacity: 0.5"/>
     <use xlink:href="#m7640a08c5f" x="82.105642" y="84.073817" style="fill: #95529f; fill-opacity: 0.5; stroke: #95529f; stroke-opacity: 0.5"/>
     <use xlink:href="#m7640a08c5f" x="85.60616" y="78.118856" style="fill: #95529f; fill-opacity: 0.5; stroke: #95529f; stroke-opacity: 0.5"/>
     <use xlink:href="#m7640a08c5f" x="65.149899" y="75.274054" style="fill: #95529f; fill-opacity: 0.5; stroke: #95529f; stroke-opacity: 0.5"/>
     <use xlink:href="#m7640a08c5f" x="61.735832" y="84.082388" style="fill: #95529f; fill-opacity: 0.5; stroke: #95529f; stroke-opacity: 0.5"/>
     <use xlink:href="#m7640a08c5f" x="71.755196" y="73.612159" style="fill: #95529f; fill-opacity: 0.5; stroke: #95529f; stroke-opacity: 0.5"/>
     <use xlink:href="#m7640a08c5f" x="69.309328" y="83.715733" style="fill: #95529f; fill-opacity: 0.5; stroke: #95529f; stroke-opacity: 0.5"/>
     <use xlink:href="#m7640a08c5f" x="72.949812" y="81.677115" style="fill: #95529f; fill-opacity: 0.5; stroke: #95529f; stroke-opacity: 0.5"/>
     <use xlink:href="#m7640a08c5f" x="79.059347" y="87.723014" style="fill: #95529f; fill-opacity: 0.5; stroke: #95529f; stroke-opacity: 0.5"/>
     <use xlink:href="#m7640a08c5f" x="70.387726" y="76.38836" style="fill: #95529f; fill-opacity: 0.5; stroke: #95529f; stroke-opacity: 0.5"/>
     <use xlink:href="#m7640a08c5f" x="77.135318" y="86.506368" style="fill: #95529f; fill-opacity: 0.5; stroke: #95529f; stroke-opacity: 0.5"/>
     <use xlink:href="#m7640a08c5f" x="83.559391" y="78.354231" style="fill: #95529f; fill-opacity: 0.5; stroke: #95529f; stroke-opacity: 0.5"/>
    </g>
   </g>
   <g id="PathCollection_2">
    <defs>
     <path id="m8b631278f9" d="M -5 0 
L 5 0 
M 0 5 
L 0 -5 
" style="stroke: #ff0000; stroke-width: 1.5"/>
    </defs>
    <g clip-path="url(#pa46434f012)">
     <use xlink:href="#m8b631278f9" x="61.2" y="82.8" style="fill: #ff0000; stroke: #ff0000; stroke-width: 1.5"/>
    </g>
   </g>
   <g id="PathCollection_3">
    <defs>
     <path id="mab705581d5" d="M -0 3.535534 
L 3.535534 0 
L 0 -3.535534 
L -3.535534 -0 
z
" style="stroke: #000000"/>
    </defs>
    <g clip-path="url(#pa46434f012)">
     <use xlink:href="#mab705581d5" x="74.058788" y="79.632246" style="stroke: #000000"/>
    </g>
   </g>
   <g id="matplotlib.axis_1">
    <g id="xtick_1">
     <g id="line2d_1">
      <defs>
       <path id="md1e56e310a" d="M 0 0 
L 0 3.5 
" style="stroke: #000000; stroke-width: 0.8"/>
      </defs>
      <g>
       <use xlink:href="#md1e56e310a" x="30" y="129.6" style="stroke: #000000; stroke-width: 0.8"/>
      </g>
     </g>
     <g id="text_1">
      <!-- −1 -->
      <g transform="translate(22.628906 144.198438)scale(0.1 -0.1)">
       <defs>
        <path id="DejaVuSans-2212" d="M 678 2272 
L 4684 2272 
L 4684 1741 
L 678 1741 
L 678 2272 
z
" transform="scale(0.015625)"/>
        <path id="DejaVuSans-31" d="M 794 531 
L 1825 531 
L 1825 4091 
L 703 3866 
L 703 4441 
L 1819 4666 
L 2450 4666 
L 2450 531 
L 3481 531 
L 3481 0 
L 794 0 
L 794 531 
z
" transform="scale(0.015625)"/>
       </defs>
       <use xlink:href="#DejaVuSans-2212"/>
       <use xlink:href="#DejaVuSans-31" x="83.789062"/>
      </g>
     </g>
    </g>
    <g id="xtick_2">
     <g id="line2d_2">
      <g>
       <use xlink:href="#md1e56e310a" x="61.2" y="129.6" style="stroke: #000000; stroke-width: 0.8"/>
      </g>
     </g>
     <g id="text_2">
      <!-- 0 -->
      <g transform="translate(58.01875 144.198438)scale(0.1 -0.1)">
       <defs>
        <path id="DejaVuSans-30" d="M 2034 4250 
Q 1547 4250 1301 3770 
Q 1056 3291 1056 2328 
Q 1056 1369 1301 889 
Q 1547 409 2034 409 
Q 2525 409 2770 889 
Q 3016 1369 3016 2328 
Q 3016 3291 2770 3770 
Q 2525 4250 2034 4250 
z
M 2034 4750 
Q 2819 4750 3233 4129 
Q 3647 3509 3647 2328 
Q 3647 1150 3233 529 
Q 2819 -91 2034 -91 
Q 1250 -91 836 529 
Q 422 1150 422 2328 
Q 422 3509 836 4129 
Q 1250 4750 2034 4750 
z
" transform="scale(0.015625)"/>
       </defs>
       <use xlink:href="#DejaVuSans-30"/>
      </g>
     </g>
    </g>
    <g id="xtick_3">
     <g id="line2d_3">
      <g>
       <use xlink:href="#md1e56e310a" x="92.4" y="129.6" style="stroke: #000000; stroke-width: 0.8"/>
      </g>
     </g>
     <g id="text_3">
      <!-- 1 -->
      <g transform="translate(89.21875 144.198438)scale(0.1 -0.1)">
       <use xlink:href="#DejaVuSans-31"/>
      </g>
     </g>
    </g>
    <g id="text_4">
     <!-- x (m) -->
     <g transform="translate(47.879687 157.876563)scale(0.1 -0.1)">
      <defs>
       <path id="DejaVuSans-78" d="M 3513 3500 
L 2247 1797 
L 3578 0 
L 2900 0 
L 1881 1375 
L 863 0 
L 184 0 
L 1544 1831 
L 300 3500 
L 978 3500 
L 1906 2253 
L 2834 3500 
L 3513 3500 
z
" transform="scale(0.015625)"/>
       <path id="DejaVuSans-20" transform="scale(0.015625)"/>
       <path id="DejaVuSans-28" d="M 1984 4856 
Q 1566 4138 1362 3434 
Q 1159 2731 1159 2009 
Q 1159 1288 1364 580 
Q 1569 -128 1984 -844 
L 1484 -844 
Q 1016 -109 783 600 
Q 550 1309 550 2009 
Q 550 2706 781 3412 
Q 1013 4119 1484 4856 
L 1984 4856 
z
" transform="scale(0.015625)"/>
       <path id="DejaVuSans-6d" d="M 3328 2828 
Q 3544 3216 3844 3400 
Q 4144 3584 4550 3584 
Q 5097 3584 5394 3201 
Q 5691 2819 5691 2113 
L 5691 0 
L 5113 0 
L 5113 2094 
Q 5113 2597 4934 2840 
Q 4756 3084 4391 3084 
Q 3944 3084 3684 2787 
Q 3425 2491 3425 1978 
L 3425 0 
L 2847 0 
L 2847 2094 
Q 2847 2600 2669 2842 
Q 2491 3084 2119 3084 
Q 1678 3084 1418 2786 
Q 1159 2488 1159 1978 
L 1159 0 
L 581 0 
L 581 3500 
L 1159 3500 
L 1159 2956 
Q 1356 3278 1631 3431 
Q 1906 3584 2284 3584 
Q 2666 3584 2933 3390 
Q 3200 3197 3328 2828 
z
" transform="scale(0.015625)"/>
       <path id="DejaVuSans-29" d="M 513 4856 
L 1013 4856 
Q 1481 4119 1714 3412 
Q 1947 2706 1947 2009 
Q 1947 1309 1714 600 
Q 1481 -109 1013 -844 
L 513 -844 
Q 928 -128 1133 580 
Q 1338 1288 1338 2009 
Q 1338 2731 1133 3434 
Q 928 4138 513 4856 
z
" transform="scale(0.015625)"/>
      </defs>
      <use xlink:href="#DejaVuSans-78"/>
      <use xlink:href="#DejaVuSans-20" x="59.179688"/>
      <use xlink:href="#DejaVuSans-28" x="90.966797"/>
      <use xlink:href="#DejaVuSans-6d" x="129.980469"/>
      <use xlink:href="#DejaVuSans-29" x="227.392578"/>
     </g>
    </g>
   </g>
   <g id="matplotlib.axis_2">
    <g id="ytick_1">
     <g id="line2d_4">
      <defs>
       <path id="m75c1dc5160" d="M 0 0 
L -3.5 0 
" style="stroke: #000000; stroke-width: 0.8"/>
      </defs>
      <g>
       <use xlink:href="#m75c1dc5160" x="14.4" y="114" style="stroke: #000000; stroke-width: 0.8"/>
      </g>
     </g>
     <g id="text_5">
      <!-- −1 -->
      <g transform="translate(-7.342187 117.799219)scale(0.1 -0.1)">
       <use xlink:href="#DejaVuSans-2212"/>
       <use xlink:href="#DejaVuSans-31" x="83.789062"/>
      </g>
     </g>
    </g>
    <g id="ytick_2">
     <g id="line2d_5">
      <g>
       <use xlink:href="#m75c1dc5160" x="14.4" y="82.8" style="stroke: #000000; stroke-width: 0.8"/>
      </g>
     </g>
     <g id="text_6">
      <!-- 0 -->
      <g transform="translate(1.0375 86.599219)scale(0.1 -0.1)">
       <use xlink:href="#DejaVuSans-30"/>
      </g>
     </g>
    </g>
    <g id="ytick_3">
     <g id="line2d_6">
      <g>
       <use xlink:href="#m75c1dc5160" x="14.4" y="51.6" style="stroke: #000000; stroke-width: 0.8"/>
      </g>
     </g>
     <g id="text_7">
      <!-- 1 -->
      <g transform="translate(1.0375 55.399219)scale(0.1 -0.1)">
       <use xlink:href="#DejaVuSans-31"/>
      </g>
     </g>
    </g>
   </g>
   <g id="patch_3">
    <path d="M 14.4 129.6 
L 14.4 36 
" style="fill: none; stroke: #000000; stroke-width: 0.8; stroke-linejoin: miter; stroke-linecap: square"/>
   </g>
   <g id="patch_4">
    <path d="M 108 129.6 
L 108 36 
" style="fill: none; stroke: #000000; stroke-width: 0.8; stroke-linejoin: miter; stroke-linecap: square"/>
   </g>
   <g id="patch_5">
    <path d="M 14.4 129.6 
L 108 129.6 
" style="fill: none; stroke: #000000; stroke-width: 0.8; stroke-linejoin: miter; stroke-linecap: square"/>
   </g>
   <g id="patch_6">
    <path d="M 14.4 36 
L 108 36 
" style="fill: none; stroke: #000000; stroke-width: 0.8; stroke-linejoin: miter; stroke-linecap: square"/>
   </g>
  </g>
  <g id="axes_2">
   <g id="patch_7">
    <path d="M 14.4 33.12 
L 108 33.12 
L 108 4.32 
L 14.4 4.32 
z
" style="fill: #ffffff"/>
   </g>
   <g id="patch_8">
    <path d="M 14.4 33.12 
L 22.2 33.12 
L 22.2 33.12 
L 14.4 33.12 
z
" clip-path="url(#p33f28b869f)" style="fill: #95529f"/>
   </g>
   <g id="patch_9">
    <path d="M 22.2 33.12 
L 30 33.12 
L 30 33.12 
L 22.2 33.12 
z
" clip-path="url(#p33f28b869f)" style="fill: #95529f"/>
   </g>
   <g id="patch_10">
    <path d="M 30 33.12 
L 37.8 33.12 
L 37.8 33.12 
L 30 33.12 
z
" clip-path="url(#p33f28b869f)" style="fill: #95529f"/>
   </g>
   <g id="patch_11">
    <path d="M 37.8 33.12 
L 45.6 33.12 
L 45.6 33.12 
L 37.8 33.12 
z
" clip-path="url(#p33f28b869f)" style="fill: #95529f"/>
   </g>
   <g id="patch_12">
    <path d="M 45.6 33.12 
L 53.4 33.12 
L 53.4 33.12 
L 45.6 33.12 
z
" clip-path="url(#p33f28b869f)" style="fill: #95529f"/>
   </g>
   <g id="patch_13">
    <path d="M 53.4 33.12 
L 61.2 33.12 
L 61.2 28.32 
L 53.4 28.32 
z
" clip-path="url(#p33f28b869f)" style="fill: #95529f"/>
   </g>
   <g id="patch_14">
    <path d="M 61.2 33.12 
L 69 33.12 
L 69 25.44 
L 61.2 25.44 
z
" clip-path="url(#p33f28b869f)" style="fill: #95529f"/>
   </g>
   <g id="patch_15">
    <path d="M 69 33.12 
L 76.8 33.12 
L 76.8 5.28 
L 69 5.28 
z
" clip-path="url(#p33f28b869f)" style="fill: #95529f"/>
   </g>
   <g id="patch_16">
    <path d="M 76.8 33.12 
L 84.6 33.12 
L 84.6 12 
L 76.8 12 
z
" clip-path="url(#p33f28b869f)" style="fill: #95529f"/>
   </g>
   <g id="patch_17">
    <path d="M 84.6 33.12 
L 92.4 33.12 
L 92.4 29.28 
L 84.6 29.28 
z
" clip-path="url(#p33f28b869f)" style="fill: #95529f"/>
   </g>
   <g id="patch_18">
    <path d="M 92.4 33.12 
L 100.2 33.12 
L 100.2 33.12 
L 92.4 33.12 
z
" clip-path="url(#p33f28b869f)" style="fill: #95529f"/>
   </g>
   <g id="patch_19">
    <path d="M 100.2 33.12 
L 108 33.12 
L 108 33.12 
L 100.2 33.12 
z
" clip-path="url(#p33f28b869f)" style="fill: #95529f"/>
   </g>
   <g id="matplotlib.axis_3">
    <g id="xtick_4">
     <g id="line2d_7">
      <g>
       <use xlink:href="#md1e56e310a" x="30" y="33.12" style="stroke: #000000; stroke-width: 0.8"/>
      </g>
     </g>
    </g>
    <g id="xtick_5">
     <g id="line2d_8">
      <g>
       <use xlink:href="#md1e56e310a" x="61.2" y="33.12" style="stroke: #000000; stroke-width: 0.8"/>
      </g>
     </g>
    </g>
    <g id="xtick_6">
     <g id="line2d_9">
      <g>
       <use xlink:href="#md1e56e310a" x="92.4" y="33.12" style="stroke: #000000; stroke-width: 0.8"/>
      </g>
     </g>
    </g>
   </g>
   <g id="matplotlib.axis_4">
    <g id="ytick_4">
     <g id="line2d_10">
      <g>
       <use xlink:href="#m75c1dc5160" x="14.4" y="33.12" style="stroke: #000000; stroke-width: 0.8"/>
      </g>
     </g>
     <g id="text_8">
      <!-- 0 -->
      <g transform="translate(1.0375 36.919219)scale(0.1 -0.1)">
       <use xlink:href="#DejaVuSans-30"/>
      </g>
     </g>
    </g>
    <g id="ytick_5">
     <g id="line2d_11">
      <g>
       <use xlink:href="#m75c1dc5160" x="14.4" y="9.12" style="stroke: #000000; stroke-width: 0.8"/>
      </g>
     </g>
     <g id="text_9">
      <!-- 25 -->
      <g transform="translate(-5.325 12.919219)scale(0.1 -0.1)">
       <defs>
        <path id="DejaVuSans-32" d="M 1228 531 
L 3431 531 
L 3431 0 
L 469 0 
L 469 531 
Q 828 903 1448 1529 
Q 2069 2156 2228 2338 
Q 2531 2678 2651 2914 
Q 2772 3150 2772 3378 
Q 2772 3750 2511 3984 
Q 2250 4219 1831 4219 
Q 1534 4219 1204 4116 
Q 875 4013 500 3803 
L 500 4441 
Q 881 4594 1212 4672 
Q 1544 4750 1819 4750 
Q 2544 4750 2975 4387 
Q 3406 4025 3406 3419 
Q 3406 3131 3298 2873 
Q 3191 2616 2906 2266 
Q 2828 2175 2409 1742 
Q 1991 1309 1228 531 
z
" transform="scale(0.015625)"/>
        <path id="DejaVuSans-35" d="M 691 4666 
L 3169 4666 
L 3169 4134 
L 1269 4134 
L 1269 2991 
Q 1406 3038 1543 3061 
Q 1681 3084 1819 3084 
Q 2600 3084 3056 2656 
Q 3513 2228 3513 1497 
Q 3513 744 3044 326 
Q 2575 -91 1722 -91 
Q 1428 -91 1123 -41 
Q 819 9 494 109 
L 494 744 
Q 775 591 1075 516 
Q 1375 441 1709 441 
Q 2250 441 2565 725 
Q 2881 1009 2881 1497 
Q 2881 1984 2565 2268 
Q 2250 2553 1709 2553 
Q 1456 2553 1204 2497 
Q 953 2441 691 2322 
L 691 4666 
z
" transform="scale(0.015625)"/>
       </defs>
       <use xlink:href="#DejaVuSans-32"/>
       <use xlink:href="#DejaVuSans-35" x="63.623047"/>
      </g>
     </g>
    </g>
   </g>
   <g id="line2d_12">
    <path d="M 61.2 33.12 
L 61.2 4.32 
" clip-path="url(#p33f28b869f)" style="fill: none; stroke: #ff0000; stroke-width: 1.5; stroke-linecap: square"/>
   </g>
   <g id="patch_20">
    <path d="M 14.4 33.12 
L 14.4 4.32 
" style="fill: none; stroke: #000000; stroke-width: 0.8; stroke-linejoin: miter; stroke-linecap: square"/>
   </g>
   <g id="patch_21">
    <path d="M 14.4 33.12 
L 108 33.12 
" style="fill: none; stroke: #000000; stroke-width: 0.8; stroke-linejoin: miter; stroke-linecap: square"/>
   </g>
  </g>
  <g id="axes_3">
   <g id="patch_22">
    <path d="M 110.88 129.6 
L 139.68 129.6 
L 139.68 36 
L 110.88 36 
z
" style="fill: #ffffff"/>
   </g>
   <g id="patch_23">
    <path d="M 110.88 129.6 
L 110.88 129.6 
L 110.88 121.8 
L 110.88 121.8 
z
" clip-path="url(#p14ee6f1236)" style="fill: #95529f"/>
   </g>
   <g id="patch_24">
    <path d="M 110.88 121.8 
L 110.88 121.8 
L 110.88 114 
L 110.88 114 
z
" clip-path="url(#p14ee6f1236)" style="fill: #95529f"/>
   </g>
   <g id="patch_25">
    <path d="M 110.88 114 
L 110.88 114 
L 110.88 106.2 
L 110.88 106.2 
z
" clip-path="url(#p14ee6f1236)" style="fill: #95529f"/>
   </g>
   <g id="patch_26">
    <path d="M 110.88 106.2 
L 110.88 106.2 
L 110.88 98.4 
L 110.88 98.4 
z
" clip-path="url(#p14ee6f1236)" style="fill: #95529f"/>
   </g>
   <g id="patch_27">
    <path d="M 110.88 98.4 
L 112.8 98.4 
L 112.8 90.6 
L 110.88 90.6 
z
" clip-path="url(#p14ee6f1236)" style="fill: #95529f"/>
   </g>
   <g id="patch_28">
    <path d="M 110.88 90.6 
L 134.88 90.6 
L 134.88 82.8 
L 110.88 82.8 
z
" clip-path="url(#p14ee6f1236)" style="fill: #95529f"/>
   </g>
   <g id="patch_29">
    <path d="M 110.88 82.8 
L 133.92 82.8 
L 133.92 75 
L 110.88 75 
z
" clip-path="url(#p14ee6f1236)" style="fill: #95529f"/>
   </g>
   <g id="patch_30">
    <path d="M 110.88 75 
L 125.28 75 
L 125.28 67.2 
L 110.88 67.2 
z
" clip-path="url(#p14ee6f1236)" style="fill: #95529f"/>
   </g>
   <g id="patch_31">
    <path d="M 110.88 67.2 
L 111.84 67.2 
L 111.84 59.4 
L 110.88 59.4 
z
" clip-path="url(#p14ee6f1236)" style="fill: #95529f"/>
   </g>
   <g id="patch_32">
    <path d="M 110.88 59.4 
L 111.84 59.4 
L 111.84 51.6 
L 110.88 51.6 
z
" clip-path="url(#p14ee6f1236)" style="fill: #95529f"/>
   </g>
   <g id="patch_33">
    <path d="M 110.88 51.6 
L 110.88 51.6 
L 110.88 43.8 
L 110.88 43.8 
z
" clip-path="url(#p14ee6f1236)" style="fill: #95529f"/>
   </g>
   <g id="patch_34">
    <path d="M 110.88 43.8 
L 110.88 43.8 
L 110.88 36 
L 110.88 36 
z
" clip-path="url(#p14ee6f1236)" style="fill: #95529f"/>
   </g>
   <g id="matplotlib.axis_5">
    <g id="xtick_7">
     <g id="line2d_13">
      <g>
       <use xlink:href="#md1e56e310a" x="110.88" y="129.6" style="stroke: #000000; stroke-width: 0.8"/>
      </g>
     </g>
     <g id="text_10">
      <!-- 0 -->
      <g transform="translate(107.69875 144.198438)scale(0.1 -0.1)">
       <use xlink:href="#DejaVuSans-30"/>
      </g>
     </g>
    </g>
    <g id="xtick_8">
     <g id="line2d_14">
      <g>
       <use xlink:href="#md1e56e310a" x="134.88" y="129.6" style="stroke: #000000; stroke-width: 0.8"/>
      </g>
     </g>
     <g id="text_11">
      <!-- 25 -->
      <g transform="translate(128.5175 144.198438)scale(0.1 -0.1)">
       <use xlink:href="#DejaVuSans-32"/>
       <use xlink:href="#DejaVuSans-35" x="63.623047"/>
      </g>
     </g>
    </g>
   </g>
   <g id="matplotlib.axis_6">
    <g id="ytick_6">
     <g id="line2d_15">
      <g>
       <use xlink:href="#m75c1dc5160" x="110.88" y="114" style="stroke: #000000; stroke-width: 0.8"/>
      </g>
     </g>
    </g>
    <g id="ytick_7">
     <g id="line2d_16">
      <g>
       <use xlink:href="#m75c1dc5160" x="110.88" y="82.8" style="stroke: #000000; stroke-width: 0.8"/>
      </g>
     </g>
    </g>
    <g id="ytick_8">
     <g id="line2d_17">
      <g>
       <use xlink:href="#m75c1dc5160" x="110.88" y="51.6" style="stroke: #000000; stroke-width: 0.8"/>
      </g>
     </g>
    </g>
   </g>
   <g id="line2d_18">
    <path d="M 110.88 82.8 
L 139.68 82.8 
" clip-path="url(#p14ee6f1236)" style="fill: none; stroke: #ff0000; stroke-width: 1.5; stroke-linecap: square"/>
   </g>
   <g id="patch_35">
    <path d="M 110.88 129.6 
L 110.88 36 
" style="fill: none; stroke: #000000; stroke-width: 0.8; stroke-linejoin: miter; stroke-linecap: square"/>
   </g>
   <g id="patch_36">
    <path d="M 110.88 129.6 
L 139.68 129.6 
" style="fill: none; stroke: #000000; stroke-width: 0.8; stroke-linejoin: miter; stroke-linecap: square"/>
   </g>
  </g>
 </g>
 <defs>
  <clipPath id="pa46434f012">
   <rect x="14.4" y="36" width="93.6" height="93.6"/>
  </clipPath>
  <clipPath id="p33f28b869f">
   <rect x="14.4" y="4.32" width="93.6" height="28.8"/>
  </clipPath>
  <clipPath id="p14ee6f1236">
   <rect x="110.88" y="36" width="28.8" height="93.6"/>
  </clipPath>
 </defs>
</svg>
