<?xml version="1.0" encoding="utf-8" standalone="no"?>
<!DOCTYPE svg PUBLIC "-//W3C//DTD SVG 1.1//EN"
  "http://www.w3.org/Graphics/SVG/1.1/DTD/svg11.dtd">
<svg xmlns:xlink="http://www.w3.org/1999/xlink" width="144pt" height="144pt" viewBox="0 0 144 144" xmlns="http://www.w3.org/2000/svg" version="1.1">
 <metadata>
  <rdf:RDF xmlns:dc="http://purl.org/dc/elements/1.1/" xmlns:cc="http://creativecommons.org/ns#" xmlns:rdf="http://www.w3.org/1999/02/22-rdf-syntax-ns#">
   <cc:Work>
    <dc:type rdf:resource="http://purl.org/dc/dcmitype/StillImage"/>
    <dc:date>2024-02-07T14:57:35.495097</dc:date>
    <dc:format>image/svg+xml</dc:format>
    <dc:creator>
     <cc:Agent>
      <dc:title>Matplotlib v3.5.1, https://matplotlib.org/</dc:title>
     </cc:Agent>
    </dc:creator>
   </cc:Work>
  </rdf:RDF>
 </metadata>
 <defs>
  <style type="text/css">*{stroke-linejoin: round; stroke-linecap: butt}</style>
 </defs>
 <g id="figure_1">
  <g id="patch_1">
   <path d="M 0 144 
L 144 144 
L 144 0 
L 0 0 
L 0 144 
z
" style="fill: none"/>
  </g>
  <g id="axes_1">
   <g id="patch_2">
    <path d="M 14.4 129.6 
L 108 129.6 
L 108 36 
L 14.4 36 
z
" style="fill: #ffffff"/>
   </g>
   <g id="PathCollection_1">
    <defs>
     <path id="mdd25886dea" d="M 0 1.581139 
C 0.419323 1.581139 0.821528 1.41454 1.118034 1.118034 
C 1.41454 0.821528 1.581139 0.419323 1.581139 0 
C 1.581139 -0.419323 1.41454 -0.821528 1.118034 -1.118034 
C 0.821528 -1.41454 0.419323 -1.581139 0 -1.581139 
C -0.419323 -1.581139 -0.821528 -1.41454 -1.118034 -1.118034 
C -1.41454 -0.821528 -1.581139 -0.419323 -1.581139 0 
C -1.581139 0.419323 -1.41454 0.821528 -1.118034 1.118034 
C -0.821528 1.41454 -0.419323 1.581139 0 1.581139 
z
" style="stroke: #52aa4f; stroke-opacity: 0.5"/>
    </defs>
    <g clip-path="url(#p8eaacf6d83)">
     <use xlink:href="#mdd25886dea" x="64.090354" y="85.659616" style="fill: #52aa4f; fill-opacity: 0.5; stroke: #52aa4f; stroke-opacity: 0.5"/>
     <use xlink:href="#mdd25886dea" x="63.273335" y="66.589898" style="fill: #52aa4f; fill-opacity: 0.5; stroke: #52aa4f; stroke-opacity: 0.5"/>
     <use xlink:href="#mdd25886dea" x="59.699792" y="74.625741" style="fill: #52aa4f; fill-opacity: 0.5; stroke: #52aa4f; stroke-opacity: 0.5"/>
     <use xlink:href="#mdd25886dea" x="56.917004" y="69.594472" style="fill: #52aa4f; fill-opacity: 0.5; stroke: #52aa4f; stroke-opacity: 0.5"/>
     <use xlink:href="#mdd25886dea" x="57.959135" y="74.437757" style="fill: #52aa4f; fill-opacity: 0.5; stroke: #52aa4f; stroke-opacity: 0.5"/>
     <use xlink:href="#mdd25886dea" x="74.311353" y="76.595602" style="fill: #52aa4f; fill-opacity: 0.5; stroke: #52aa4f; stroke-opacity: 0.5"/>
     <use xlink:href="#mdd25886dea" x="62.153444" y="76.814293" style="fill: #52aa4f; fill-opacity: 0.5; stroke: #52aa4f; stroke-opacity: 0.5"/>
     <use xlink:href="#mdd25886dea" x="65.780277" y="76.441701" style="fill: #52aa4f; fill-opacity: 0.5; stroke: #52aa4f; stroke-opacity: 0.5"/>
     <use xlink:href="#mdd25886dea" x="68.933977" y="84.389363" style="fill: #52aa4f; fill-opacity: 0.5; stroke: #52aa4f; stroke-opacity: 0.5"/>
     <use xlink:href="#mdd25886dea" x="47.478283" y="81.887745" style="fill: #52aa4f; fill-opacity: 0.5; stroke: #52aa4f; stroke-opacity: 0.5"/>
     <use xlink:href="#mdd25886dea" x="62.190884" y="92.0172" style="fill: #52aa4f; fill-opacity: 0.5; stroke: #52aa4f; stroke-opacity: 0.5"/>
     <use xlink:href="#mdd25886dea" x="63.067441" y="92.153817" style="fill: #52aa4f; fill-opacity: 0.5; stroke: #52aa4f; stroke-opacity: 0.5"/>
     <use xlink:href="#mdd25886dea" x="67.30969" y="81.550218" style="fill: #52aa4f; fill-opacity: 0.5; stroke: #52aa4f; stroke-opacity: 0.5"/>
     <use xlink:href="#mdd25886dea" x="65.156033" y="80.790101" style="fill: #52aa4f; fill-opacity: 0.5; stroke: #52aa4f; stroke-opacity: 0.5"/>
     <use xlink:href="#mdd25886dea" x="64.792797" y="79.370906" style="fill: #52aa4f; fill-opacity: 0.5; stroke: #52aa4f; stroke-opacity: 0.5"/>
     <use xlink:href="#mdd25886dea" x="65.1548" y="72.532698" style="fill: #52aa4f; fill-opacity: 0.5; stroke: #52aa4f; stroke-opacity: 0.5"/>
     <use xlink:href="#mdd25886dea" x="50.12866" y="75.697456" style="fill: #52aa4f; fill-opacity: 0.5; stroke: #52aa4f; stroke-opacity: 0.5"/>
     <use xlink:href="#mdd25886dea" x="70.007135" y="77.139356" style="fill: #52aa4f; fill-opacity: 0.5; stroke: #52aa4f; stroke-opacity: 0.5"/>
     <use xlink:href="#mdd25886dea" x="50.296056" y="76.27376" style="fill: #52aa4f; fill-opacity: 0.5; stroke: #52aa4f; stroke-opacity: 0.5"/>
     <use xlink:href="#mdd25886dea" x="65.329735" y="70.457779" style="fill: #52aa4f; fill-opacity: 0.5; stroke: #52aa4f; stroke-opacity: 0.5"/>
     <use xlink:href="#mdd25886dea" x="65.213323" y="82.433794" style="fill: #52aa4f; fill-opacity: 0.5; stroke: #52aa4f; stroke-opacity: 0.5"/>
     <use xlink:href="#mdd25886dea" x="60.340613" y="71.376458" style="fill: #52aa4f; fill-opacity: 0.5; stroke: #52aa4f; stroke-opacity: 0.5"/>
     <use xlink:href="#mdd25886dea" x="65.406924" y="78.769497" style="fill: #52aa4f; fill-opacity: 0.5; stroke: #52aa4f; stroke-opacity: 0.5"/>
     <use xlink:href="#mdd25886dea" x="53.729611" y="68.607834" style="fill: #52aa4f; fill-opacity: 0.5; stroke: #52aa4f; stroke-opacity: 0.5"/>
     <use xlink:href="#mdd25886dea" x="64.274956" y="75.027615" style="fill: #52aa4f; fill-opacity: 0.5; stroke: #52aa4f; stroke-opacity: 0.5"/>
     <use xlink:href="#mdd25886dea" x="75.349009" y="88.143657" style="fill: #52aa4f; fill-opacity: 0.5; stroke: #52aa4f; stroke-opacity: 0.5"/>
     <use xlink:href="#mdd25886dea" x="64.268678" y="88.582438" style="fill: #52aa4f; fill-opacity: 0.5; stroke: #52aa4f; stroke-opacity: 0.5"/>
     <use xlink:href="#mdd25886dea" x="61.238352" y="80.724489" style="fill: #52aa4f; fill-opacity: 0.5; stroke: #52aa4f; stroke-opacity: 0.5"/>
     <use xlink:href="#mdd25886dea" x="58.35258" y="81.607486" style="fill: #52aa4f; fill-opacity: 0.5; stroke: #52aa4f; stroke-opacity: 0.5"/>
     <use xlink:href="#mdd25886dea" x="69.037721" y="72.717596" style="fill: #52aa4f; fill-opacity: 0.5; stroke: #52aa4f; stroke-opacity: 0.5"/>
     <use xlink:href="#mdd25886dea" x="62.446137" y="86.293038" style="fill: #52aa4f; fill-opacity: 0.5; stroke: #52aa4f; stroke-opacity: 0.5"/>
     <use xlink:href="#mdd25886dea" x="54.459959" y="82.605009" style="fill: #52aa4f; fill-opacity: 0.5; stroke: #52aa4f; stroke-opacity: 0.5"/>
     <use xlink:href="#mdd25886dea" x="65.334543" y="75.730192" style="fill: #52aa4f; fill-opacity: 0.5; stroke: #52aa4f; stroke-opacity: 0.5"/>
     <use xlink:href="#mdd25886dea" x="42.074675" y="75.793836" style="fill: #52aa4f; fill-opacity: 0.5; stroke: #52aa4f; stroke-opacity: 0.5"/>
     <use xlink:href="#mdd25886dea" x="60.690852" y="73.074211" style="fill: #52aa4f; fill-opacity: 0.5; stroke: #52aa4f; stroke-opacity: 0.5"/>
     <use xlink:href="#mdd25886dea" x="58.032843" y="85.619494" style="fill: #52aa4f; fill-opacity: 0.5; stroke: #52aa4f; stroke-opacity: 0.5"/>
     <use xlink:href="#mdd25886dea" x="72.477209" y="86.814496" style="fill: #52aa4f; fill-opacity: 0.5; stroke: #52aa4f; stroke-opacity: 0.5"/>
     <use xlink:href="#mdd25886dea" x="61.536357" y="76.206706" style="fill: #52aa4f; fill-opacity: 0.5; stroke: #52aa4f; stroke-opacity: 0.5"/>
     <use xlink:href="#mdd25886dea" x="60.222452" y="85.765199" style="fill: #52aa4f; fill-opacity: 0.5; stroke: #52aa4f; stroke-opacity: 0.5"/>
     <use xlink:href="#mdd25886dea" x="58.732083" y="83.030882" style="fill: #52aa4f; fill-opacity: 0.5; stroke: #52aa4f; stroke-opacity: 0.5"/>
     <use xlink:href="#mdd25886dea" x="53.032969" y="87.00625" style="fill: #52aa4f; fill-opacity: 0.5; stroke: #52aa4f; stroke-opacity: 0.5"/>
     <use xlink:href="#mdd25886dea" x="60.748508" y="84.90603" style="fill: #52aa4f; fill-opacity: 0.5; stroke: #52aa4f; stroke-opacity: 0.5"/>
     <use xlink:href="#mdd25886dea" x="60.929124" y="74.833515" style="fill: #52aa4f; fill-opacity: 0.5; stroke: #52aa4f; stroke-opacity: 0.5"/>
     <use xlink:href="#mdd25886dea" x="60.416062" y="69.476758" style="fill: #52aa4f; fill-opacity: 0.5; stroke: #52aa4f; stroke-opacity: 0.5"/>
     <use xlink:href="#mdd25886dea" x="61.283892" y="87.358276" style="fill: #52aa4f; fill-opacity: 0.5; stroke: #52aa4f; stroke-opacity: 0.5"/>
     <use xlink:href="#mdd25886dea" x="62.344074" y="83.713115" style="fill: #52aa4f; fill-opacity: 0.5; stroke: #52aa4f; stroke-opacity: 0.5"/>
     <use xlink:href="#mdd25886dea" x="71.8105" y="80.942924" style="fill: #52aa4f; fill-opacity: 0.5; stroke: #52aa4f; stroke-opacity: 0.5"/>
     <use xlink:href="#mdd25886dea" x="62.948077" y="80.717833" style="fill: #52aa4f; fill-opacity: 0.5; stroke: #52aa4f; stroke-opacity: 0.5"/>
     <use xlink:href="#mdd25886dea" x="65.946678" y="88.554923" style="fill: #52aa4f; fill-opacity: 0.5; stroke: #52aa4f; stroke-opacity: 0.5"/>
     <use xlink:href="#mdd25886dea" x="60.839407" y="70.310857" style="fill: #52aa4f; fill-opacity: 0.5; stroke: #52aa4f; stroke-opacity: 0.5"/>
     <use xlink:href="#mdd25886dea" x="51.419016" y="87.694467" style="fill: #52aa4f; fill-opacity: 0.5; stroke: #52aa4f; stroke-opacity: 0.5"/>
     <use xlink:href="#mdd25886dea" x="65.308702" y="70.349368" style="fill: #52aa4f; fill-opacity: 0.5; stroke: #52aa4f; stroke-opacity: 0.5"/>
     <use xlink:href="#mdd25886dea" x="62.394786" y="76.314644" style="fill: #52aa4f; fill-opacity: 0.5; stroke: #52aa4f; stroke-opacity: 0.5"/>
     <use xlink:href="#mdd25886dea" x="59.294433" y="71.251308" style="fill: #52aa4f; fill-opacity: 0.5; stroke: #52aa4f; stroke-opacity: 0.5"/>
     <use xlink:href="#mdd25886dea" x="64.040918" y="79.355444" style="fill: #52aa4f; fill-opacity: 0.5; stroke: #52aa4f; stroke-opacity: 0.5"/>
     <use xlink:href="#mdd25886dea" x="54.247551" y="72.253949" style="fill: #52aa4f; fill-opacity: 0.5; stroke: #52aa4f; stroke-opacity: 0.5"/>
     <use xlink:href="#mdd25886dea" x="58.526135" y="93.459709" style="fill: #52aa4f; fill-opacity: 0.5; stroke: #52aa4f; stroke-opacity: 0.5"/>
     <use xlink:href="#mdd25886dea" x="58.831893" y="87.12466" style="fill: #52aa4f; fill-opacity: 0.5; stroke: #52aa4f; stroke-opacity: 0.5"/>
     <use xlink:href="#mdd25886dea" x="63.01078" y="64.078978" style="fill: #52aa4f; fill-opacity: 0.5; stroke: #52aa4f; stroke-opacity: 0.5"/>
     <use xlink:href="#mdd25886dea" x="68.237102" y="83.876737" style="fill: #52aa4f; fill-opacity: 0.5; stroke: #52aa4f; stroke-opacity: 0.5"/>
     <use xlink:href="#mdd25886dea" x="65.489633" y="84.508193" style="fill: #52aa4f; fill-opacity: 0.5; stroke: #52aa4f; stroke-opacity: 0.5"/>
     <use xlink:href="#mdd25886dea" x="69.262231" y="83.740038" style="fill: #52aa4f; fill-opacity: 0.5; stroke: #52aa4f; stroke-opacity: 0.5"/>
     <use xlink:href="#mdd25886dea" x="66.707297" y="84.800635" style="fill: #52aa4f; fill-opacity: 0.5; stroke: #52aa4f; stroke-opacity: 0.5"/>
     <use xlink:href="#mdd25886dea" x="72.894546" y="81.586278" style="fill: #52aa4f; fill-opacity: 0.5; stroke: #52aa4f; stroke-opacity: 0.5"/>
     <use xlink:href="#mdd25886dea" x="67.241923" y="84.972729" style="fill: #52aa4f; fill-opacity: 0.5; stroke: #52aa4f; stroke-opacity: 0.5"/>
     <use xlink:href="#mdd25886dea" x="55.735329" y="79.180221" style="fill: #52aa4f; fill-opacity: 0.5; stroke: #52aa4f; stroke-opacity: 0.5"/>
     <use xlink:href="#mdd25886dea" x="61.905715" y="80.661555" style="fill: #52aa4f; fill-opacity: 0.5; stroke: #52aa4f; stroke-opacity: 0.5"/>
     <use xlink:href="#mdd25886dea" x="66.463877" y="84.327192" style="fill: #52aa4f; fill-opacity: 0.5; stroke: #52aa4f; stroke-opacity: 0.5"/>
    </g>
   </g>
   <g id="PathCollection_2">
    <defs>
     <path id="mc4e1c34e83" d="M -5 0 
L 5 0 
M 0 5 
L 0 -5 
" style="stroke: #ff0000; stroke-width: 1.5"/>
    </defs>
    <g clip-path="url(#p8eaacf6d83)">
     <use xlink:href="#mc4e1c34e83" x="61.2" y="82.8" style="fill: #ff0000; stroke: #ff0000; stroke-width: 1.5"/>
    </g>
   </g>
   <g id="PathCollection_3">
    <defs>
     <path id="m974d631441" d="M -0 3.535534 
L 3.535534 0 
L 0 -3.535534 
L -3.535534 -0 
z
" style="stroke: #000000"/>
    </defs>
    <g clip-path="url(#p8eaacf6d83)">
     <use xlink:href="#m974d631441" x="62.184709" y="79.725" style="stroke: #000000"/>
    </g>
   </g>
   <g id="matplotlib.axis_1">
    <g id="xtick_1">
     <g id="line2d_1">
      <defs>
       <path id="mc29e01ef4c" d="M 0 0 
L 0 3.5 
" style="stroke: #000000; stroke-width: 0.8"/>
      </defs>
      <g>
       <use xlink:href="#mc29e01ef4c" x="30" y="129.6" style="stroke: #000000; stroke-width: 0.8"/>
      </g>
     </g>
     <g id="text_1">
      <!-- −1 -->
      <g transform="translate(22.628906 144.198438)scale(0.1 -0.1)">
       <defs>
        <path id="DejaVuSans-2212" d="M 678 2272 
L 4684 2272 
L 4684 1741 
L 678 1741 
L 678 2272 
z
" transform="scale(0.015625)"/>
        <path id="DejaVuSans-31" d="M 794 531 
L 1825 531 
L 1825 4091 
L 703 3866 
L 703 4441 
L 1819 4666 
L 2450 4666 
L 2450 531 
L 3481 531 
L 3481 0 
L 794 0 
L 794 531 
z
" transform="scale(0.015625)"/>
       </defs>
       <use xlink:href="#DejaVuSans-2212"/>
       <use xlink:href="#DejaVuSans-31" x="83.789062"/>
      </g>
     </g>
    </g>
    <g id="xtick_2">
     <g id="line2d_2">
      <g>
       <use xlink:href="#mc29e01ef4c" x="61.2" y="129.6" style="stroke: #000000; stroke-width: 0.8"/>
      </g>
     </g>
     <g id="text_2">
      <!-- 0 -->
      <g transform="translate(58.01875 144.198438)scale(0.1 -0.1)">
       <defs>
        <path id="DejaVuSans-30" d="M 2034 4250 
Q 1547 4250 1301 3770 
Q 1056 3291 1056 2328 
Q 1056 1369 1301 889 
Q 1547 409 2034 409 
Q 2525 409 2770 889 
Q 3016 1369 3016 2328 
Q 3016 3291 2770 3770 
Q 2525 4250 2034 4250 
z
M 2034 4750 
Q 2819 4750 3233 4129 
Q 3647 3509 3647 2328 
Q 3647 1150 3233 529 
Q 2819 -91 2034 -91 
Q 1250 -91 836 529 
Q 422 1150 422 2328 
Q 422 3509 836 4129 
Q 1250 4750 2034 4750 
z
" transform="scale(0.015625)"/>
       </defs>
       <use xlink:href="#DejaVuSans-30"/>
      </g>
     </g>
    </g>
    <g id="xtick_3">
     <g id="line2d_3">
      <g>
       <use xlink:href="#mc29e01ef4c" x="92.4" y="129.6" style="stroke: #000000; stroke-width: 0.8"/>
      </g>
     </g>
     <g id="text_3">
      <!-- 1 -->
      <g transform="translate(89.21875 144.198438)scale(0.1 -0.1)">
       <use xlink:href="#DejaVuSans-31"/>
      </g>
     </g>
    </g>
    <g id="text_4">
     <!-- x (m) -->
     <g transform="translate(47.879687 157.876563)scale(0.1 -0.1)">
      <defs>
       <path id="DejaVuSans-78" d="M 3513 3500 
L 2247 1797 
L 3578 0 
L 2900 0 
L 1881 1375 
L 863 0 
L 184 0 
L 1544 1831 
L 300 3500 
L 978 3500 
L 1906 2253 
L 2834 3500 
L 3513 3500 
z
" transform="scale(0.015625)"/>
       <path id="DejaVuSans-20" transform="scale(0.015625)"/>
       <path id="DejaVuSans-28" d="M 1984 4856 
Q 1566 4138 1362 3434 
Q 1159 2731 1159 2009 
Q 1159 1288 1364 580 
Q 1569 -128 1984 -844 
L 1484 -844 
Q 1016 -109 783 600 
Q 550 1309 550 2009 
Q 550 2706 781 3412 
Q 1013 4119 1484 4856 
L 1984 4856 
z
" transform="scale(0.015625)"/>
       <path id="DejaVuSans-6d" d="M 3328 2828 
Q 3544 3216 3844 3400 
Q 4144 3584 4550 3584 
Q 5097 3584 5394 3201 
Q 5691 2819 5691 2113 
L 5691 0 
L 5113 0 
L 5113 2094 
Q 5113 2597 4934 2840 
Q 4756 3084 4391 3084 
Q 3944 3084 3684 2787 
Q 3425 2491 3425 1978 
L 3425 0 
L 2847 0 
L 2847 2094 
Q 2847 2600 2669 2842 
Q 2491 3084 2119 3084 
Q 1678 3084 1418 2786 
Q 1159 2488 1159 1978 
L 1159 0 
L 581 0 
L 581 3500 
L 1159 3500 
L 1159 2956 
Q 1356 3278 1631 3431 
Q 1906 3584 2284 3584 
Q 2666 3584 2933 3390 
Q 3200 3197 3328 2828 
z
" transform="scale(0.015625)"/>
       <path id="DejaVuSans-29" d="M 513 4856 
L 1013 4856 
Q 1481 4119 1714 3412 
Q 1947 2706 1947 2009 
Q 1947 1309 1714 600 
Q 1481 -109 1013 -844 
L 513 -844 
Q 928 -128 1133 580 
Q 1338 1288 1338 2009 
Q 1338 2731 1133 3434 
Q 928 4138 513 4856 
z
" transform="scale(0.015625)"/>
      </defs>
      <use xlink:href="#DejaVuSans-78"/>
      <use xlink:href="#DejaVuSans-20" x="59.179688"/>
      <use xlink:href="#DejaVuSans-28" x="90.966797"/>
      <use xlink:href="#DejaVuSans-6d" x="129.980469"/>
      <use xlink:href="#DejaVuSans-29" x="227.392578"/>
     </g>
    </g>
   </g>
   <g id="matplotlib.axis_2">
    <g id="ytick_1">
     <g id="line2d_4">
      <defs>
       <path id="m49c24b3549" d="M 0 0 
L -3.5 0 
" style="stroke: #000000; stroke-width: 0.8"/>
      </defs>
      <g>
       <use xlink:href="#m49c24b3549" x="14.4" y="114" style="stroke: #000000; stroke-width: 0.8"/>
      </g>
     </g>
     <g id="text_5">
      <!-- −1 -->
      <g transform="translate(-7.342187 117.799219)scale(0.1 -0.1)">
       <use xlink:href="#DejaVuSans-2212"/>
       <use xlink:href="#DejaVuSans-31" x="83.789062"/>
      </g>
     </g>
    </g>
    <g id="ytick_2">
     <g id="line2d_5">
      <g>
       <use xlink:href="#m49c24b3549" x="14.4" y="82.8" style="stroke: #000000; stroke-width: 0.8"/>
      </g>
     </g>
     <g id="text_6">
      <!-- 0 -->
      <g transform="translate(1.0375 86.599219)scale(0.1 -0.1)">
       <use xlink:href="#DejaVuSans-30"/>
      </g>
     </g>
    </g>
    <g id="ytick_3">
     <g id="line2d_6">
      <g>
       <use xlink:href="#m49c24b3549" x="14.4" y="51.6" style="stroke: #000000; stroke-width: 0.8"/>
      </g>
     </g>
     <g id="text_7">
      <!-- 1 -->
      <g transform="translate(1.0375 55.399219)scale(0.1 -0.1)">
       <use xlink:href="#DejaVuSans-31"/>
      </g>
     </g>
    </g>
   </g>
   <g id="patch_3">
    <path d="M 14.4 129.6 
L 14.4 36 
" style="fill: none; stroke: #000000; stroke-width: 0.8; stroke-linejoin: miter; stroke-linecap: square"/>
   </g>
   <g id="patch_4">
    <path d="M 108 129.6 
L 108 36 
" style="fill: none; stroke: #000000; stroke-width: 0.8; stroke-linejoin: miter; stroke-linecap: square"/>
   </g>
   <g id="patch_5">
    <path d="M 14.4 129.6 
L 108 129.6 
" style="fill: none; stroke: #000000; stroke-width: 0.8; stroke-linejoin: miter; stroke-linecap: square"/>
   </g>
   <g id="patch_6">
    <path d="M 14.4 36 
L 108 36 
" style="fill: none; stroke: #000000; stroke-width: 0.8; stroke-linejoin: miter; stroke-linecap: square"/>
   </g>
  </g>
  <g id="axes_2">
   <g id="patch_7">
    <path d="M 14.4 33.12 
L 108 33.12 
L 108 4.32 
L 14.4 4.32 
z
" style="fill: #ffffff"/>
   </g>
   <g id="patch_8">
    <path d="M 14.4 33.12 
L 22.2 33.12 
L 22.2 33.12 
L 14.4 33.12 
z
" clip-path="url(#p272e962bfa)" style="fill: #52aa4f"/>
   </g>
   <g id="patch_9">
    <path d="M 22.2 33.12 
L 30 33.12 
L 30 33.12 
L 22.2 33.12 
z
" clip-path="url(#p272e962bfa)" style="fill: #52aa4f"/>
   </g>
   <g id="patch_10">
    <path d="M 30 33.12 
L 37.8 33.12 
L 37.8 33.12 
L 30 33.12 
z
" clip-path="url(#p272e962bfa)" style="fill: #52aa4f"/>
   </g>
   <g id="patch_11">
    <path d="M 37.8 33.12 
L 45.6 33.12 
L 45.6 32.16 
L 37.8 32.16 
z
" clip-path="url(#p272e962bfa)" style="fill: #52aa4f"/>
   </g>
   <g id="patch_12">
    <path d="M 45.6 33.12 
L 53.4 33.12 
L 53.4 28.32 
L 45.6 28.32 
z
" clip-path="url(#p272e962bfa)" style="fill: #52aa4f"/>
   </g>
   <g id="patch_13">
    <path d="M 53.4 33.12 
L 61.2 33.12 
L 61.2 13.92 
L 53.4 13.92 
z
" clip-path="url(#p272e962bfa)" style="fill: #52aa4f"/>
   </g>
   <g id="patch_14">
    <path d="M 61.2 33.12 
L 69 33.12 
L 69 0.48 
L 61.2 0.48 
z
" clip-path="url(#p272e962bfa)" style="fill: #52aa4f"/>
   </g>
   <g id="patch_15">
    <path d="M 69 33.12 
L 76.8 33.12 
L 76.8 25.44 
L 69 25.44 
z
" clip-path="url(#p272e962bfa)" style="fill: #52aa4f"/>
   </g>
   <g id="patch_16">
    <path d="M 76.8 33.12 
L 84.6 33.12 
L 84.6 33.12 
L 76.8 33.12 
z
" clip-path="url(#p272e962bfa)" style="fill: #52aa4f"/>
   </g>
   <g id="patch_17">
    <path d="M 84.6 33.12 
L 92.4 33.12 
L 92.4 33.12 
L 84.6 33.12 
z
" clip-path="url(#p272e962bfa)" style="fill: #52aa4f"/>
   </g>
   <g id="patch_18">
    <path d="M 92.4 33.12 
L 100.2 33.12 
L 100.2 33.12 
L 92.4 33.12 
z
" clip-path="url(#p272e962bfa)" style="fill: #52aa4f"/>
   </g>
   <g id="patch_19">
    <path d="M 100.2 33.12 
L 108 33.12 
L 108 33.12 
L 100.2 33.12 
z
" clip-path="url(#p272e962bfa)" style="fill: #52aa4f"/>
   </g>
   <g id="matplotlib.axis_3">
    <g id="xtick_4">
     <g id="line2d_7">
      <g>
       <use xlink:href="#mc29e01ef4c" x="30" y="33.12" style="stroke: #000000; stroke-width: 0.8"/>
      </g>
     </g>
    </g>
    <g id="xtick_5">
     <g id="line2d_8">
      <g>
       <use xlink:href="#mc29e01ef4c" x="61.2" y="33.12" style="stroke: #000000; stroke-width: 0.8"/>
      </g>
     </g>
    </g>
    <g id="xtick_6">
     <g id="line2d_9">
      <g>
       <use xlink:href="#mc29e01ef4c" x="92.4" y="33.12" style="stroke: #000000; stroke-width: 0.8"/>
      </g>
     </g>
    </g>
   </g>
   <g id="matplotlib.axis_4">
    <g id="ytick_4">
     <g id="line2d_10">
      <g>
       <use xlink:href="#m49c24b3549" x="14.4" y="33.12" style="stroke: #000000; stroke-width: 0.8"/>
      </g>
     </g>
     <g id="text_8">
      <!-- 0 -->
      <g transform="translate(1.0375 36.919219)scale(0.1 -0.1)">
       <use xlink:href="#DejaVuSans-30"/>
      </g>
     </g>
    </g>
    <g id="ytick_5">
     <g id="line2d_11">
      <g>
       <use xlink:href="#m49c24b3549" x="14.4" y="9.12" style="stroke: #000000; stroke-width: 0.8"/>
      </g>
     </g>
     <g id="text_9">
      <!-- 25 -->
      <g transform="translate(-5.325 12.919219)scale(0.1 -0.1)">
       <defs>
        <path id="DejaVuSans-32" d="M 1228 531 
L 3431 531 
L 3431 0 
L 469 0 
L 469 531 
Q 828 903 1448 1529 
Q 2069 2156 2228 2338 
Q 2531 2678 2651 2914 
Q 2772 3150 2772 3378 
Q 2772 3750 2511 3984 
Q 2250 4219 1831 4219 
Q 1534 4219 1204 4116 
Q 875 4013 500 3803 
L 500 4441 
Q 881 4594 1212 4672 
Q 1544 4750 1819 4750 
Q 2544 4750 2975 4387 
Q 3406 4025 3406 3419 
Q 3406 3131 3298 2873 
Q 3191 2616 2906 2266 
Q 2828 2175 2409 1742 
Q 1991 1309 1228 531 
z
" transform="scale(0.015625)"/>
        <path id="DejaVuSans-35" d="M 691 4666 
L 3169 4666 
L 3169 4134 
L 1269 4134 
L 1269 2991 
Q 1406 3038 1543 3061 
Q 1681 3084 1819 3084 
Q 2600 3084 3056 2656 
Q 3513 2228 3513 1497 
Q 3513 744 3044 326 
Q 2575 -91 1722 -91 
Q 1428 -91 1123 -41 
Q 819 9 494 109 
L 494 744 
Q 775 591 1075 516 
Q 1375 441 1709 441 
Q 2250 441 2565 725 
Q 2881 1009 2881 1497 
Q 2881 1984 2565 2268 
Q 2250 2553 1709 2553 
Q 1456 2553 1204 2497 
Q 953 2441 691 2322 
L 691 4666 
z
" transform="scale(0.015625)"/>
       </defs>
       <use xlink:href="#DejaVuSans-32"/>
       <use xlink:href="#DejaVuSans-35" x="63.623047"/>
      </g>
     </g>
    </g>
   </g>
   <g id="line2d_12">
    <path d="M 61.2 33.12 
L 61.2 4.32 
" clip-path="url(#p272e962bfa)" style="fill: none; stroke: #ff0000; stroke-width: 1.5; stroke-linecap: square"/>
   </g>
   <g id="patch_20">
    <path d="M 14.4 33.12 
L 14.4 4.32 
" style="fill: none; stroke: #000000; stroke-width: 0.8; stroke-linejoin: miter; stroke-linecap: square"/>
   </g>
   <g id="patch_21">
    <path d="M 14.4 33.12 
L 108 33.12 
" style="fill: none; stroke: #000000; stroke-width: 0.8; stroke-linejoin: miter; stroke-linecap: square"/>
   </g>
  </g>
  <g id="axes_3">
   <g id="patch_22">
    <path d="M 110.88 129.6 
L 139.68 129.6 
L 139.68 36 
L 110.88 36 
z
" style="fill: #ffffff"/>
   </g>
   <g id="patch_23">
    <path d="M 110.88 129.6 
L 110.88 129.6 
L 110.88 121.8 
L 110.88 121.8 
z
" clip-path="url(#p5c3a0528b2)" style="fill: #52aa4f"/>
   </g>
   <g id="patch_24">
    <path d="M 110.88 121.8 
L 110.88 121.8 
L 110.88 114 
L 110.88 114 
z
" clip-path="url(#p5c3a0528b2)" style="fill: #52aa4f"/>
   </g>
   <g id="patch_25">
    <path d="M 110.88 114 
L 110.88 114 
L 110.88 106.2 
L 110.88 106.2 
z
" clip-path="url(#p5c3a0528b2)" style="fill: #52aa4f"/>
   </g>
   <g id="patch_26">
    <path d="M 110.88 106.2 
L 110.88 106.2 
L 110.88 98.4 
L 110.88 98.4 
z
" clip-path="url(#p5c3a0528b2)" style="fill: #52aa4f"/>
   </g>
   <g id="patch_27">
    <path d="M 110.88 98.4 
L 113.76 98.4 
L 113.76 90.6 
L 110.88 90.6 
z
" clip-path="url(#p5c3a0528b2)" style="fill: #52aa4f"/>
   </g>
   <g id="patch_28">
    <path d="M 110.88 90.6 
L 132 90.6 
L 132 82.8 
L 110.88 82.8 
z
" clip-path="url(#p5c3a0528b2)" style="fill: #52aa4f"/>
   </g>
   <g id="patch_29">
    <path d="M 110.88 82.8 
L 135.84 82.8 
L 135.84 75 
L 110.88 75 
z
" clip-path="url(#p5c3a0528b2)" style="fill: #52aa4f"/>
   </g>
   <g id="patch_30">
    <path d="M 110.88 75 
L 125.28 75 
L 125.28 67.2 
L 110.88 67.2 
z
" clip-path="url(#p5c3a0528b2)" style="fill: #52aa4f"/>
   </g>
   <g id="patch_31">
    <path d="M 110.88 67.2 
L 112.8 67.2 
L 112.8 59.4 
L 110.88 59.4 
z
" clip-path="url(#p5c3a0528b2)" style="fill: #52aa4f"/>
   </g>
   <g id="patch_32">
    <path d="M 110.88 59.4 
L 110.88 59.4 
L 110.88 51.6 
L 110.88 51.6 
z
" clip-path="url(#p5c3a0528b2)" style="fill: #52aa4f"/>
   </g>
   <g id="patch_33">
    <path d="M 110.88 51.6 
L 110.88 51.6 
L 110.88 43.8 
L 110.88 43.8 
z
" clip-path="url(#p5c3a0528b2)" style="fill: #52aa4f"/>
   </g>
   <g id="patch_34">
    <path d="M 110.88 43.8 
L 110.88 43.8 
L 110.88 36 
L 110.88 36 
z
" clip-path="url(#p5c3a0528b2)" style="fill: #52aa4f"/>
   </g>
   <g id="matplotlib.axis_5">
    <g id="xtick_7">
     <g id="line2d_13">
      <g>
       <use xlink:href="#mc29e01ef4c" x="110.88" y="129.6" style="stroke: #000000; stroke-width: 0.8"/>
      </g>
     </g>
     <g id="text_10">
      <!-- 0 -->
      <g transform="translate(107.69875 144.198438)scale(0.1 -0.1)">
       <use xlink:href="#DejaVuSans-30"/>
      </g>
     </g>
    </g>
    <g id="xtick_8">
     <g id="line2d_14">
      <g>
       <use xlink:href="#mc29e01ef4c" x="134.88" y="129.6" style="stroke: #000000; stroke-width: 0.8"/>
      </g>
     </g>
     <g id="text_11">
      <!-- 25 -->
      <g transform="translate(128.5175 144.198438)scale(0.1 -0.1)">
       <use xlink:href="#DejaVuSans-32"/>
       <use xlink:href="#DejaVuSans-35" x="63.623047"/>
      </g>
     </g>
    </g>
   </g>
   <g id="matplotlib.axis_6">
    <g id="ytick_6">
     <g id="line2d_15">
      <g>
       <use xlink:href="#m49c24b3549" x="110.88" y="114" style="stroke: #000000; stroke-width: 0.8"/>
      </g>
     </g>
    </g>
    <g id="ytick_7">
     <g id="line2d_16">
      <g>
       <use xlink:href="#m49c24b3549" x="110.88" y="82.8" style="stroke: #000000; stroke-width: 0.8"/>
      </g>
     </g>
    </g>
    <g id="ytick_8">
     <g id="line2d_17">
      <g>
       <use xlink:href="#m49c24b3549" x="110.88" y="51.6" style="stroke: #000000; stroke-width: 0.8"/>
      </g>
     </g>
    </g>
   </g>
   <g id="line2d_18">
    <path d="M 110.88 82.8 
L 139.68 82.8 
" clip-path="url(#p5c3a0528b2)" style="fill: none; stroke: #ff0000; stroke-width: 1.5; stroke-linecap: square"/>
   </g>
   <g id="patch_35">
    <path d="M 110.88 129.6 
L 110.88 36 
" style="fill: none; stroke: #000000; stroke-width: 0.8; stroke-linejoin: miter; stroke-linecap: square"/>
   </g>
   <g id="patch_36">
    <path d="M 110.88 129.6 
L 139.68 129.6 
" style="fill: none; stroke: #000000; stroke-width: 0.8; stroke-linejoin: miter; stroke-linecap: square"/>
   </g>
  </g>
 </g>
 <defs>
  <clipPath id="p8eaacf6d83">
   <rect x="14.4" y="36" width="93.6" height="93.6"/>
  </clipPath>
  <clipPath id="p272e962bfa">
   <rect x="14.4" y="4.32" width="93.6" height="28.8"/>
  </clipPath>
  <clipPath id="p5c3a0528b2">
   <rect x="110.88" y="36" width="28.8" height="93.6"/>
  </clipPath>
 </defs>
</svg>
