<?xml version="1.0" encoding="utf-8" standalone="no"?>
<!DOCTYPE svg PUBLIC "-//W3C//DTD SVG 1.1//EN"
  "http://www.w3.org/Graphics/SVG/1.1/DTD/svg11.dtd">
<svg xmlns:xlink="http://www.w3.org/1999/xlink" width="144pt" height="144pt" viewBox="0 0 144 144" xmlns="http://www.w3.org/2000/svg" version="1.1">
 <metadata>
  <rdf:RDF xmlns:dc="http://purl.org/dc/elements/1.1/" xmlns:cc="http://creativecommons.org/ns#" xmlns:rdf="http://www.w3.org/1999/02/22-rdf-syntax-ns#">
   <cc:Work>
    <dc:type rdf:resource="http://purl.org/dc/dcmitype/StillImage"/>
    <dc:date>2024-02-07T14:57:35.761325</dc:date>
    <dc:format>image/svg+xml</dc:format>
    <dc:creator>
     <cc:Agent>
      <dc:title>Matplotlib v3.5.1, https://matplotlib.org/</dc:title>
     </cc:Agent>
    </dc:creator>
   </cc:Work>
  </rdf:RDF>
 </metadata>
 <defs>
  <style type="text/css">*{stroke-linejoin: round; stroke-linecap: butt}</style>
 </defs>
 <g id="figure_1">
  <g id="patch_1">
   <path d="M 0 144 
L 144 144 
L 144 0 
L 0 0 
L 0 144 
z
" style="fill: none"/>
  </g>
  <g id="axes_1">
   <g id="patch_2">
    <path d="M 14.4 129.6 
L 108 129.6 
L 108 36 
L 14.4 36 
z
" style="fill: #ffffff"/>
   </g>
   <g id="PathCollection_1">
    <defs>
     <path id="m1d3bd6886a" d="M 0 1.581139 
C 0.419323 1.581139 0.821528 1.41454 1.118034 1.118034 
C 1.41454 0.821528 1.581139 0.419323 1.581139 0 
C 1.581139 -0.419323 1.41454 -0.821528 1.118034 -1.118034 
C 0.821528 -1.41454 0.419323 -1.581139 0 -1.581139 
C -0.419323 -1.581139 -0.821528 -1.41454 -1.118034 -1.118034 
C -1.41454 -0.821528 -1.581139 -0.419323 -1.581139 0 
C -1.581139 0.419323 -1.41454 0.821528 -1.118034 1.118034 
C -0.821528 1.41454 -0.419323 1.581139 0 1.581139 
z
" style="stroke: #da2426; stroke-opacity: 0.5"/>
    </defs>
    <g clip-path="url(#p88f6bca89f)">
     <use xlink:href="#m1d3bd6886a" x="51.907562" y="77.556378" style="fill: #da2426; fill-opacity: 0.5; stroke: #da2426; stroke-opacity: 0.5"/>
     <use xlink:href="#m1d3bd6886a" x="67.379554" y="78.881764" style="fill: #da2426; fill-opacity: 0.5; stroke: #da2426; stroke-opacity: 0.5"/>
     <use xlink:href="#m1d3bd6886a" x="72.901891" y="67.008397" style="fill: #da2426; fill-opacity: 0.5; stroke: #da2426; stroke-opacity: 0.5"/>
     <use xlink:href="#m1d3bd6886a" x="67.791883" y="66.710706" style="fill: #da2426; fill-opacity: 0.5; stroke: #da2426; stroke-opacity: 0.5"/>
     <use xlink:href="#m1d3bd6886a" x="60.302452" y="79.606674" style="fill: #da2426; fill-opacity: 0.5; stroke: #da2426; stroke-opacity: 0.5"/>
     <use xlink:href="#m1d3bd6886a" x="67.798362" y="71.054646" style="fill: #da2426; fill-opacity: 0.5; stroke: #da2426; stroke-opacity: 0.5"/>
     <use xlink:href="#m1d3bd6886a" x="42.124585" y="76.743452" style="fill: #da2426; fill-opacity: 0.5; stroke: #da2426; stroke-opacity: 0.5"/>
     <use xlink:href="#m1d3bd6886a" x="63.875086" y="79.916559" style="fill: #da2426; fill-opacity: 0.5; stroke: #da2426; stroke-opacity: 0.5"/>
     <use xlink:href="#m1d3bd6886a" x="75.851078" y="88.723679" style="fill: #da2426; fill-opacity: 0.5; stroke: #da2426; stroke-opacity: 0.5"/>
     <use xlink:href="#m1d3bd6886a" x="43.027255" y="81.679485" style="fill: #da2426; fill-opacity: 0.5; stroke: #da2426; stroke-opacity: 0.5"/>
     <use xlink:href="#m1d3bd6886a" x="61.26447" y="74.304848" style="fill: #da2426; fill-opacity: 0.5; stroke: #da2426; stroke-opacity: 0.5"/>
     <use xlink:href="#m1d3bd6886a" x="69.643024" y="96.018015" style="fill: #da2426; fill-opacity: 0.5; stroke: #da2426; stroke-opacity: 0.5"/>
     <use xlink:href="#m1d3bd6886a" x="51.702578" y="81.616357" style="fill: #da2426; fill-opacity: 0.5; stroke: #da2426; stroke-opacity: 0.5"/>
     <use xlink:href="#m1d3bd6886a" x="78.921939" y="78.515523" style="fill: #da2426; fill-opacity: 0.5; stroke: #da2426; stroke-opacity: 0.5"/>
     <use xlink:href="#m1d3bd6886a" x="87.555482" y="87.714266" style="fill: #da2426; fill-opacity: 0.5; stroke: #da2426; stroke-opacity: 0.5"/>
     <use xlink:href="#m1d3bd6886a" x="47.793274" y="80.533903" style="fill: #da2426; fill-opacity: 0.5; stroke: #da2426; stroke-opacity: 0.5"/>
     <use xlink:href="#m1d3bd6886a" x="55.458001" y="83.873206" style="fill: #da2426; fill-opacity: 0.5; stroke: #da2426; stroke-opacity: 0.5"/>
     <use xlink:href="#m1d3bd6886a" x="47.231546" y="68.453365" style="fill: #da2426; fill-opacity: 0.5; stroke: #da2426; stroke-opacity: 0.5"/>
     <use xlink:href="#m1d3bd6886a" x="45.281857" y="84.619476" style="fill: #da2426; fill-opacity: 0.5; stroke: #da2426; stroke-opacity: 0.5"/>
     <use xlink:href="#m1d3bd6886a" x="48.76987" y="82.750662" style="fill: #da2426; fill-opacity: 0.5; stroke: #da2426; stroke-opacity: 0.5"/>
     <use xlink:href="#m1d3bd6886a" x="55.577201" y="83.95873" style="fill: #da2426; fill-opacity: 0.5; stroke: #da2426; stroke-opacity: 0.5"/>
     <use xlink:href="#m1d3bd6886a" x="69.320494" y="80.802491" style="fill: #da2426; fill-opacity: 0.5; stroke: #da2426; stroke-opacity: 0.5"/>
     <use xlink:href="#m1d3bd6886a" x="66.926891" y="83.315203" style="fill: #da2426; fill-opacity: 0.5; stroke: #da2426; stroke-opacity: 0.5"/>
     <use xlink:href="#m1d3bd6886a" x="74.140971" y="88.612022" style="fill: #da2426; fill-opacity: 0.5; stroke: #da2426; stroke-opacity: 0.5"/>
     <use xlink:href="#m1d3bd6886a" x="59.601093" y="85.720236" style="fill: #da2426; fill-opacity: 0.5; stroke: #da2426; stroke-opacity: 0.5"/>
     <use xlink:href="#m1d3bd6886a" x="56.672842" y="82.871826" style="fill: #da2426; fill-opacity: 0.5; stroke: #da2426; stroke-opacity: 0.5"/>
     <use xlink:href="#m1d3bd6886a" x="69.43143" y="69.060351" style="fill: #da2426; fill-opacity: 0.5; stroke: #da2426; stroke-opacity: 0.5"/>
     <use xlink:href="#m1d3bd6886a" x="64.072848" y="92.930557" style="fill: #da2426; fill-opacity: 0.5; stroke: #da2426; stroke-opacity: 0.5"/>
     <use xlink:href="#m1d3bd6886a" x="63.230252" y="62.400996" style="fill: #da2426; fill-opacity: 0.5; stroke: #da2426; stroke-opacity: 0.5"/>
     <use xlink:href="#m1d3bd6886a" x="51.852289" y="90.059481" style="fill: #da2426; fill-opacity: 0.5; stroke: #da2426; stroke-opacity: 0.5"/>
     <use xlink:href="#m1d3bd6886a" x="41.779137" y="77.968547" style="fill: #da2426; fill-opacity: 0.5; stroke: #da2426; stroke-opacity: 0.5"/>
     <use xlink:href="#m1d3bd6886a" x="36.825733" y="68.276565" style="fill: #da2426; fill-opacity: 0.5; stroke: #da2426; stroke-opacity: 0.5"/>
     <use xlink:href="#m1d3bd6886a" x="68.884742" y="86.235183" style="fill: #da2426; fill-opacity: 0.5; stroke: #da2426; stroke-opacity: 0.5"/>
     <use xlink:href="#m1d3bd6886a" x="73.359764" y="81.234269" style="fill: #da2426; fill-opacity: 0.5; stroke: #da2426; stroke-opacity: 0.5"/>
     <use xlink:href="#m1d3bd6886a" x="73.996286" y="82.85718" style="fill: #da2426; fill-opacity: 0.5; stroke: #da2426; stroke-opacity: 0.5"/>
     <use xlink:href="#m1d3bd6886a" x="31.262695" y="80.938517" style="fill: #da2426; fill-opacity: 0.5; stroke: #da2426; stroke-opacity: 0.5"/>
     <use xlink:href="#m1d3bd6886a" x="68.272374" y="86.632762" style="fill: #da2426; fill-opacity: 0.5; stroke: #da2426; stroke-opacity: 0.5"/>
     <use xlink:href="#m1d3bd6886a" x="48.523667" y="79.06282" style="fill: #da2426; fill-opacity: 0.5; stroke: #da2426; stroke-opacity: 0.5"/>
     <use xlink:href="#m1d3bd6886a" x="55.153817" y="81.029377" style="fill: #da2426; fill-opacity: 0.5; stroke: #da2426; stroke-opacity: 0.5"/>
     <use xlink:href="#m1d3bd6886a" x="76.297709" y="86.394948" style="fill: #da2426; fill-opacity: 0.5; stroke: #da2426; stroke-opacity: 0.5"/>
     <use xlink:href="#m1d3bd6886a" x="32.956055" y="81.065015" style="fill: #da2426; fill-opacity: 0.5; stroke: #da2426; stroke-opacity: 0.5"/>
     <use xlink:href="#m1d3bd6886a" x="81.817253" y="89.594908" style="fill: #da2426; fill-opacity: 0.5; stroke: #da2426; stroke-opacity: 0.5"/>
     <use xlink:href="#m1d3bd6886a" x="48.618123" y="79.610628" style="fill: #da2426; fill-opacity: 0.5; stroke: #da2426; stroke-opacity: 0.5"/>
     <use xlink:href="#m1d3bd6886a" x="46.903398" y="79.288491" style="fill: #da2426; fill-opacity: 0.5; stroke: #da2426; stroke-opacity: 0.5"/>
     <use xlink:href="#m1d3bd6886a" x="97.249242" y="73.551295" style="fill: #da2426; fill-opacity: 0.5; stroke: #da2426; stroke-opacity: 0.5"/>
     <use xlink:href="#m1d3bd6886a" x="57.20122" y="70.365592" style="fill: #da2426; fill-opacity: 0.5; stroke: #da2426; stroke-opacity: 0.5"/>
     <use xlink:href="#m1d3bd6886a" x="78.533721" y="77.643379" style="fill: #da2426; fill-opacity: 0.5; stroke: #da2426; stroke-opacity: 0.5"/>
     <use xlink:href="#m1d3bd6886a" x="81.965103" y="73.767024" style="fill: #da2426; fill-opacity: 0.5; stroke: #da2426; stroke-opacity: 0.5"/>
     <use xlink:href="#m1d3bd6886a" x="52.405037" y="77.92513" style="fill: #da2426; fill-opacity: 0.5; stroke: #da2426; stroke-opacity: 0.5"/>
     <use xlink:href="#m1d3bd6886a" x="75.317525" y="78.526717" style="fill: #da2426; fill-opacity: 0.5; stroke: #da2426; stroke-opacity: 0.5"/>
     <use xlink:href="#m1d3bd6886a" x="71.819764" y="79.158146" style="fill: #da2426; fill-opacity: 0.5; stroke: #da2426; stroke-opacity: 0.5"/>
     <use xlink:href="#m1d3bd6886a" x="66.954272" y="71.64902" style="fill: #da2426; fill-opacity: 0.5; stroke: #da2426; stroke-opacity: 0.5"/>
     <use xlink:href="#m1d3bd6886a" x="68.508643" y="85.469178" style="fill: #da2426; fill-opacity: 0.5; stroke: #da2426; stroke-opacity: 0.5"/>
     <use xlink:href="#m1d3bd6886a" x="67.02107" y="74.743955" style="fill: #da2426; fill-opacity: 0.5; stroke: #da2426; stroke-opacity: 0.5"/>
     <use xlink:href="#m1d3bd6886a" x="44.102338" y="81.997764" style="fill: #da2426; fill-opacity: 0.5; stroke: #da2426; stroke-opacity: 0.5"/>
     <use xlink:href="#m1d3bd6886a" x="59.743878" y="94.329655" style="fill: #da2426; fill-opacity: 0.5; stroke: #da2426; stroke-opacity: 0.5"/>
     <use xlink:href="#m1d3bd6886a" x="76.432232" y="73.711204" style="fill: #da2426; fill-opacity: 0.5; stroke: #da2426; stroke-opacity: 0.5"/>
     <use xlink:href="#m1d3bd6886a" x="69.3382" y="68.583854" style="fill: #da2426; fill-opacity: 0.5; stroke: #da2426; stroke-opacity: 0.5"/>
     <use xlink:href="#m1d3bd6886a" x="52.31421" y="90.566966" style="fill: #da2426; fill-opacity: 0.5; stroke: #da2426; stroke-opacity: 0.5"/>
     <use xlink:href="#m1d3bd6886a" x="35.753154" y="91.702708" style="fill: #da2426; fill-opacity: 0.5; stroke: #da2426; stroke-opacity: 0.5"/>
     <use xlink:href="#m1d3bd6886a" x="60.64733" y="83.594248" style="fill: #da2426; fill-opacity: 0.5; stroke: #da2426; stroke-opacity: 0.5"/>
     <use xlink:href="#m1d3bd6886a" x="71.457054" y="88.992932" style="fill: #da2426; fill-opacity: 0.5; stroke: #da2426; stroke-opacity: 0.5"/>
     <use xlink:href="#m1d3bd6886a" x="52.732817" y="79.337553" style="fill: #da2426; fill-opacity: 0.5; stroke: #da2426; stroke-opacity: 0.5"/>
     <use xlink:href="#m1d3bd6886a" x="61.3978" y="78.399727" style="fill: #da2426; fill-opacity: 0.5; stroke: #da2426; stroke-opacity: 0.5"/>
     <use xlink:href="#m1d3bd6886a" x="88.460525" y="80.66478" style="fill: #da2426; fill-opacity: 0.5; stroke: #da2426; stroke-opacity: 0.5"/>
     <use xlink:href="#m1d3bd6886a" x="61.778715" y="93.536648" style="fill: #da2426; fill-opacity: 0.5; stroke: #da2426; stroke-opacity: 0.5"/>
     <use xlink:href="#m1d3bd6886a" x="56.767585" y="71.174391" style="fill: #da2426; fill-opacity: 0.5; stroke: #da2426; stroke-opacity: 0.5"/>
    </g>
   </g>
   <g id="PathCollection_2">
    <defs>
     <path id="md6c20b460b" d="M -5 0 
L 5 0 
M 0 5 
L 0 -5 
" style="stroke: #ff0000; stroke-width: 1.5"/>
    </defs>
    <g clip-path="url(#p88f6bca89f)">
     <use xlink:href="#md6c20b460b" x="61.2" y="82.8" style="fill: #ff0000; stroke: #ff0000; stroke-width: 1.5"/>
    </g>
   </g>
   <g id="PathCollection_3">
    <defs>
     <path id="m5672a85ac0" d="M -0 3.535534 
L 3.535534 0 
L 0 -3.535534 
L -3.535534 -0 
z
" style="stroke: #000000"/>
    </defs>
    <g clip-path="url(#p88f6bca89f)">
     <use xlink:href="#m5672a85ac0" x="61.641198" y="80.382005" style="stroke: #000000"/>
    </g>
   </g>
   <g id="matplotlib.axis_1">
    <g id="xtick_1">
     <g id="line2d_1">
      <defs>
       <path id="mbb7210c3c4" d="M 0 0 
L 0 3.5 
" style="stroke: #000000; stroke-width: 0.8"/>
      </defs>
      <g>
       <use xlink:href="#mbb7210c3c4" x="30" y="129.6" style="stroke: #000000; stroke-width: 0.8"/>
      </g>
     </g>
     <g id="text_1">
      <!-- −1 -->
      <g transform="translate(22.628906 144.198438)scale(0.1 -0.1)">
       <defs>
        <path id="DejaVuSans-2212" d="M 678 2272 
L 4684 2272 
L 4684 1741 
L 678 1741 
L 678 2272 
z
" transform="scale(0.015625)"/>
        <path id="DejaVuSans-31" d="M 794 531 
L 1825 531 
L 1825 4091 
L 703 3866 
L 703 4441 
L 1819 4666 
L 2450 4666 
L 2450 531 
L 3481 531 
L 3481 0 
L 794 0 
L 794 531 
z
" transform="scale(0.015625)"/>
       </defs>
       <use xlink:href="#DejaVuSans-2212"/>
       <use xlink:href="#DejaVuSans-31" x="83.789062"/>
      </g>
     </g>
    </g>
    <g id="xtick_2">
     <g id="line2d_2">
      <g>
       <use xlink:href="#mbb7210c3c4" x="61.2" y="129.6" style="stroke: #000000; stroke-width: 0.8"/>
      </g>
     </g>
     <g id="text_2">
      <!-- 0 -->
      <g transform="translate(58.01875 144.198438)scale(0.1 -0.1)">
       <defs>
        <path id="DejaVuSans-30" d="M 2034 4250 
Q 1547 4250 1301 3770 
Q 1056 3291 1056 2328 
Q 1056 1369 1301 889 
Q 1547 409 2034 409 
Q 2525 409 2770 889 
Q 3016 1369 3016 2328 
Q 3016 3291 2770 3770 
Q 2525 4250 2034 4250 
z
M 2034 4750 
Q 2819 4750 3233 4129 
Q 3647 3509 3647 2328 
Q 3647 1150 3233 529 
Q 2819 -91 2034 -91 
Q 1250 -91 836 529 
Q 422 1150 422 2328 
Q 422 3509 836 4129 
Q 1250 4750 2034 4750 
z
" transform="scale(0.015625)"/>
       </defs>
       <use xlink:href="#DejaVuSans-30"/>
      </g>
     </g>
    </g>
    <g id="xtick_3">
     <g id="line2d_3">
      <g>
       <use xlink:href="#mbb7210c3c4" x="92.4" y="129.6" style="stroke: #000000; stroke-width: 0.8"/>
      </g>
     </g>
     <g id="text_3">
      <!-- 1 -->
      <g transform="translate(89.21875 144.198438)scale(0.1 -0.1)">
       <use xlink:href="#DejaVuSans-31"/>
      </g>
     </g>
    </g>
    <g id="text_4">
     <!-- x (m) -->
     <g transform="translate(47.879687 157.876563)scale(0.1 -0.1)">
      <defs>
       <path id="DejaVuSans-78" d="M 3513 3500 
L 2247 1797 
L 3578 0 
L 2900 0 
L 1881 1375 
L 863 0 
L 184 0 
L 1544 1831 
L 300 3500 
L 978 3500 
L 1906 2253 
L 2834 3500 
L 3513 3500 
z
" transform="scale(0.015625)"/>
       <path id="DejaVuSans-20" transform="scale(0.015625)"/>
       <path id="DejaVuSans-28" d="M 1984 4856 
Q 1566 4138 1362 3434 
Q 1159 2731 1159 2009 
Q 1159 1288 1364 580 
Q 1569 -128 1984 -844 
L 1484 -844 
Q 1016 -109 783 600 
Q 550 1309 550 2009 
Q 550 2706 781 3412 
Q 1013 4119 1484 4856 
L 1984 4856 
z
" transform="scale(0.015625)"/>
       <path id="DejaVuSans-6d" d="M 3328 2828 
Q 3544 3216 3844 3400 
Q 4144 3584 4550 3584 
Q 5097 3584 5394 3201 
Q 5691 2819 5691 2113 
L 5691 0 
L 5113 0 
L 5113 2094 
Q 5113 2597 4934 2840 
Q 4756 3084 4391 3084 
Q 3944 3084 3684 2787 
Q 3425 2491 3425 1978 
L 3425 0 
L 2847 0 
L 2847 2094 
Q 2847 2600 2669 2842 
Q 2491 3084 2119 3084 
Q 1678 3084 1418 2786 
Q 1159 2488 1159 1978 
L 1159 0 
L 581 0 
L 581 3500 
L 1159 3500 
L 1159 2956 
Q 1356 3278 1631 3431 
Q 1906 3584 2284 3584 
Q 2666 3584 2933 3390 
Q 3200 3197 3328 2828 
z
" transform="scale(0.015625)"/>
       <path id="DejaVuSans-29" d="M 513 4856 
L 1013 4856 
Q 1481 4119 1714 3412 
Q 1947 2706 1947 2009 
Q 1947 1309 1714 600 
Q 1481 -109 1013 -844 
L 513 -844 
Q 928 -128 1133 580 
Q 1338 1288 1338 2009 
Q 1338 2731 1133 3434 
Q 928 4138 513 4856 
z
" transform="scale(0.015625)"/>
      </defs>
      <use xlink:href="#DejaVuSans-78"/>
      <use xlink:href="#DejaVuSans-20" x="59.179688"/>
      <use xlink:href="#DejaVuSans-28" x="90.966797"/>
      <use xlink:href="#DejaVuSans-6d" x="129.980469"/>
      <use xlink:href="#DejaVuSans-29" x="227.392578"/>
     </g>
    </g>
   </g>
   <g id="matplotlib.axis_2">
    <g id="ytick_1">
     <g id="line2d_4">
      <defs>
       <path id="m570b4c3388" d="M 0 0 
L -3.5 0 
" style="stroke: #000000; stroke-width: 0.8"/>
      </defs>
      <g>
       <use xlink:href="#m570b4c3388" x="14.4" y="114" style="stroke: #000000; stroke-width: 0.8"/>
      </g>
     </g>
     <g id="text_5">
      <!-- −1 -->
      <g transform="translate(-7.342187 117.799219)scale(0.1 -0.1)">
       <use xlink:href="#DejaVuSans-2212"/>
       <use xlink:href="#DejaVuSans-31" x="83.789062"/>
      </g>
     </g>
    </g>
    <g id="ytick_2">
     <g id="line2d_5">
      <g>
       <use xlink:href="#m570b4c3388" x="14.4" y="82.8" style="stroke: #000000; stroke-width: 0.8"/>
      </g>
     </g>
     <g id="text_6">
      <!-- 0 -->
      <g transform="translate(1.0375 86.599219)scale(0.1 -0.1)">
       <use xlink:href="#DejaVuSans-30"/>
      </g>
     </g>
    </g>
    <g id="ytick_3">
     <g id="line2d_6">
      <g>
       <use xlink:href="#m570b4c3388" x="14.4" y="51.6" style="stroke: #000000; stroke-width: 0.8"/>
      </g>
     </g>
     <g id="text_7">
      <!-- 1 -->
      <g transform="translate(1.0375 55.399219)scale(0.1 -0.1)">
       <use xlink:href="#DejaVuSans-31"/>
      </g>
     </g>
    </g>
    <g id="text_8">
     <!-- y (m) -->
     <g transform="translate(-13.421875 96.120313)rotate(-90)scale(0.1 -0.1)">
      <defs>
       <path id="DejaVuSans-79" d="M 2059 -325 
Q 1816 -950 1584 -1140 
Q 1353 -1331 966 -1331 
L 506 -1331 
L 506 -850 
L 844 -850 
Q 1081 -850 1212 -737 
Q 1344 -625 1503 -206 
L 1606 56 
L 191 3500 
L 800 3500 
L 1894 763 
L 2988 3500 
L 3597 3500 
L 2059 -325 
z
" transform="scale(0.015625)"/>
      </defs>
      <use xlink:href="#DejaVuSans-79"/>
      <use xlink:href="#DejaVuSans-20" x="59.179688"/>
      <use xlink:href="#DejaVuSans-28" x="90.966797"/>
      <use xlink:href="#DejaVuSans-6d" x="129.980469"/>
      <use xlink:href="#DejaVuSans-29" x="227.392578"/>
     </g>
    </g>
   </g>
   <g id="patch_3">
    <path d="M 14.4 129.6 
L 14.4 36 
" style="fill: none; stroke: #000000; stroke-width: 0.8; stroke-linejoin: miter; stroke-linecap: square"/>
   </g>
   <g id="patch_4">
    <path d="M 108 129.6 
L 108 36 
" style="fill: none; stroke: #000000; stroke-width: 0.8; stroke-linejoin: miter; stroke-linecap: square"/>
   </g>
   <g id="patch_5">
    <path d="M 14.4 129.6 
L 108 129.6 
" style="fill: none; stroke: #000000; stroke-width: 0.8; stroke-linejoin: miter; stroke-linecap: square"/>
   </g>
   <g id="patch_6">
    <path d="M 14.4 36 
L 108 36 
" style="fill: none; stroke: #000000; stroke-width: 0.8; stroke-linejoin: miter; stroke-linecap: square"/>
   </g>
  </g>
  <g id="axes_2">
   <g id="patch_7">
    <path d="M 14.4 33.12 
L 108 33.12 
L 108 4.32 
L 14.4 4.32 
z
" style="fill: #ffffff"/>
   </g>
   <g id="patch_8">
    <path d="M 14.4 33.12 
L 22.2 33.12 
L 22.2 33.12 
L 14.4 33.12 
z
" clip-path="url(#pafacddeebc)" style="fill: #da2426"/>
   </g>
   <g id="patch_9">
    <path d="M 22.2 33.12 
L 30 33.12 
L 30 33.12 
L 22.2 33.12 
z
" clip-path="url(#pafacddeebc)" style="fill: #da2426"/>
   </g>
   <g id="patch_10">
    <path d="M 30 33.12 
L 37.8 33.12 
L 37.8 29.28 
L 30 29.28 
z
" clip-path="url(#pafacddeebc)" style="fill: #da2426"/>
   </g>
   <g id="patch_11">
    <path d="M 37.8 33.12 
L 45.6 33.12 
L 45.6 28.32 
L 37.8 28.32 
z
" clip-path="url(#pafacddeebc)" style="fill: #da2426"/>
   </g>
   <g id="patch_12">
    <path d="M 45.6 33.12 
L 53.4 33.12 
L 53.4 21.6 
L 45.6 21.6 
z
" clip-path="url(#pafacddeebc)" style="fill: #da2426"/>
   </g>
   <g id="patch_13">
    <path d="M 53.4 33.12 
L 61.2 33.12 
L 61.2 23.52 
L 53.4 23.52 
z
" clip-path="url(#pafacddeebc)" style="fill: #da2426"/>
   </g>
   <g id="patch_14">
    <path d="M 61.2 33.12 
L 69 33.12 
L 69 18.72 
L 61.2 18.72 
z
" clip-path="url(#pafacddeebc)" style="fill: #da2426"/>
   </g>
   <g id="patch_15">
    <path d="M 69 33.12 
L 76.8 33.12 
L 76.8 19.68 
L 69 19.68 
z
" clip-path="url(#pafacddeebc)" style="fill: #da2426"/>
   </g>
   <g id="patch_16">
    <path d="M 76.8 33.12 
L 84.6 33.12 
L 84.6 29.28 
L 76.8 29.28 
z
" clip-path="url(#pafacddeebc)" style="fill: #da2426"/>
   </g>
   <g id="patch_17">
    <path d="M 84.6 33.12 
L 92.4 33.12 
L 92.4 31.2 
L 84.6 31.2 
z
" clip-path="url(#pafacddeebc)" style="fill: #da2426"/>
   </g>
   <g id="patch_18">
    <path d="M 92.4 33.12 
L 100.2 33.12 
L 100.2 32.16 
L 92.4 32.16 
z
" clip-path="url(#pafacddeebc)" style="fill: #da2426"/>
   </g>
   <g id="patch_19">
    <path d="M 100.2 33.12 
L 108 33.12 
L 108 33.12 
L 100.2 33.12 
z
" clip-path="url(#pafacddeebc)" style="fill: #da2426"/>
   </g>
   <g id="matplotlib.axis_3">
    <g id="xtick_4">
     <g id="line2d_7">
      <g>
       <use xlink:href="#mbb7210c3c4" x="30" y="33.12" style="stroke: #000000; stroke-width: 0.8"/>
      </g>
     </g>
    </g>
    <g id="xtick_5">
     <g id="line2d_8">
      <g>
       <use xlink:href="#mbb7210c3c4" x="61.2" y="33.12" style="stroke: #000000; stroke-width: 0.8"/>
      </g>
     </g>
    </g>
    <g id="xtick_6">
     <g id="line2d_9">
      <g>
       <use xlink:href="#mbb7210c3c4" x="92.4" y="33.12" style="stroke: #000000; stroke-width: 0.8"/>
      </g>
     </g>
    </g>
   </g>
   <g id="matplotlib.axis_4">
    <g id="ytick_4">
     <g id="line2d_10">
      <g>
       <use xlink:href="#m570b4c3388" x="14.4" y="33.12" style="stroke: #000000; stroke-width: 0.8"/>
      </g>
     </g>
     <g id="text_9">
      <!-- 0 -->
      <g transform="translate(1.0375 36.919219)scale(0.1 -0.1)">
       <use xlink:href="#DejaVuSans-30"/>
      </g>
     </g>
    </g>
    <g id="ytick_5">
     <g id="line2d_11">
      <g>
       <use xlink:href="#m570b4c3388" x="14.4" y="9.12" style="stroke: #000000; stroke-width: 0.8"/>
      </g>
     </g>
     <g id="text_10">
      <!-- 25 -->
      <g transform="translate(-5.325 12.919219)scale(0.1 -0.1)">
       <defs>
        <path id="DejaVuSans-32" d="M 1228 531 
L 3431 531 
L 3431 0 
L 469 0 
L 469 531 
Q 828 903 1448 1529 
Q 2069 2156 2228 2338 
Q 2531 2678 2651 2914 
Q 2772 3150 2772 3378 
Q 2772 3750 2511 3984 
Q 2250 4219 1831 4219 
Q 1534 4219 1204 4116 
Q 875 4013 500 3803 
L 500 4441 
Q 881 4594 1212 4672 
Q 1544 4750 1819 4750 
Q 2544 4750 2975 4387 
Q 3406 4025 3406 3419 
Q 3406 3131 3298 2873 
Q 3191 2616 2906 2266 
Q 2828 2175 2409 1742 
Q 1991 1309 1228 531 
z
" transform="scale(0.015625)"/>
        <path id="DejaVuSans-35" d="M 691 4666 
L 3169 4666 
L 3169 4134 
L 1269 4134 
L 1269 2991 
Q 1406 3038 1543 3061 
Q 1681 3084 1819 3084 
Q 2600 3084 3056 2656 
Q 3513 2228 3513 1497 
Q 3513 744 3044 326 
Q 2575 -91 1722 -91 
Q 1428 -91 1123 -41 
Q 819 9 494 109 
L 494 744 
Q 775 591 1075 516 
Q 1375 441 1709 441 
Q 2250 441 2565 725 
Q 2881 1009 2881 1497 
Q 2881 1984 2565 2268 
Q 2250 2553 1709 2553 
Q 1456 2553 1204 2497 
Q 953 2441 691 2322 
L 691 4666 
z
" transform="scale(0.015625)"/>
       </defs>
       <use xlink:href="#DejaVuSans-32"/>
       <use xlink:href="#DejaVuSans-35" x="63.623047"/>
      </g>
     </g>
    </g>
   </g>
   <g id="line2d_12">
    <path d="M 61.2 33.12 
L 61.2 4.32 
" clip-path="url(#pafacddeebc)" style="fill: none; stroke: #ff0000; stroke-width: 1.5; stroke-linecap: square"/>
   </g>
   <g id="patch_20">
    <path d="M 14.4 33.12 
L 14.4 4.32 
" style="fill: none; stroke: #000000; stroke-width: 0.8; stroke-linejoin: miter; stroke-linecap: square"/>
   </g>
   <g id="patch_21">
    <path d="M 14.4 33.12 
L 108 33.12 
" style="fill: none; stroke: #000000; stroke-width: 0.8; stroke-linejoin: miter; stroke-linecap: square"/>
   </g>
  </g>
  <g id="axes_3">
   <g id="patch_22">
    <path d="M 110.88 129.6 
L 139.68 129.6 
L 139.68 36 
L 110.88 36 
z
" style="fill: #ffffff"/>
   </g>
   <g id="patch_23">
    <path d="M 110.88 129.6 
L 110.88 129.6 
L 110.88 121.8 
L 110.88 121.8 
z
" clip-path="url(#p5e03878ca4)" style="fill: #da2426"/>
   </g>
   <g id="patch_24">
    <path d="M 110.88 121.8 
L 110.88 121.8 
L 110.88 114 
L 110.88 114 
z
" clip-path="url(#p5e03878ca4)" style="fill: #da2426"/>
   </g>
   <g id="patch_25">
    <path d="M 110.88 114 
L 110.88 114 
L 110.88 106.2 
L 110.88 106.2 
z
" clip-path="url(#p5e03878ca4)" style="fill: #da2426"/>
   </g>
   <g id="patch_26">
    <path d="M 110.88 106.2 
L 110.88 106.2 
L 110.88 98.4 
L 110.88 98.4 
z
" clip-path="url(#p5e03878ca4)" style="fill: #da2426"/>
   </g>
   <g id="patch_27">
    <path d="M 110.88 98.4 
L 115.68 98.4 
L 115.68 90.6 
L 110.88 90.6 
z
" clip-path="url(#p5e03878ca4)" style="fill: #da2426"/>
   </g>
   <g id="patch_28">
    <path d="M 110.88 90.6 
L 129.12 90.6 
L 129.12 82.8 
L 110.88 82.8 
z
" clip-path="url(#p5e03878ca4)" style="fill: #da2426"/>
   </g>
   <g id="patch_29">
    <path d="M 110.88 82.8 
L 136.8 82.8 
L 136.8 75 
L 110.88 75 
z
" clip-path="url(#p5e03878ca4)" style="fill: #da2426"/>
   </g>
   <g id="patch_30">
    <path d="M 110.88 75 
L 123.36 75 
L 123.36 67.2 
L 110.88 67.2 
z
" clip-path="url(#p5e03878ca4)" style="fill: #da2426"/>
   </g>
   <g id="patch_31">
    <path d="M 110.88 67.2 
L 113.76 67.2 
L 113.76 59.4 
L 110.88 59.4 
z
" clip-path="url(#p5e03878ca4)" style="fill: #da2426"/>
   </g>
   <g id="patch_32">
    <path d="M 110.88 59.4 
L 110.88 59.4 
L 110.88 51.6 
L 110.88 51.6 
z
" clip-path="url(#p5e03878ca4)" style="fill: #da2426"/>
   </g>
   <g id="patch_33">
    <path d="M 110.88 51.6 
L 110.88 51.6 
L 110.88 43.8 
L 110.88 43.8 
z
" clip-path="url(#p5e03878ca4)" style="fill: #da2426"/>
   </g>
   <g id="patch_34">
    <path d="M 110.88 43.8 
L 110.88 43.8 
L 110.88 36 
L 110.88 36 
z
" clip-path="url(#p5e03878ca4)" style="fill: #da2426"/>
   </g>
   <g id="matplotlib.axis_5">
    <g id="xtick_7">
     <g id="line2d_13">
      <g>
       <use xlink:href="#mbb7210c3c4" x="110.88" y="129.6" style="stroke: #000000; stroke-width: 0.8"/>
      </g>
     </g>
     <g id="text_11">
      <!-- 0 -->
      <g transform="translate(107.69875 144.198438)scale(0.1 -0.1)">
       <use xlink:href="#DejaVuSans-30"/>
      </g>
     </g>
    </g>
    <g id="xtick_8">
     <g id="line2d_14">
      <g>
       <use xlink:href="#mbb7210c3c4" x="134.88" y="129.6" style="stroke: #000000; stroke-width: 0.8"/>
      </g>
     </g>
     <g id="text_12">
      <!-- 25 -->
      <g transform="translate(128.5175 144.198438)scale(0.1 -0.1)">
       <use xlink:href="#DejaVuSans-32"/>
       <use xlink:href="#DejaVuSans-35" x="63.623047"/>
      </g>
     </g>
    </g>
   </g>
   <g id="matplotlib.axis_6">
    <g id="ytick_6">
     <g id="line2d_15">
      <g>
       <use xlink:href="#m570b4c3388" x="110.88" y="114" style="stroke: #000000; stroke-width: 0.8"/>
      </g>
     </g>
    </g>
    <g id="ytick_7">
     <g id="line2d_16">
      <g>
       <use xlink:href="#m570b4c3388" x="110.88" y="82.8" style="stroke: #000000; stroke-width: 0.8"/>
      </g>
     </g>
    </g>
    <g id="ytick_8">
     <g id="line2d_17">
      <g>
       <use xlink:href="#m570b4c3388" x="110.88" y="51.6" style="stroke: #000000; stroke-width: 0.8"/>
      </g>
     </g>
    </g>
   </g>
   <g id="line2d_18">
    <path d="M 110.88 82.8 
L 139.68 82.8 
" clip-path="url(#p5e03878ca4)" style="fill: none; stroke: #ff0000; stroke-width: 1.5; stroke-linecap: square"/>
   </g>
   <g id="patch_35">
    <path d="M 110.88 129.6 
L 110.88 36 
" style="fill: none; stroke: #000000; stroke-width: 0.8; stroke-linejoin: miter; stroke-linecap: square"/>
   </g>
   <g id="patch_36">
    <path d="M 110.88 129.6 
L 139.68 129.6 
" style="fill: none; stroke: #000000; stroke-width: 0.8; stroke-linejoin: miter; stroke-linecap: square"/>
   </g>
  </g>
 </g>
 <defs>
  <clipPath id="p88f6bca89f">
   <rect x="14.4" y="36" width="93.6" height="93.6"/>
  </clipPath>
  <clipPath id="pafacddeebc">
   <rect x="14.4" y="4.32" width="93.6" height="28.8"/>
  </clipPath>
  <clipPath id="p5e03878ca4">
   <rect x="110.88" y="36" width="28.8" height="93.6"/>
  </clipPath>
 </defs>
</svg>
