<?xml version="1.0" encoding="utf-8" standalone="no"?>
<!DOCTYPE svg PUBLIC "-//W3C//DTD SVG 1.1//EN"
  "http://www.w3.org/Graphics/SVG/1.1/DTD/svg11.dtd">
<svg xmlns:xlink="http://www.w3.org/1999/xlink" width="144pt" height="144pt" viewBox="0 0 144 144" xmlns="http://www.w3.org/2000/svg" version="1.1">
 <metadata>
  <rdf:RDF xmlns:dc="http://purl.org/dc/elements/1.1/" xmlns:cc="http://creativecommons.org/ns#" xmlns:rdf="http://www.w3.org/1999/02/22-rdf-syntax-ns#">
   <cc:Work>
    <dc:type rdf:resource="http://purl.org/dc/dcmitype/StillImage"/>
    <dc:date>2024-02-07T14:57:54.224558</dc:date>
    <dc:format>image/svg+xml</dc:format>
    <dc:creator>
     <cc:Agent>
      <dc:title>Matplotlib v3.5.1, https://matplotlib.org/</dc:title>
     </cc:Agent>
    </dc:creator>
   </cc:Work>
  </rdf:RDF>
 </metadata>
 <defs>
  <style type="text/css">*{stroke-linejoin: round; stroke-linecap: butt}</style>
 </defs>
 <g id="figure_1">
  <g id="patch_1">
   <path d="M 0 144 
L 144 144 
L 144 0 
L 0 0 
L 0 144 
z
" style="fill: none"/>
  </g>
  <g id="axes_1">
   <g id="patch_2">
    <path d="M 14.4 129.6 
L 108 129.6 
L 108 36 
L 14.4 36 
z
" style="fill: #ffffff"/>
   </g>
   <g id="PathCollection_1">
    <defs>
     <path id="mc0647e69c4" d="M 0 1.581139 
C 0.419323 1.581139 0.821528 1.41454 1.118034 1.118034 
C 1.41454 0.821528 1.581139 0.419323 1.581139 0 
C 1.581139 -0.419323 1.41454 -0.821528 1.118034 -1.118034 
C 0.821528 -1.41454 0.419323 -1.581139 0 -1.581139 
C -0.419323 -1.581139 -0.821528 -1.41454 -1.118034 -1.118034 
C -1.41454 -0.821528 -1.581139 -0.419323 -1.581139 0 
C -1.581139 0.419323 -1.41454 0.821528 -1.118034 1.118034 
C -0.821528 1.41454 -0.419323 1.581139 0 1.581139 
z
" style="stroke: #3d7db2; stroke-opacity: 0.5"/>
    </defs>
    <g clip-path="url(#p309442434e)">
     <use xlink:href="#mc0647e69c4" x="60.817283" y="80.221893" style="fill: #3d7db2; fill-opacity: 0.5; stroke: #3d7db2; stroke-opacity: 0.5"/>
     <use xlink:href="#mc0647e69c4" x="64.70897" y="106.719325" style="fill: #3d7db2; fill-opacity: 0.5; stroke: #3d7db2; stroke-opacity: 0.5"/>
     <use xlink:href="#mc0647e69c4" x="67.393635" y="84.086761" style="fill: #3d7db2; fill-opacity: 0.5; stroke: #3d7db2; stroke-opacity: 0.5"/>
     <use xlink:href="#mc0647e69c4" x="46.334986" y="97.5126" style="fill: #3d7db2; fill-opacity: 0.5; stroke: #3d7db2; stroke-opacity: 0.5"/>
     <use xlink:href="#mc0647e69c4" x="60.834763" y="108.780691" style="fill: #3d7db2; fill-opacity: 0.5; stroke: #3d7db2; stroke-opacity: 0.5"/>
     <use xlink:href="#mc0647e69c4" x="59.00275" y="72.513109" style="fill: #3d7db2; fill-opacity: 0.5; stroke: #3d7db2; stroke-opacity: 0.5"/>
     <use xlink:href="#mc0647e69c4" x="49.951007" y="96.05985" style="fill: #3d7db2; fill-opacity: 0.5; stroke: #3d7db2; stroke-opacity: 0.5"/>
     <use xlink:href="#mc0647e69c4" x="29.179169" y="90.238344" style="fill: #3d7db2; fill-opacity: 0.5; stroke: #3d7db2; stroke-opacity: 0.5"/>
     <use xlink:href="#mc0647e69c4" x="71.540785" y="87.98565" style="fill: #3d7db2; fill-opacity: 0.5; stroke: #3d7db2; stroke-opacity: 0.5"/>
     <use xlink:href="#mc0647e69c4" x="59.594808" y="85.948208" style="fill: #3d7db2; fill-opacity: 0.5; stroke: #3d7db2; stroke-opacity: 0.5"/>
     <use xlink:href="#mc0647e69c4" x="50.340666" y="91.997438" style="fill: #3d7db2; fill-opacity: 0.5; stroke: #3d7db2; stroke-opacity: 0.5"/>
     <use xlink:href="#mc0647e69c4" x="70.736925" y="76.992158" style="fill: #3d7db2; fill-opacity: 0.5; stroke: #3d7db2; stroke-opacity: 0.5"/>
     <use xlink:href="#mc0647e69c4" x="63.411022" y="106.094125" style="fill: #3d7db2; fill-opacity: 0.5; stroke: #3d7db2; stroke-opacity: 0.5"/>
     <use xlink:href="#mc0647e69c4" x="74.352439" y="92.401152" style="fill: #3d7db2; fill-opacity: 0.5; stroke: #3d7db2; stroke-opacity: 0.5"/>
     <use xlink:href="#mc0647e69c4" x="60.046636" y="86.922073" style="fill: #3d7db2; fill-opacity: 0.5; stroke: #3d7db2; stroke-opacity: 0.5"/>
     <use xlink:href="#mc0647e69c4" x="63.282301" y="90.627235" style="fill: #3d7db2; fill-opacity: 0.5; stroke: #3d7db2; stroke-opacity: 0.5"/>
     <use xlink:href="#mc0647e69c4" x="99.345547" y="138.873632" style="fill: #3d7db2; fill-opacity: 0.5; stroke: #3d7db2; stroke-opacity: 0.5"/>
     <use xlink:href="#mc0647e69c4" x="78.928993" y="69.978806" style="fill: #3d7db2; fill-opacity: 0.5; stroke: #3d7db2; stroke-opacity: 0.5"/>
     <use xlink:href="#mc0647e69c4" x="61.881055" y="95.647798" style="fill: #3d7db2; fill-opacity: 0.5; stroke: #3d7db2; stroke-opacity: 0.5"/>
     <use xlink:href="#mc0647e69c4" x="43.1404" y="89.084049" style="fill: #3d7db2; fill-opacity: 0.5; stroke: #3d7db2; stroke-opacity: 0.5"/>
     <use xlink:href="#mc0647e69c4" x="51.818953" y="89.008533" style="fill: #3d7db2; fill-opacity: 0.5; stroke: #3d7db2; stroke-opacity: 0.5"/>
     <use xlink:href="#mc0647e69c4" x="50.832946" y="97.969263" style="fill: #3d7db2; fill-opacity: 0.5; stroke: #3d7db2; stroke-opacity: 0.5"/>
     <use xlink:href="#mc0647e69c4" x="55.357389" y="79.764467" style="fill: #3d7db2; fill-opacity: 0.5; stroke: #3d7db2; stroke-opacity: 0.5"/>
     <use xlink:href="#mc0647e69c4" x="71.215372" y="88.647288" style="fill: #3d7db2; fill-opacity: 0.5; stroke: #3d7db2; stroke-opacity: 0.5"/>
     <use xlink:href="#mc0647e69c4" x="51.208783" y="95.730374" style="fill: #3d7db2; fill-opacity: 0.5; stroke: #3d7db2; stroke-opacity: 0.5"/>
     <use xlink:href="#mc0647e69c4" x="59.537377" y="85.935108" style="fill: #3d7db2; fill-opacity: 0.5; stroke: #3d7db2; stroke-opacity: 0.5"/>
     <use xlink:href="#mc0647e69c4" x="61.872579" y="78.325552" style="fill: #3d7db2; fill-opacity: 0.5; stroke: #3d7db2; stroke-opacity: 0.5"/>
     <use xlink:href="#mc0647e69c4" x="69.4475" y="92.349534" style="fill: #3d7db2; fill-opacity: 0.5; stroke: #3d7db2; stroke-opacity: 0.5"/>
     <use xlink:href="#mc0647e69c4" x="31.108508" y="95.384145" style="fill: #3d7db2; fill-opacity: 0.5; stroke: #3d7db2; stroke-opacity: 0.5"/>
     <use xlink:href="#mc0647e69c4" x="26.170692" y="113.967226" style="fill: #3d7db2; fill-opacity: 0.5; stroke: #3d7db2; stroke-opacity: 0.5"/>
     <use xlink:href="#mc0647e69c4" x="65.878457" y="71.555328" style="fill: #3d7db2; fill-opacity: 0.5; stroke: #3d7db2; stroke-opacity: 0.5"/>
     <use xlink:href="#mc0647e69c4" x="47.812562" y="83.586089" style="fill: #3d7db2; fill-opacity: 0.5; stroke: #3d7db2; stroke-opacity: 0.5"/>
     <use xlink:href="#mc0647e69c4" x="72.543762" y="90.550065" style="fill: #3d7db2; fill-opacity: 0.5; stroke: #3d7db2; stroke-opacity: 0.5"/>
     <use xlink:href="#mc0647e69c4" x="74.799604" y="88.945489" style="fill: #3d7db2; fill-opacity: 0.5; stroke: #3d7db2; stroke-opacity: 0.5"/>
     <use xlink:href="#mc0647e69c4" x="67.950715" y="80.036783" style="fill: #3d7db2; fill-opacity: 0.5; stroke: #3d7db2; stroke-opacity: 0.5"/>
     <use xlink:href="#mc0647e69c4" x="55.545497" y="92.79006" style="fill: #3d7db2; fill-opacity: 0.5; stroke: #3d7db2; stroke-opacity: 0.5"/>
     <use xlink:href="#mc0647e69c4" x="70.654961" y="74.178242" style="fill: #3d7db2; fill-opacity: 0.5; stroke: #3d7db2; stroke-opacity: 0.5"/>
     <use xlink:href="#mc0647e69c4" x="50.011602" y="88.472034" style="fill: #3d7db2; fill-opacity: 0.5; stroke: #3d7db2; stroke-opacity: 0.5"/>
     <use xlink:href="#mc0647e69c4" x="58.19343" y="83.324186" style="fill: #3d7db2; fill-opacity: 0.5; stroke: #3d7db2; stroke-opacity: 0.5"/>
     <use xlink:href="#mc0647e69c4" x="52.521465" y="86.002822" style="fill: #3d7db2; fill-opacity: 0.5; stroke: #3d7db2; stroke-opacity: 0.5"/>
     <use xlink:href="#mc0647e69c4" x="66.105383" y="76.776382" style="fill: #3d7db2; fill-opacity: 0.5; stroke: #3d7db2; stroke-opacity: 0.5"/>
     <use xlink:href="#mc0647e69c4" x="69.186361" y="75.681774" style="fill: #3d7db2; fill-opacity: 0.5; stroke: #3d7db2; stroke-opacity: 0.5"/>
     <use xlink:href="#mc0647e69c4" x="63.466639" y="97.574109" style="fill: #3d7db2; fill-opacity: 0.5; stroke: #3d7db2; stroke-opacity: 0.5"/>
     <use xlink:href="#mc0647e69c4" x="66.555161" y="84.313969" style="fill: #3d7db2; fill-opacity: 0.5; stroke: #3d7db2; stroke-opacity: 0.5"/>
     <use xlink:href="#mc0647e69c4" x="75.836848" y="69.046906" style="fill: #3d7db2; fill-opacity: 0.5; stroke: #3d7db2; stroke-opacity: 0.5"/>
     <use xlink:href="#mc0647e69c4" x="58.294811" y="90.021766" style="fill: #3d7db2; fill-opacity: 0.5; stroke: #3d7db2; stroke-opacity: 0.5"/>
     <use xlink:href="#mc0647e69c4" x="55.27981" y="76.666711" style="fill: #3d7db2; fill-opacity: 0.5; stroke: #3d7db2; stroke-opacity: 0.5"/>
     <use xlink:href="#mc0647e69c4" x="57.296431" y="108.860679" style="fill: #3d7db2; fill-opacity: 0.5; stroke: #3d7db2; stroke-opacity: 0.5"/>
     <use xlink:href="#mc0647e69c4" x="57.518373" y="89.197062" style="fill: #3d7db2; fill-opacity: 0.5; stroke: #3d7db2; stroke-opacity: 0.5"/>
     <use xlink:href="#mc0647e69c4" x="66.843144" y="89.949132" style="fill: #3d7db2; fill-opacity: 0.5; stroke: #3d7db2; stroke-opacity: 0.5"/>
     <use xlink:href="#mc0647e69c4" x="59.254327" y="85.917696" style="fill: #3d7db2; fill-opacity: 0.5; stroke: #3d7db2; stroke-opacity: 0.5"/>
     <use xlink:href="#mc0647e69c4" x="58.44941" y="76.852101" style="fill: #3d7db2; fill-opacity: 0.5; stroke: #3d7db2; stroke-opacity: 0.5"/>
     <use xlink:href="#mc0647e69c4" x="67.510598" y="79.29678" style="fill: #3d7db2; fill-opacity: 0.5; stroke: #3d7db2; stroke-opacity: 0.5"/>
     <use xlink:href="#mc0647e69c4" x="35.302153" y="72.174009" style="fill: #3d7db2; fill-opacity: 0.5; stroke: #3d7db2; stroke-opacity: 0.5"/>
     <use xlink:href="#mc0647e69c4" x="49.554623" y="91.232572" style="fill: #3d7db2; fill-opacity: 0.5; stroke: #3d7db2; stroke-opacity: 0.5"/>
     <use xlink:href="#mc0647e69c4" x="62.33304" y="93.447658" style="fill: #3d7db2; fill-opacity: 0.5; stroke: #3d7db2; stroke-opacity: 0.5"/>
     <use xlink:href="#mc0647e69c4" x="49.373518" y="87.586981" style="fill: #3d7db2; fill-opacity: 0.5; stroke: #3d7db2; stroke-opacity: 0.5"/>
     <use xlink:href="#mc0647e69c4" x="65.954534" y="73.612908" style="fill: #3d7db2; fill-opacity: 0.5; stroke: #3d7db2; stroke-opacity: 0.5"/>
     <use xlink:href="#mc0647e69c4" x="37.729932" y="91.144757" style="fill: #3d7db2; fill-opacity: 0.5; stroke: #3d7db2; stroke-opacity: 0.5"/>
     <use xlink:href="#mc0647e69c4" x="62.432921" y="78.162401" style="fill: #3d7db2; fill-opacity: 0.5; stroke: #3d7db2; stroke-opacity: 0.5"/>
     <use xlink:href="#mc0647e69c4" x="59.78809" y="74.056919" style="fill: #3d7db2; fill-opacity: 0.5; stroke: #3d7db2; stroke-opacity: 0.5"/>
     <use xlink:href="#mc0647e69c4" x="56.781895" y="83.424761" style="fill: #3d7db2; fill-opacity: 0.5; stroke: #3d7db2; stroke-opacity: 0.5"/>
     <use xlink:href="#mc0647e69c4" x="63.957262" y="82.876523" style="fill: #3d7db2; fill-opacity: 0.5; stroke: #3d7db2; stroke-opacity: 0.5"/>
     <use xlink:href="#mc0647e69c4" x="38.036438" y="102.348292" style="fill: #3d7db2; fill-opacity: 0.5; stroke: #3d7db2; stroke-opacity: 0.5"/>
     <use xlink:href="#mc0647e69c4" x="75.843769" y="72.094241" style="fill: #3d7db2; fill-opacity: 0.5; stroke: #3d7db2; stroke-opacity: 0.5"/>
     <use xlink:href="#mc0647e69c4" x="57.658415" y="75.222554" style="fill: #3d7db2; fill-opacity: 0.5; stroke: #3d7db2; stroke-opacity: 0.5"/>
     <use xlink:href="#mc0647e69c4" x="67.560778" y="88.290726" style="fill: #3d7db2; fill-opacity: 0.5; stroke: #3d7db2; stroke-opacity: 0.5"/>
     <use xlink:href="#mc0647e69c4" x="112.606366" y="177.232757" style="fill: #3d7db2; fill-opacity: 0.5; stroke: #3d7db2; stroke-opacity: 0.5"/>
     <use xlink:href="#mc0647e69c4" x="52.808817" y="76.888854" style="fill: #3d7db2; fill-opacity: 0.5; stroke: #3d7db2; stroke-opacity: 0.5"/>
     <use xlink:href="#mc0647e69c4" x="37.39298" y="46.740544" style="fill: #3d7db2; fill-opacity: 0.5; stroke: #3d7db2; stroke-opacity: 0.5"/>
     <use xlink:href="#mc0647e69c4" x="69.040739" y="81.268939" style="fill: #3d7db2; fill-opacity: 0.5; stroke: #3d7db2; stroke-opacity: 0.5"/>
     <use xlink:href="#mc0647e69c4" x="55.239306" y="80.293206" style="fill: #3d7db2; fill-opacity: 0.5; stroke: #3d7db2; stroke-opacity: 0.5"/>
     <use xlink:href="#mc0647e69c4" x="56.786687" y="95.638525" style="fill: #3d7db2; fill-opacity: 0.5; stroke: #3d7db2; stroke-opacity: 0.5"/>
     <use xlink:href="#mc0647e69c4" x="72.680958" y="76.37469" style="fill: #3d7db2; fill-opacity: 0.5; stroke: #3d7db2; stroke-opacity: 0.5"/>
     <use xlink:href="#mc0647e69c4" x="65.642167" y="67.279603" style="fill: #3d7db2; fill-opacity: 0.5; stroke: #3d7db2; stroke-opacity: 0.5"/>
     <use xlink:href="#mc0647e69c4" x="71.850117" y="90.544676" style="fill: #3d7db2; fill-opacity: 0.5; stroke: #3d7db2; stroke-opacity: 0.5"/>
     <use xlink:href="#mc0647e69c4" x="63.298572" y="75.509553" style="fill: #3d7db2; fill-opacity: 0.5; stroke: #3d7db2; stroke-opacity: 0.5"/>
     <use xlink:href="#mc0647e69c4" x="116.78201" y="88.171676" style="fill: #3d7db2; fill-opacity: 0.5; stroke: #3d7db2; stroke-opacity: 0.5"/>
     <use xlink:href="#mc0647e69c4" x="60.946387" y="70.751407" style="fill: #3d7db2; fill-opacity: 0.5; stroke: #3d7db2; stroke-opacity: 0.5"/>
     <use xlink:href="#mc0647e69c4" x="38.25604" y="81.410367" style="fill: #3d7db2; fill-opacity: 0.5; stroke: #3d7db2; stroke-opacity: 0.5"/>
     <use xlink:href="#mc0647e69c4" x="71.332623" y="89.920235" style="fill: #3d7db2; fill-opacity: 0.5; stroke: #3d7db2; stroke-opacity: 0.5"/>
     <use xlink:href="#mc0647e69c4" x="60.430292" y="63.240564" style="fill: #3d7db2; fill-opacity: 0.5; stroke: #3d7db2; stroke-opacity: 0.5"/>
     <use xlink:href="#mc0647e69c4" x="72.922584" y="74.493768" style="fill: #3d7db2; fill-opacity: 0.5; stroke: #3d7db2; stroke-opacity: 0.5"/>
     <use xlink:href="#mc0647e69c4" x="51.495688" y="73.072316" style="fill: #3d7db2; fill-opacity: 0.5; stroke: #3d7db2; stroke-opacity: 0.5"/>
     <use xlink:href="#mc0647e69c4" x="46.449422" y="84.487386" style="fill: #3d7db2; fill-opacity: 0.5; stroke: #3d7db2; stroke-opacity: 0.5"/>
     <use xlink:href="#mc0647e69c4" x="54.20816" y="79.179871" style="fill: #3d7db2; fill-opacity: 0.5; stroke: #3d7db2; stroke-opacity: 0.5"/>
     <use xlink:href="#mc0647e69c4" x="79.810011" y="53.372872" style="fill: #3d7db2; fill-opacity: 0.5; stroke: #3d7db2; stroke-opacity: 0.5"/>
     <use xlink:href="#mc0647e69c4" x="69.571605" y="74.210878" style="fill: #3d7db2; fill-opacity: 0.5; stroke: #3d7db2; stroke-opacity: 0.5"/>
     <use xlink:href="#mc0647e69c4" x="60.959242" y="80.646443" style="fill: #3d7db2; fill-opacity: 0.5; stroke: #3d7db2; stroke-opacity: 0.5"/>
     <use xlink:href="#mc0647e69c4" x="59.142085" y="78.436923" style="fill: #3d7db2; fill-opacity: 0.5; stroke: #3d7db2; stroke-opacity: 0.5"/>
     <use xlink:href="#mc0647e69c4" x="51.108773" y="85.508983" style="fill: #3d7db2; fill-opacity: 0.5; stroke: #3d7db2; stroke-opacity: 0.5"/>
     <use xlink:href="#mc0647e69c4" x="62.476433" y="90.805444" style="fill: #3d7db2; fill-opacity: 0.5; stroke: #3d7db2; stroke-opacity: 0.5"/>
     <use xlink:href="#mc0647e69c4" x="111.768642" y="85.992352" style="fill: #3d7db2; fill-opacity: 0.5; stroke: #3d7db2; stroke-opacity: 0.5"/>
     <use xlink:href="#mc0647e69c4" x="63.744672" y="85.19052" style="fill: #3d7db2; fill-opacity: 0.5; stroke: #3d7db2; stroke-opacity: 0.5"/>
     <use xlink:href="#mc0647e69c4" x="65.110536" y="53.539463" style="fill: #3d7db2; fill-opacity: 0.5; stroke: #3d7db2; stroke-opacity: 0.5"/>
     <use xlink:href="#mc0647e69c4" x="62.267074" y="75.601524" style="fill: #3d7db2; fill-opacity: 0.5; stroke: #3d7db2; stroke-opacity: 0.5"/>
     <use xlink:href="#mc0647e69c4" x="57.389652" y="92.422076" style="fill: #3d7db2; fill-opacity: 0.5; stroke: #3d7db2; stroke-opacity: 0.5"/>
     <use xlink:href="#mc0647e69c4" x="67.218952" y="58.029183" style="fill: #3d7db2; fill-opacity: 0.5; stroke: #3d7db2; stroke-opacity: 0.5"/>
     <use xlink:href="#mc0647e69c4" x="57.108464" y="81.740043" style="fill: #3d7db2; fill-opacity: 0.5; stroke: #3d7db2; stroke-opacity: 0.5"/>
     <use xlink:href="#mc0647e69c4" x="56.890005" y="95.783595" style="fill: #3d7db2; fill-opacity: 0.5; stroke: #3d7db2; stroke-opacity: 0.5"/>
     <use xlink:href="#mc0647e69c4" x="69.286553" y="94.247567" style="fill: #3d7db2; fill-opacity: 0.5; stroke: #3d7db2; stroke-opacity: 0.5"/>
     <use xlink:href="#mc0647e69c4" x="58.69563" y="82.901469" style="fill: #3d7db2; fill-opacity: 0.5; stroke: #3d7db2; stroke-opacity: 0.5"/>
     <use xlink:href="#mc0647e69c4" x="49.56596" y="77.169627" style="fill: #3d7db2; fill-opacity: 0.5; stroke: #3d7db2; stroke-opacity: 0.5"/>
     <use xlink:href="#mc0647e69c4" x="40.656374" y="88.259535" style="fill: #3d7db2; fill-opacity: 0.5; stroke: #3d7db2; stroke-opacity: 0.5"/>
     <use xlink:href="#mc0647e69c4" x="75.218908" y="86.81085" style="fill: #3d7db2; fill-opacity: 0.5; stroke: #3d7db2; stroke-opacity: 0.5"/>
     <use xlink:href="#mc0647e69c4" x="58.523486" y="90.738567" style="fill: #3d7db2; fill-opacity: 0.5; stroke: #3d7db2; stroke-opacity: 0.5"/>
     <use xlink:href="#mc0647e69c4" x="62.001542" y="84.895723" style="fill: #3d7db2; fill-opacity: 0.5; stroke: #3d7db2; stroke-opacity: 0.5"/>
     <use xlink:href="#mc0647e69c4" x="51.308354" y="82.169895" style="fill: #3d7db2; fill-opacity: 0.5; stroke: #3d7db2; stroke-opacity: 0.5"/>
     <use xlink:href="#mc0647e69c4" x="74.55193" y="72.9922" style="fill: #3d7db2; fill-opacity: 0.5; stroke: #3d7db2; stroke-opacity: 0.5"/>
     <use xlink:href="#mc0647e69c4" x="61.107745" y="107.13822" style="fill: #3d7db2; fill-opacity: 0.5; stroke: #3d7db2; stroke-opacity: 0.5"/>
     <use xlink:href="#mc0647e69c4" x="58.775453" y="87.333725" style="fill: #3d7db2; fill-opacity: 0.5; stroke: #3d7db2; stroke-opacity: 0.5"/>
     <use xlink:href="#mc0647e69c4" x="70.114467" y="83.587388" style="fill: #3d7db2; fill-opacity: 0.5; stroke: #3d7db2; stroke-opacity: 0.5"/>
     <use xlink:href="#mc0647e69c4" x="46.473672" y="103.244791" style="fill: #3d7db2; fill-opacity: 0.5; stroke: #3d7db2; stroke-opacity: 0.5"/>
     <use xlink:href="#mc0647e69c4" x="52.623873" y="89.052172" style="fill: #3d7db2; fill-opacity: 0.5; stroke: #3d7db2; stroke-opacity: 0.5"/>
     <use xlink:href="#mc0647e69c4" x="42.689516" y="81.56768" style="fill: #3d7db2; fill-opacity: 0.5; stroke: #3d7db2; stroke-opacity: 0.5"/>
     <use xlink:href="#mc0647e69c4" x="63.152918" y="76.656048" style="fill: #3d7db2; fill-opacity: 0.5; stroke: #3d7db2; stroke-opacity: 0.5"/>
     <use xlink:href="#mc0647e69c4" x="68.24611" y="96.96034" style="fill: #3d7db2; fill-opacity: 0.5; stroke: #3d7db2; stroke-opacity: 0.5"/>
     <use xlink:href="#mc0647e69c4" x="48.616392" y="76.413248" style="fill: #3d7db2; fill-opacity: 0.5; stroke: #3d7db2; stroke-opacity: 0.5"/>
     <use xlink:href="#mc0647e69c4" x="90.690689" y="105.533766" style="fill: #3d7db2; fill-opacity: 0.5; stroke: #3d7db2; stroke-opacity: 0.5"/>
     <use xlink:href="#mc0647e69c4" x="83.727123" y="96.070489" style="fill: #3d7db2; fill-opacity: 0.5; stroke: #3d7db2; stroke-opacity: 0.5"/>
     <use xlink:href="#mc0647e69c4" x="43.787385" y="87.528602" style="fill: #3d7db2; fill-opacity: 0.5; stroke: #3d7db2; stroke-opacity: 0.5"/>
     <use xlink:href="#mc0647e69c4" x="62.527787" y="76.060178" style="fill: #3d7db2; fill-opacity: 0.5; stroke: #3d7db2; stroke-opacity: 0.5"/>
     <use xlink:href="#mc0647e69c4" x="62.15562" y="82.20833" style="fill: #3d7db2; fill-opacity: 0.5; stroke: #3d7db2; stroke-opacity: 0.5"/>
     <use xlink:href="#mc0647e69c4" x="72.894386" y="82.286906" style="fill: #3d7db2; fill-opacity: 0.5; stroke: #3d7db2; stroke-opacity: 0.5"/>
     <use xlink:href="#mc0647e69c4" x="107.005271" y="140.001542" style="fill: #3d7db2; fill-opacity: 0.5; stroke: #3d7db2; stroke-opacity: 0.5"/>
     <use xlink:href="#mc0647e69c4" x="78.280163" y="104.08483" style="fill: #3d7db2; fill-opacity: 0.5; stroke: #3d7db2; stroke-opacity: 0.5"/>
     <use xlink:href="#mc0647e69c4" x="61.953981" y="92.147258" style="fill: #3d7db2; fill-opacity: 0.5; stroke: #3d7db2; stroke-opacity: 0.5"/>
     <use xlink:href="#mc0647e69c4" x="56.558651" y="83.379723" style="fill: #3d7db2; fill-opacity: 0.5; stroke: #3d7db2; stroke-opacity: 0.5"/>
     <use xlink:href="#mc0647e69c4" x="65.734616" y="85.643733" style="fill: #3d7db2; fill-opacity: 0.5; stroke: #3d7db2; stroke-opacity: 0.5"/>
     <use xlink:href="#mc0647e69c4" x="81.955091" y="103.009663" style="fill: #3d7db2; fill-opacity: 0.5; stroke: #3d7db2; stroke-opacity: 0.5"/>
     <use xlink:href="#mc0647e69c4" x="77.482269" y="86.649067" style="fill: #3d7db2; fill-opacity: 0.5; stroke: #3d7db2; stroke-opacity: 0.5"/>
     <use xlink:href="#mc0647e69c4" x="61.210693" y="95.229582" style="fill: #3d7db2; fill-opacity: 0.5; stroke: #3d7db2; stroke-opacity: 0.5"/>
     <use xlink:href="#mc0647e69c4" x="58.304421" y="86.361755" style="fill: #3d7db2; fill-opacity: 0.5; stroke: #3d7db2; stroke-opacity: 0.5"/>
     <use xlink:href="#mc0647e69c4" x="66.793697" y="88.264531" style="fill: #3d7db2; fill-opacity: 0.5; stroke: #3d7db2; stroke-opacity: 0.5"/>
     <use xlink:href="#mc0647e69c4" x="53.272724" y="71.238355" style="fill: #3d7db2; fill-opacity: 0.5; stroke: #3d7db2; stroke-opacity: 0.5"/>
     <use xlink:href="#mc0647e69c4" x="71.919955" y="95.892385" style="fill: #3d7db2; fill-opacity: 0.5; stroke: #3d7db2; stroke-opacity: 0.5"/>
     <use xlink:href="#mc0647e69c4" x="50.674228" y="84.89792" style="fill: #3d7db2; fill-opacity: 0.5; stroke: #3d7db2; stroke-opacity: 0.5"/>
     <use xlink:href="#mc0647e69c4" x="58.245979" y="89.245423" style="fill: #3d7db2; fill-opacity: 0.5; stroke: #3d7db2; stroke-opacity: 0.5"/>
     <use xlink:href="#mc0647e69c4" x="50.230695" y="76.283538" style="fill: #3d7db2; fill-opacity: 0.5; stroke: #3d7db2; stroke-opacity: 0.5"/>
     <use xlink:href="#mc0647e69c4" x="62.152754" y="86.322424" style="fill: #3d7db2; fill-opacity: 0.5; stroke: #3d7db2; stroke-opacity: 0.5"/>
     <use xlink:href="#mc0647e69c4" x="96.454587" y="81.378781" style="fill: #3d7db2; fill-opacity: 0.5; stroke: #3d7db2; stroke-opacity: 0.5"/>
     <use xlink:href="#mc0647e69c4" x="65.071938" y="85.828739" style="fill: #3d7db2; fill-opacity: 0.5; stroke: #3d7db2; stroke-opacity: 0.5"/>
     <use xlink:href="#mc0647e69c4" x="55.450739" y="86.246255" style="fill: #3d7db2; fill-opacity: 0.5; stroke: #3d7db2; stroke-opacity: 0.5"/>
     <use xlink:href="#mc0647e69c4" x="56.939154" y="83.960687" style="fill: #3d7db2; fill-opacity: 0.5; stroke: #3d7db2; stroke-opacity: 0.5"/>
    </g>
   </g>
   <g id="PathCollection_2">
    <defs>
     <path id="ma3fa199d51" d="M -5 0 
L 5 0 
M 0 5 
L 0 -5 
" style="stroke: #ff0000; stroke-width: 1.5"/>
    </defs>
    <g clip-path="url(#p309442434e)">
     <use xlink:href="#ma3fa199d51" x="61.2" y="82.8" style="fill: #ff0000; stroke: #ff0000; stroke-width: 1.5"/>
    </g>
   </g>
   <g id="PathCollection_3">
    <defs>
     <path id="mbd5469563c" d="M -0 3.535534 
L 3.535534 0 
L 0 -3.535534 
L -3.535534 -0 
z
" style="stroke: #000000"/>
    </defs>
    <g clip-path="url(#p309442434e)">
     <use xlink:href="#mbd5469563c" x="62.09049" y="86.338268" style="stroke: #000000"/>
    </g>
   </g>
   <g id="matplotlib.axis_1">
    <g id="xtick_1">
     <g id="line2d_1">
      <defs>
       <path id="m123e651501" d="M 0 0 
L 0 3.5 
" style="stroke: #000000; stroke-width: 0.8"/>
      </defs>
      <g>
       <use xlink:href="#m123e651501" x="23.76" y="129.6" style="stroke: #000000; stroke-width: 0.8"/>
      </g>
     </g>
     <g id="text_1">
      <!-- −2 -->
      <g transform="translate(16.388906 144.198438)scale(0.1 -0.1)">
       <defs>
        <path id="DejaVuSans-2212" d="M 678 2272 
L 4684 2272 
L 4684 1741 
L 678 1741 
L 678 2272 
z
" transform="scale(0.015625)"/>
        <path id="DejaVuSans-32" d="M 1228 531 
L 3431 531 
L 3431 0 
L 469 0 
L 469 531 
Q 828 903 1448 1529 
Q 2069 2156 2228 2338 
Q 2531 2678 2651 2914 
Q 2772 3150 2772 3378 
Q 2772 3750 2511 3984 
Q 2250 4219 1831 4219 
Q 1534 4219 1204 4116 
Q 875 4013 500 3803 
L 500 4441 
Q 881 4594 1212 4672 
Q 1544 4750 1819 4750 
Q 2544 4750 2975 4387 
Q 3406 4025 3406 3419 
Q 3406 3131 3298 2873 
Q 3191 2616 2906 2266 
Q 2828 2175 2409 1742 
Q 1991 1309 1228 531 
z
" transform="scale(0.015625)"/>
       </defs>
       <use xlink:href="#DejaVuSans-2212"/>
       <use xlink:href="#DejaVuSans-32" x="83.789062"/>
      </g>
     </g>
    </g>
    <g id="xtick_2">
     <g id="line2d_2">
      <g>
       <use xlink:href="#m123e651501" x="61.2" y="129.6" style="stroke: #000000; stroke-width: 0.8"/>
      </g>
     </g>
     <g id="text_2">
      <!-- 0 -->
      <g transform="translate(58.01875 144.198438)scale(0.1 -0.1)">
       <defs>
        <path id="DejaVuSans-30" d="M 2034 4250 
Q 1547 4250 1301 3770 
Q 1056 3291 1056 2328 
Q 1056 1369 1301 889 
Q 1547 409 2034 409 
Q 2525 409 2770 889 
Q 3016 1369 3016 2328 
Q 3016 3291 2770 3770 
Q 2525 4250 2034 4250 
z
M 2034 4750 
Q 2819 4750 3233 4129 
Q 3647 3509 3647 2328 
Q 3647 1150 3233 529 
Q 2819 -91 2034 -91 
Q 1250 -91 836 529 
Q 422 1150 422 2328 
Q 422 3509 836 4129 
Q 1250 4750 2034 4750 
z
" transform="scale(0.015625)"/>
       </defs>
       <use xlink:href="#DejaVuSans-30"/>
      </g>
     </g>
    </g>
    <g id="xtick_3">
     <g id="line2d_3">
      <g>
       <use xlink:href="#m123e651501" x="98.64" y="129.6" style="stroke: #000000; stroke-width: 0.8"/>
      </g>
     </g>
     <g id="text_3">
      <!-- 2 -->
      <g transform="translate(95.45875 144.198438)scale(0.1 -0.1)">
       <use xlink:href="#DejaVuSans-32"/>
      </g>
     </g>
    </g>
    <g id="text_4">
     <!-- x (m) -->
     <g transform="translate(47.879687 157.876563)scale(0.1 -0.1)">
      <defs>
       <path id="DejaVuSans-78" d="M 3513 3500 
L 2247 1797 
L 3578 0 
L 2900 0 
L 1881 1375 
L 863 0 
L 184 0 
L 1544 1831 
L 300 3500 
L 978 3500 
L 1906 2253 
L 2834 3500 
L 3513 3500 
z
" transform="scale(0.015625)"/>
       <path id="DejaVuSans-20" transform="scale(0.015625)"/>
       <path id="DejaVuSans-28" d="M 1984 4856 
Q 1566 4138 1362 3434 
Q 1159 2731 1159 2009 
Q 1159 1288 1364 580 
Q 1569 -128 1984 -844 
L 1484 -844 
Q 1016 -109 783 600 
Q 550 1309 550 2009 
Q 550 2706 781 3412 
Q 1013 4119 1484 4856 
L 1984 4856 
z
" transform="scale(0.015625)"/>
       <path id="DejaVuSans-6d" d="M 3328 2828 
Q 3544 3216 3844 3400 
Q 4144 3584 4550 3584 
Q 5097 3584 5394 3201 
Q 5691 2819 5691 2113 
L 5691 0 
L 5113 0 
L 5113 2094 
Q 5113 2597 4934 2840 
Q 4756 3084 4391 3084 
Q 3944 3084 3684 2787 
Q 3425 2491 3425 1978 
L 3425 0 
L 2847 0 
L 2847 2094 
Q 2847 2600 2669 2842 
Q 2491 3084 2119 3084 
Q 1678 3084 1418 2786 
Q 1159 2488 1159 1978 
L 1159 0 
L 581 0 
L 581 3500 
L 1159 3500 
L 1159 2956 
Q 1356 3278 1631 3431 
Q 1906 3584 2284 3584 
Q 2666 3584 2933 3390 
Q 3200 3197 3328 2828 
z
" transform="scale(0.015625)"/>
       <path id="DejaVuSans-29" d="M 513 4856 
L 1013 4856 
Q 1481 4119 1714 3412 
Q 1947 2706 1947 2009 
Q 1947 1309 1714 600 
Q 1481 -109 1013 -844 
L 513 -844 
Q 928 -128 1133 580 
Q 1338 1288 1338 2009 
Q 1338 2731 1133 3434 
Q 928 4138 513 4856 
z
" transform="scale(0.015625)"/>
      </defs>
      <use xlink:href="#DejaVuSans-78"/>
      <use xlink:href="#DejaVuSans-20" x="59.179688"/>
      <use xlink:href="#DejaVuSans-28" x="90.966797"/>
      <use xlink:href="#DejaVuSans-6d" x="129.980469"/>
      <use xlink:href="#DejaVuSans-29" x="227.392578"/>
     </g>
    </g>
   </g>
   <g id="matplotlib.axis_2">
    <g id="ytick_1">
     <g id="line2d_4">
      <defs>
       <path id="mcb6335a0c1" d="M 0 0 
L -3.5 0 
" style="stroke: #000000; stroke-width: 0.8"/>
      </defs>
      <g>
       <use xlink:href="#mcb6335a0c1" x="14.4" y="120.24" style="stroke: #000000; stroke-width: 0.8"/>
      </g>
     </g>
     <g id="text_5">
      <!-- −2 -->
      <g transform="translate(-7.342187 124.039219)scale(0.1 -0.1)">
       <use xlink:href="#DejaVuSans-2212"/>
       <use xlink:href="#DejaVuSans-32" x="83.789062"/>
      </g>
     </g>
    </g>
    <g id="ytick_2">
     <g id="line2d_5">
      <g>
       <use xlink:href="#mcb6335a0c1" x="14.4" y="82.8" style="stroke: #000000; stroke-width: 0.8"/>
      </g>
     </g>
     <g id="text_6">
      <!-- 0 -->
      <g transform="translate(1.0375 86.599219)scale(0.1 -0.1)">
       <use xlink:href="#DejaVuSans-30"/>
      </g>
     </g>
    </g>
    <g id="ytick_3">
     <g id="line2d_6">
      <g>
       <use xlink:href="#mcb6335a0c1" x="14.4" y="45.36" style="stroke: #000000; stroke-width: 0.8"/>
      </g>
     </g>
     <g id="text_7">
      <!-- 2 -->
      <g transform="translate(1.0375 49.159219)scale(0.1 -0.1)">
       <use xlink:href="#DejaVuSans-32"/>
      </g>
     </g>
    </g>
   </g>
   <g id="patch_3">
    <path d="M 14.4 129.6 
L 14.4 36 
" style="fill: none; stroke: #000000; stroke-width: 0.8; stroke-linejoin: miter; stroke-linecap: square"/>
   </g>
   <g id="patch_4">
    <path d="M 108 129.6 
L 108 36 
" style="fill: none; stroke: #000000; stroke-width: 0.8; stroke-linejoin: miter; stroke-linecap: square"/>
   </g>
   <g id="patch_5">
    <path d="M 14.4 129.6 
L 108 129.6 
" style="fill: none; stroke: #000000; stroke-width: 0.8; stroke-linejoin: miter; stroke-linecap: square"/>
   </g>
   <g id="patch_6">
    <path d="M 14.4 36 
L 108 36 
" style="fill: none; stroke: #000000; stroke-width: 0.8; stroke-linejoin: miter; stroke-linecap: square"/>
   </g>
  </g>
  <g id="axes_2">
   <g id="patch_7">
    <path d="M 14.4 33.12 
L 108 33.12 
L 108 4.32 
L 14.4 4.32 
z
" style="fill: #ffffff"/>
   </g>
   <g id="patch_8">
    <path d="M 14.4 33.12 
L 19.08 33.12 
L 19.08 33.12 
L 14.4 33.12 
z
" clip-path="url(#p059b2113b9)" style="fill: #3d7db2"/>
   </g>
   <g id="patch_9">
    <path d="M 19.08 33.12 
L 23.76 33.12 
L 23.76 33.12 
L 19.08 33.12 
z
" clip-path="url(#p059b2113b9)" style="fill: #3d7db2"/>
   </g>
   <g id="patch_10">
    <path d="M 23.76 33.12 
L 28.44 33.12 
L 28.44 32.16 
L 23.76 32.16 
z
" clip-path="url(#p059b2113b9)" style="fill: #3d7db2"/>
   </g>
   <g id="patch_11">
    <path d="M 28.44 33.12 
L 33.12 33.12 
L 33.12 31.2 
L 28.44 31.2 
z
" clip-path="url(#p059b2113b9)" style="fill: #3d7db2"/>
   </g>
   <g id="patch_12">
    <path d="M 33.12 33.12 
L 37.8 33.12 
L 37.8 30.24 
L 33.12 30.24 
z
" clip-path="url(#p059b2113b9)" style="fill: #3d7db2"/>
   </g>
   <g id="patch_13">
    <path d="M 37.8 33.12 
L 42.48 33.12 
L 42.48 30.24 
L 37.8 30.24 
z
" clip-path="url(#p059b2113b9)" style="fill: #3d7db2"/>
   </g>
   <g id="patch_14">
    <path d="M 42.48 33.12 
L 47.16 33.12 
L 47.16 27.36 
L 42.48 27.36 
z
" clip-path="url(#p059b2113b9)" style="fill: #3d7db2"/>
   </g>
   <g id="patch_15">
    <path d="M 47.16 33.12 
L 51.84 33.12 
L 51.84 17.76 
L 47.16 17.76 
z
" clip-path="url(#p059b2113b9)" style="fill: #3d7db2"/>
   </g>
   <g id="patch_16">
    <path d="M 51.84 33.12 
L 56.52 33.12 
L 56.52 23.52 
L 51.84 23.52 
z
" clip-path="url(#p059b2113b9)" style="fill: #3d7db2"/>
   </g>
   <g id="patch_17">
    <path d="M 56.52 33.12 
L 61.2 33.12 
L 61.2 3.36 
L 56.52 3.36 
z
" clip-path="url(#p059b2113b9)" style="fill: #3d7db2"/>
   </g>
   <g id="patch_18">
    <path d="M 61.2 33.12 
L 65.88 33.12 
L 65.88 9.12 
L 61.2 9.12 
z
" clip-path="url(#p059b2113b9)" style="fill: #3d7db2"/>
   </g>
   <g id="patch_19">
    <path d="M 65.88 33.12 
L 70.56 33.12 
L 70.56 16.8 
L 65.88 16.8 
z
" clip-path="url(#p059b2113b9)" style="fill: #3d7db2"/>
   </g>
   <g id="patch_20">
    <path d="M 70.56 33.12 
L 75.24 33.12 
L 75.24 18.72 
L 70.56 18.72 
z
" clip-path="url(#p059b2113b9)" style="fill: #3d7db2"/>
   </g>
   <g id="patch_21">
    <path d="M 75.24 33.12 
L 79.92 33.12 
L 79.92 27.36 
L 75.24 27.36 
z
" clip-path="url(#p059b2113b9)" style="fill: #3d7db2"/>
   </g>
   <g id="patch_22">
    <path d="M 79.92 33.12 
L 84.6 33.12 
L 84.6 31.2 
L 79.92 31.2 
z
" clip-path="url(#p059b2113b9)" style="fill: #3d7db2"/>
   </g>
   <g id="patch_23">
    <path d="M 84.6 33.12 
L 89.28 33.12 
L 89.28 33.12 
L 84.6 33.12 
z
" clip-path="url(#p059b2113b9)" style="fill: #3d7db2"/>
   </g>
   <g id="patch_24">
    <path d="M 89.28 33.12 
L 93.96 33.12 
L 93.96 32.16 
L 89.28 32.16 
z
" clip-path="url(#p059b2113b9)" style="fill: #3d7db2"/>
   </g>
   <g id="patch_25">
    <path d="M 93.96 33.12 
L 98.64 33.12 
L 98.64 32.16 
L 93.96 32.16 
z
" clip-path="url(#p059b2113b9)" style="fill: #3d7db2"/>
   </g>
   <g id="patch_26">
    <path d="M 98.64 33.12 
L 103.32 33.12 
L 103.32 32.16 
L 98.64 32.16 
z
" clip-path="url(#p059b2113b9)" style="fill: #3d7db2"/>
   </g>
   <g id="patch_27">
    <path d="M 103.32 33.12 
L 108 33.12 
L 108 32.16 
L 103.32 32.16 
z
" clip-path="url(#p059b2113b9)" style="fill: #3d7db2"/>
   </g>
   <g id="matplotlib.axis_3">
    <g id="xtick_4">
     <g id="line2d_7">
      <g>
       <use xlink:href="#m123e651501" x="23.76" y="33.12" style="stroke: #000000; stroke-width: 0.8"/>
      </g>
     </g>
    </g>
    <g id="xtick_5">
     <g id="line2d_8">
      <g>
       <use xlink:href="#m123e651501" x="61.2" y="33.12" style="stroke: #000000; stroke-width: 0.8"/>
      </g>
     </g>
    </g>
    <g id="xtick_6">
     <g id="line2d_9">
      <g>
       <use xlink:href="#m123e651501" x="98.64" y="33.12" style="stroke: #000000; stroke-width: 0.8"/>
      </g>
     </g>
    </g>
   </g>
   <g id="matplotlib.axis_4">
    <g id="ytick_4">
     <g id="line2d_10">
      <g>
       <use xlink:href="#mcb6335a0c1" x="14.4" y="33.12" style="stroke: #000000; stroke-width: 0.8"/>
      </g>
     </g>
     <g id="text_8">
      <!-- 0 -->
      <g transform="translate(1.0375 36.919219)scale(0.1 -0.1)">
       <use xlink:href="#DejaVuSans-30"/>
      </g>
     </g>
    </g>
    <g id="ytick_5">
     <g id="line2d_11">
      <g>
       <use xlink:href="#mcb6335a0c1" x="14.4" y="9.12" style="stroke: #000000; stroke-width: 0.8"/>
      </g>
     </g>
     <g id="text_9">
      <!-- 25 -->
      <g transform="translate(-5.325 12.919219)scale(0.1 -0.1)">
       <defs>
        <path id="DejaVuSans-35" d="M 691 4666 
L 3169 4666 
L 3169 4134 
L 1269 4134 
L 1269 2991 
Q 1406 3038 1543 3061 
Q 1681 3084 1819 3084 
Q 2600 3084 3056 2656 
Q 3513 2228 3513 1497 
Q 3513 744 3044 326 
Q 2575 -91 1722 -91 
Q 1428 -91 1123 -41 
Q 819 9 494 109 
L 494 744 
Q 775 591 1075 516 
Q 1375 441 1709 441 
Q 2250 441 2565 725 
Q 2881 1009 2881 1497 
Q 2881 1984 2565 2268 
Q 2250 2553 1709 2553 
Q 1456 2553 1204 2497 
Q 953 2441 691 2322 
L 691 4666 
z
" transform="scale(0.015625)"/>
       </defs>
       <use xlink:href="#DejaVuSans-32"/>
       <use xlink:href="#DejaVuSans-35" x="63.623047"/>
      </g>
     </g>
    </g>
   </g>
   <g id="line2d_12">
    <path d="M 61.2 33.12 
L 61.2 4.32 
" clip-path="url(#p059b2113b9)" style="fill: none; stroke: #ff0000; stroke-width: 1.5; stroke-linecap: square"/>
   </g>
   <g id="patch_28">
    <path d="M 14.4 33.12 
L 14.4 4.32 
" style="fill: none; stroke: #000000; stroke-width: 0.8; stroke-linejoin: miter; stroke-linecap: square"/>
   </g>
   <g id="patch_29">
    <path d="M 14.4 33.12 
L 108 33.12 
" style="fill: none; stroke: #000000; stroke-width: 0.8; stroke-linejoin: miter; stroke-linecap: square"/>
   </g>
  </g>
  <g id="axes_3">
   <g id="patch_30">
    <path d="M 110.88 129.6 
L 139.68 129.6 
L 139.68 36 
L 110.88 36 
z
" style="fill: #ffffff"/>
   </g>
   <g id="patch_31">
    <path d="M 110.88 129.6 
L 110.88 129.6 
L 110.88 124.92 
L 110.88 124.92 
z
" clip-path="url(#p7e8332f91e)" style="fill: #3d7db2"/>
   </g>
   <g id="patch_32">
    <path d="M 110.88 124.92 
L 110.88 124.92 
L 110.88 120.24 
L 110.88 120.24 
z
" clip-path="url(#p7e8332f91e)" style="fill: #3d7db2"/>
   </g>
   <g id="patch_33">
    <path d="M 110.88 120.24 
L 110.88 120.24 
L 110.88 115.56 
L 110.88 115.56 
z
" clip-path="url(#p7e8332f91e)" style="fill: #3d7db2"/>
   </g>
   <g id="patch_34">
    <path d="M 110.88 115.56 
L 111.84 115.56 
L 111.84 110.88 
L 110.88 110.88 
z
" clip-path="url(#p7e8332f91e)" style="fill: #3d7db2"/>
   </g>
   <g id="patch_35">
    <path d="M 110.88 110.88 
L 114.72 110.88 
L 114.72 106.2 
L 110.88 106.2 
z
" clip-path="url(#p7e8332f91e)" style="fill: #3d7db2"/>
   </g>
   <g id="patch_36">
    <path d="M 110.88 106.2 
L 116.64 106.2 
L 116.64 101.52 
L 110.88 101.52 
z
" clip-path="url(#p7e8332f91e)" style="fill: #3d7db2"/>
   </g>
   <g id="patch_37">
    <path d="M 110.88 101.52 
L 114.72 101.52 
L 114.72 96.84 
L 110.88 96.84 
z
" clip-path="url(#p7e8332f91e)" style="fill: #3d7db2"/>
   </g>
   <g id="patch_38">
    <path d="M 110.88 96.84 
L 125.28 96.84 
L 125.28 92.16 
L 110.88 92.16 
z
" clip-path="url(#p7e8332f91e)" style="fill: #3d7db2"/>
   </g>
   <g id="patch_39">
    <path d="M 110.88 92.16 
L 137.76 92.16 
L 137.76 87.48 
L 110.88 87.48 
z
" clip-path="url(#p7e8332f91e)" style="fill: #3d7db2"/>
   </g>
   <g id="patch_40">
    <path d="M 110.88 87.48 
L 138.72 87.48 
L 138.72 82.8 
L 110.88 82.8 
z
" clip-path="url(#p7e8332f91e)" style="fill: #3d7db2"/>
   </g>
   <g id="patch_41">
    <path d="M 110.88 82.8 
L 128.16 82.8 
L 128.16 78.12 
L 110.88 78.12 
z
" clip-path="url(#p7e8332f91e)" style="fill: #3d7db2"/>
   </g>
   <g id="patch_42">
    <path d="M 110.88 78.12 
L 130.08 78.12 
L 130.08 73.44 
L 110.88 73.44 
z
" clip-path="url(#p7e8332f91e)" style="fill: #3d7db2"/>
   </g>
   <g id="patch_43">
    <path d="M 110.88 73.44 
L 120.48 73.44 
L 120.48 68.76 
L 110.88 68.76 
z
" clip-path="url(#p7e8332f91e)" style="fill: #3d7db2"/>
   </g>
   <g id="patch_44">
    <path d="M 110.88 68.76 
L 111.84 68.76 
L 111.84 64.08 
L 110.88 64.08 
z
" clip-path="url(#p7e8332f91e)" style="fill: #3d7db2"/>
   </g>
   <g id="patch_45">
    <path d="M 110.88 64.08 
L 111.84 64.08 
L 111.84 59.4 
L 110.88 59.4 
z
" clip-path="url(#p7e8332f91e)" style="fill: #3d7db2"/>
   </g>
   <g id="patch_46">
    <path d="M 110.88 59.4 
L 111.84 59.4 
L 111.84 54.72 
L 110.88 54.72 
z
" clip-path="url(#p7e8332f91e)" style="fill: #3d7db2"/>
   </g>
   <g id="patch_47">
    <path d="M 110.88 54.72 
L 112.8 54.72 
L 112.8 50.04 
L 110.88 50.04 
z
" clip-path="url(#p7e8332f91e)" style="fill: #3d7db2"/>
   </g>
   <g id="patch_48">
    <path d="M 110.88 50.04 
L 111.84 50.04 
L 111.84 45.36 
L 110.88 45.36 
z
" clip-path="url(#p7e8332f91e)" style="fill: #3d7db2"/>
   </g>
   <g id="patch_49">
    <path d="M 110.88 45.36 
L 110.88 45.36 
L 110.88 40.68 
L 110.88 40.68 
z
" clip-path="url(#p7e8332f91e)" style="fill: #3d7db2"/>
   </g>
   <g id="patch_50">
    <path d="M 110.88 40.68 
L 110.88 40.68 
L 110.88 36 
L 110.88 36 
z
" clip-path="url(#p7e8332f91e)" style="fill: #3d7db2"/>
   </g>
   <g id="matplotlib.axis_5">
    <g id="xtick_7">
     <g id="line2d_13">
      <g>
       <use xlink:href="#m123e651501" x="110.88" y="129.6" style="stroke: #000000; stroke-width: 0.8"/>
      </g>
     </g>
     <g id="text_10">
      <!-- 0 -->
      <g transform="translate(107.69875 144.198438)scale(0.1 -0.1)">
       <use xlink:href="#DejaVuSans-30"/>
      </g>
     </g>
    </g>
    <g id="xtick_8">
     <g id="line2d_14">
      <g>
       <use xlink:href="#m123e651501" x="134.88" y="129.6" style="stroke: #000000; stroke-width: 0.8"/>
      </g>
     </g>
     <g id="text_11">
      <!-- 25 -->
      <g transform="translate(128.5175 144.198438)scale(0.1 -0.1)">
       <use xlink:href="#DejaVuSans-32"/>
       <use xlink:href="#DejaVuSans-35" x="63.623047"/>
      </g>
     </g>
    </g>
   </g>
   <g id="matplotlib.axis_6">
    <g id="ytick_6">
     <g id="line2d_15">
      <g>
       <use xlink:href="#mcb6335a0c1" x="110.88" y="120.24" style="stroke: #000000; stroke-width: 0.8"/>
      </g>
     </g>
    </g>
    <g id="ytick_7">
     <g id="line2d_16">
      <g>
       <use xlink:href="#mcb6335a0c1" x="110.88" y="82.8" style="stroke: #000000; stroke-width: 0.8"/>
      </g>
     </g>
    </g>
    <g id="ytick_8">
     <g id="line2d_17">
      <g>
       <use xlink:href="#mcb6335a0c1" x="110.88" y="45.36" style="stroke: #000000; stroke-width: 0.8"/>
      </g>
     </g>
    </g>
   </g>
   <g id="line2d_18">
    <path d="M 110.88 82.8 
L 139.68 82.8 
" clip-path="url(#p7e8332f91e)" style="fill: none; stroke: #ff0000; stroke-width: 1.5; stroke-linecap: square"/>
   </g>
   <g id="patch_51">
    <path d="M 110.88 129.6 
L 110.88 36 
" style="fill: none; stroke: #000000; stroke-width: 0.8; stroke-linejoin: miter; stroke-linecap: square"/>
   </g>
   <g id="patch_52">
    <path d="M 110.88 129.6 
L 139.68 129.6 
" style="fill: none; stroke: #000000; stroke-width: 0.8; stroke-linejoin: miter; stroke-linecap: square"/>
   </g>
  </g>
 </g>
 <defs>
  <clipPath id="p309442434e">
   <rect x="14.4" y="36" width="93.6" height="93.6"/>
  </clipPath>
  <clipPath id="p059b2113b9">
   <rect x="14.4" y="4.32" width="93.6" height="28.8"/>
  </clipPath>
  <clipPath id="p7e8332f91e">
   <rect x="110.88" y="36" width="28.8" height="93.6"/>
  </clipPath>
 </defs>
</svg>
