<?xml version="1.0" encoding="utf-8" standalone="no"?>
<!DOCTYPE svg PUBLIC "-//W3C//DTD SVG 1.1//EN"
  "http://www.w3.org/Graphics/SVG/1.1/DTD/svg11.dtd">
<svg xmlns:xlink="http://www.w3.org/1999/xlink" width="144pt" height="144pt" viewBox="0 0 144 144" xmlns="http://www.w3.org/2000/svg" version="1.1">
 <metadata>
  <rdf:RDF xmlns:dc="http://purl.org/dc/elements/1.1/" xmlns:cc="http://creativecommons.org/ns#" xmlns:rdf="http://www.w3.org/1999/02/22-rdf-syntax-ns#">
   <cc:Work>
    <dc:type rdf:resource="http://purl.org/dc/dcmitype/StillImage"/>
    <dc:date>2024-02-07T14:57:54.367403</dc:date>
    <dc:format>image/svg+xml</dc:format>
    <dc:creator>
     <cc:Agent>
      <dc:title>Matplotlib v3.5.1, https://matplotlib.org/</dc:title>
     </cc:Agent>
    </dc:creator>
   </cc:Work>
  </rdf:RDF>
 </metadata>
 <defs>
  <style type="text/css">*{stroke-linejoin: round; stroke-linecap: butt}</style>
 </defs>
 <g id="figure_1">
  <g id="patch_1">
   <path d="M 0 144 
L 144 144 
L 144 0 
L 0 0 
L 0 144 
z
" style="fill: none"/>
  </g>
  <g id="axes_1">
   <g id="patch_2">
    <path d="M 14.4 129.6 
L 108 129.6 
L 108 36 
L 14.4 36 
z
" style="fill: #ffffff"/>
   </g>
   <g id="PathCollection_1">
    <defs>
     <path id="m6f8c41d46d" d="M 0 1.581139 
C 0.419323 1.581139 0.821528 1.41454 1.118034 1.118034 
C 1.41454 0.821528 1.581139 0.419323 1.581139 0 
C 1.581139 -0.419323 1.41454 -0.821528 1.118034 -1.118034 
C 0.821528 -1.41454 0.419323 -1.581139 0 -1.581139 
C -0.419323 -1.581139 -0.821528 -1.41454 -1.118034 -1.118034 
C -1.41454 -0.821528 -1.581139 -0.419323 -1.581139 0 
C -1.581139 0.419323 -1.41454 0.821528 -1.118034 1.118034 
C -0.821528 1.41454 -0.419323 1.581139 0 1.581139 
z
" style="stroke: #da2426; stroke-opacity: 0.5"/>
    </defs>
    <g clip-path="url(#p00e91a715a)">
     <use xlink:href="#m6f8c41d46d" x="29.006222" y="108.928834" style="fill: #da2426; fill-opacity: 0.5; stroke: #da2426; stroke-opacity: 0.5"/>
     <use xlink:href="#m6f8c41d46d" x="101.757074" y="93.020891" style="fill: #da2426; fill-opacity: 0.5; stroke: #da2426; stroke-opacity: 0.5"/>
     <use xlink:href="#m6f8c41d46d" x="51.504569" y="84.424021" style="fill: #da2426; fill-opacity: 0.5; stroke: #da2426; stroke-opacity: 0.5"/>
     <use xlink:href="#m6f8c41d46d" x="50.38179" y="84.103602" style="fill: #da2426; fill-opacity: 0.5; stroke: #da2426; stroke-opacity: 0.5"/>
     <use xlink:href="#m6f8c41d46d" x="75.163747" y="89.815077" style="fill: #da2426; fill-opacity: 0.5; stroke: #da2426; stroke-opacity: 0.5"/>
     <use xlink:href="#m6f8c41d46d" x="50.973096" y="86.372296" style="fill: #da2426; fill-opacity: 0.5; stroke: #da2426; stroke-opacity: 0.5"/>
     <use xlink:href="#m6f8c41d46d" x="69.854098" y="78.406745" style="fill: #da2426; fill-opacity: 0.5; stroke: #da2426; stroke-opacity: 0.5"/>
     <use xlink:href="#m6f8c41d46d" x="62.281728" y="83.74205" style="fill: #da2426; fill-opacity: 0.5; stroke: #da2426; stroke-opacity: 0.5"/>
     <use xlink:href="#m6f8c41d46d" x="52.237514" y="77.690998" style="fill: #da2426; fill-opacity: 0.5; stroke: #da2426; stroke-opacity: 0.5"/>
     <use xlink:href="#m6f8c41d46d" x="44.471236" y="95.76696" style="fill: #da2426; fill-opacity: 0.5; stroke: #da2426; stroke-opacity: 0.5"/>
     <use xlink:href="#m6f8c41d46d" x="51.310757" y="78.515826" style="fill: #da2426; fill-opacity: 0.5; stroke: #da2426; stroke-opacity: 0.5"/>
     <use xlink:href="#m6f8c41d46d" x="56.449009" y="81.815094" style="fill: #da2426; fill-opacity: 0.5; stroke: #da2426; stroke-opacity: 0.5"/>
     <use xlink:href="#m6f8c41d46d" x="46.391831" y="88.51044" style="fill: #da2426; fill-opacity: 0.5; stroke: #da2426; stroke-opacity: 0.5"/>
     <use xlink:href="#m6f8c41d46d" x="101.370836" y="91.386705" style="fill: #da2426; fill-opacity: 0.5; stroke: #da2426; stroke-opacity: 0.5"/>
     <use xlink:href="#m6f8c41d46d" x="68.159966" y="78.529043" style="fill: #da2426; fill-opacity: 0.5; stroke: #da2426; stroke-opacity: 0.5"/>
     <use xlink:href="#m6f8c41d46d" x="77.073007" y="86.846288" style="fill: #da2426; fill-opacity: 0.5; stroke: #da2426; stroke-opacity: 0.5"/>
     <use xlink:href="#m6f8c41d46d" x="83.265516" y="87.512253" style="fill: #da2426; fill-opacity: 0.5; stroke: #da2426; stroke-opacity: 0.5"/>
     <use xlink:href="#m6f8c41d46d" x="41.988401" y="85.253814" style="fill: #da2426; fill-opacity: 0.5; stroke: #da2426; stroke-opacity: 0.5"/>
     <use xlink:href="#m6f8c41d46d" x="66.569627" y="87.4151" style="fill: #da2426; fill-opacity: 0.5; stroke: #da2426; stroke-opacity: 0.5"/>
     <use xlink:href="#m6f8c41d46d" x="56.578181" y="76.736027" style="fill: #da2426; fill-opacity: 0.5; stroke: #da2426; stroke-opacity: 0.5"/>
     <use xlink:href="#m6f8c41d46d" x="45.766603" y="78.654224" style="fill: #da2426; fill-opacity: 0.5; stroke: #da2426; stroke-opacity: 0.5"/>
     <use xlink:href="#m6f8c41d46d" x="49.366259" y="75.720361" style="fill: #da2426; fill-opacity: 0.5; stroke: #da2426; stroke-opacity: 0.5"/>
     <use xlink:href="#m6f8c41d46d" x="52.762543" y="83.706572" style="fill: #da2426; fill-opacity: 0.5; stroke: #da2426; stroke-opacity: 0.5"/>
     <use xlink:href="#m6f8c41d46d" x="42.228187" y="89.946829" style="fill: #da2426; fill-opacity: 0.5; stroke: #da2426; stroke-opacity: 0.5"/>
     <use xlink:href="#m6f8c41d46d" x="62.662014" y="79.570674" style="fill: #da2426; fill-opacity: 0.5; stroke: #da2426; stroke-opacity: 0.5"/>
     <use xlink:href="#m6f8c41d46d" x="46.15704" y="89.784529" style="fill: #da2426; fill-opacity: 0.5; stroke: #da2426; stroke-opacity: 0.5"/>
     <use xlink:href="#m6f8c41d46d" x="44.120083" y="86.462237" style="fill: #da2426; fill-opacity: 0.5; stroke: #da2426; stroke-opacity: 0.5"/>
     <use xlink:href="#m6f8c41d46d" x="63.01232" y="87.590458" style="fill: #da2426; fill-opacity: 0.5; stroke: #da2426; stroke-opacity: 0.5"/>
     <use xlink:href="#m6f8c41d46d" x="57.291457" y="95.83037" style="fill: #da2426; fill-opacity: 0.5; stroke: #da2426; stroke-opacity: 0.5"/>
     <use xlink:href="#m6f8c41d46d" x="74.683403" y="87.498698" style="fill: #da2426; fill-opacity: 0.5; stroke: #da2426; stroke-opacity: 0.5"/>
     <use xlink:href="#m6f8c41d46d" x="54.923374" y="78.903211" style="fill: #da2426; fill-opacity: 0.5; stroke: #da2426; stroke-opacity: 0.5"/>
     <use xlink:href="#m6f8c41d46d" x="69.011661" y="83.751165" style="fill: #da2426; fill-opacity: 0.5; stroke: #da2426; stroke-opacity: 0.5"/>
     <use xlink:href="#m6f8c41d46d" x="83.278465" y="74.978998" style="fill: #da2426; fill-opacity: 0.5; stroke: #da2426; stroke-opacity: 0.5"/>
     <use xlink:href="#m6f8c41d46d" x="51.963518" y="78.785362" style="fill: #da2426; fill-opacity: 0.5; stroke: #da2426; stroke-opacity: 0.5"/>
     <use xlink:href="#m6f8c41d46d" x="78.943725" y="78.447772" style="fill: #da2426; fill-opacity: 0.5; stroke: #da2426; stroke-opacity: 0.5"/>
     <use xlink:href="#m6f8c41d46d" x="55.790135" y="89.913175" style="fill: #da2426; fill-opacity: 0.5; stroke: #da2426; stroke-opacity: 0.5"/>
     <use xlink:href="#m6f8c41d46d" x="60.449812" y="78.252908" style="fill: #da2426; fill-opacity: 0.5; stroke: #da2426; stroke-opacity: 0.5"/>
     <use xlink:href="#m6f8c41d46d" x="91.134191" y="84.190596" style="fill: #da2426; fill-opacity: 0.5; stroke: #da2426; stroke-opacity: 0.5"/>
     <use xlink:href="#m6f8c41d46d" x="75.586374" y="71.51146" style="fill: #da2426; fill-opacity: 0.5; stroke: #da2426; stroke-opacity: 0.5"/>
     <use xlink:href="#m6f8c41d46d" x="55.500806" y="85.708439" style="fill: #da2426; fill-opacity: 0.5; stroke: #da2426; stroke-opacity: 0.5"/>
     <use xlink:href="#m6f8c41d46d" x="76.768836" y="89.22185" style="fill: #da2426; fill-opacity: 0.5; stroke: #da2426; stroke-opacity: 0.5"/>
     <use xlink:href="#m6f8c41d46d" x="62.373393" y="84.137847" style="fill: #da2426; fill-opacity: 0.5; stroke: #da2426; stroke-opacity: 0.5"/>
     <use xlink:href="#m6f8c41d46d" x="50.506763" y="83.317171" style="fill: #da2426; fill-opacity: 0.5; stroke: #da2426; stroke-opacity: 0.5"/>
     <use xlink:href="#m6f8c41d46d" x="39.84508" y="113.718974" style="fill: #da2426; fill-opacity: 0.5; stroke: #da2426; stroke-opacity: 0.5"/>
     <use xlink:href="#m6f8c41d46d" x="52.738317" y="86.254101" style="fill: #da2426; fill-opacity: 0.5; stroke: #da2426; stroke-opacity: 0.5"/>
     <use xlink:href="#m6f8c41d46d" x="65.072771" y="74.888489" style="fill: #da2426; fill-opacity: 0.5; stroke: #da2426; stroke-opacity: 0.5"/>
     <use xlink:href="#m6f8c41d46d" x="44.402967" y="82.603403" style="fill: #da2426; fill-opacity: 0.5; stroke: #da2426; stroke-opacity: 0.5"/>
     <use xlink:href="#m6f8c41d46d" x="53.399093" y="77.003184" style="fill: #da2426; fill-opacity: 0.5; stroke: #da2426; stroke-opacity: 0.5"/>
     <use xlink:href="#m6f8c41d46d" x="48.785541" y="67.186396" style="fill: #da2426; fill-opacity: 0.5; stroke: #da2426; stroke-opacity: 0.5"/>
     <use xlink:href="#m6f8c41d46d" x="42.592379" y="81.495649" style="fill: #da2426; fill-opacity: 0.5; stroke: #da2426; stroke-opacity: 0.5"/>
     <use xlink:href="#m6f8c41d46d" x="47.826789" y="86.528734" style="fill: #da2426; fill-opacity: 0.5; stroke: #da2426; stroke-opacity: 0.5"/>
     <use xlink:href="#m6f8c41d46d" x="53.806387" y="85.489876" style="fill: #da2426; fill-opacity: 0.5; stroke: #da2426; stroke-opacity: 0.5"/>
     <use xlink:href="#m6f8c41d46d" x="66.88661" y="86.183546" style="fill: #da2426; fill-opacity: 0.5; stroke: #da2426; stroke-opacity: 0.5"/>
     <use xlink:href="#m6f8c41d46d" x="41.663243" y="87.979251" style="fill: #da2426; fill-opacity: 0.5; stroke: #da2426; stroke-opacity: 0.5"/>
     <use xlink:href="#m6f8c41d46d" x="79.941504" y="82.581703" style="fill: #da2426; fill-opacity: 0.5; stroke: #da2426; stroke-opacity: 0.5"/>
     <use xlink:href="#m6f8c41d46d" x="70.670632" y="98.095856" style="fill: #da2426; fill-opacity: 0.5; stroke: #da2426; stroke-opacity: 0.5"/>
     <use xlink:href="#m6f8c41d46d" x="54.936024" y="78.898155" style="fill: #da2426; fill-opacity: 0.5; stroke: #da2426; stroke-opacity: 0.5"/>
     <use xlink:href="#m6f8c41d46d" x="58.806387" y="89.875355" style="fill: #da2426; fill-opacity: 0.5; stroke: #da2426; stroke-opacity: 0.5"/>
     <use xlink:href="#m6f8c41d46d" x="48.690076" y="83.318456" style="fill: #da2426; fill-opacity: 0.5; stroke: #da2426; stroke-opacity: 0.5"/>
     <use xlink:href="#m6f8c41d46d" x="69.384816" y="82.867666" style="fill: #da2426; fill-opacity: 0.5; stroke: #da2426; stroke-opacity: 0.5"/>
     <use xlink:href="#m6f8c41d46d" x="80.213409" y="86.712034" style="fill: #da2426; fill-opacity: 0.5; stroke: #da2426; stroke-opacity: 0.5"/>
     <use xlink:href="#m6f8c41d46d" x="38.439485" y="84.733714" style="fill: #da2426; fill-opacity: 0.5; stroke: #da2426; stroke-opacity: 0.5"/>
     <use xlink:href="#m6f8c41d46d" x="61.32214" y="83.470192" style="fill: #da2426; fill-opacity: 0.5; stroke: #da2426; stroke-opacity: 0.5"/>
     <use xlink:href="#m6f8c41d46d" x="58.916803" y="92.970706" style="fill: #da2426; fill-opacity: 0.5; stroke: #da2426; stroke-opacity: 0.5"/>
     <use xlink:href="#m6f8c41d46d" x="52.058529" y="84.590031" style="fill: #da2426; fill-opacity: 0.5; stroke: #da2426; stroke-opacity: 0.5"/>
     <use xlink:href="#m6f8c41d46d" x="82.880835" y="77.417812" style="fill: #da2426; fill-opacity: 0.5; stroke: #da2426; stroke-opacity: 0.5"/>
     <use xlink:href="#m6f8c41d46d" x="70.125424" y="73.714197" style="fill: #da2426; fill-opacity: 0.5; stroke: #da2426; stroke-opacity: 0.5"/>
     <use xlink:href="#m6f8c41d46d" x="48.007556" y="88.726352" style="fill: #da2426; fill-opacity: 0.5; stroke: #da2426; stroke-opacity: 0.5"/>
     <use xlink:href="#m6f8c41d46d" x="56.279908" y="83.996626" style="fill: #da2426; fill-opacity: 0.5; stroke: #da2426; stroke-opacity: 0.5"/>
     <use xlink:href="#m6f8c41d46d" x="101.294538" y="88.498455" style="fill: #da2426; fill-opacity: 0.5; stroke: #da2426; stroke-opacity: 0.5"/>
     <use xlink:href="#m6f8c41d46d" x="63.574496" y="77.312744" style="fill: #da2426; fill-opacity: 0.5; stroke: #da2426; stroke-opacity: 0.5"/>
     <use xlink:href="#m6f8c41d46d" x="84.070932" y="84.214146" style="fill: #da2426; fill-opacity: 0.5; stroke: #da2426; stroke-opacity: 0.5"/>
     <use xlink:href="#m6f8c41d46d" x="72.589015" y="96.000791" style="fill: #da2426; fill-opacity: 0.5; stroke: #da2426; stroke-opacity: 0.5"/>
     <use xlink:href="#m6f8c41d46d" x="30.431678" y="100.375118" style="fill: #da2426; fill-opacity: 0.5; stroke: #da2426; stroke-opacity: 0.5"/>
     <use xlink:href="#m6f8c41d46d" x="63.477924" y="93.322776" style="fill: #da2426; fill-opacity: 0.5; stroke: #da2426; stroke-opacity: 0.5"/>
     <use xlink:href="#m6f8c41d46d" x="71.913145" y="81.730111" style="fill: #da2426; fill-opacity: 0.5; stroke: #da2426; stroke-opacity: 0.5"/>
     <use xlink:href="#m6f8c41d46d" x="92.84867" y="89.364669" style="fill: #da2426; fill-opacity: 0.5; stroke: #da2426; stroke-opacity: 0.5"/>
     <use xlink:href="#m6f8c41d46d" x="45.814174" y="76.314602" style="fill: #da2426; fill-opacity: 0.5; stroke: #da2426; stroke-opacity: 0.5"/>
     <use xlink:href="#m6f8c41d46d" x="48.457421" y="84.952002" style="fill: #da2426; fill-opacity: 0.5; stroke: #da2426; stroke-opacity: 0.5"/>
     <use xlink:href="#m6f8c41d46d" x="89.143474" y="87.028779" style="fill: #da2426; fill-opacity: 0.5; stroke: #da2426; stroke-opacity: 0.5"/>
     <use xlink:href="#m6f8c41d46d" x="63.69947" y="89.336952" style="fill: #da2426; fill-opacity: 0.5; stroke: #da2426; stroke-opacity: 0.5"/>
     <use xlink:href="#m6f8c41d46d" x="27.394149" y="75.719174" style="fill: #da2426; fill-opacity: 0.5; stroke: #da2426; stroke-opacity: 0.5"/>
     <use xlink:href="#m6f8c41d46d" x="75.638811" y="93.372172" style="fill: #da2426; fill-opacity: 0.5; stroke: #da2426; stroke-opacity: 0.5"/>
     <use xlink:href="#m6f8c41d46d" x="77.131386" y="86.368952" style="fill: #da2426; fill-opacity: 0.5; stroke: #da2426; stroke-opacity: 0.5"/>
     <use xlink:href="#m6f8c41d46d" x="81.145941" y="99.843934" style="fill: #da2426; fill-opacity: 0.5; stroke: #da2426; stroke-opacity: 0.5"/>
     <use xlink:href="#m6f8c41d46d" x="66.725349" y="79.795127" style="fill: #da2426; fill-opacity: 0.5; stroke: #da2426; stroke-opacity: 0.5"/>
     <use xlink:href="#m6f8c41d46d" x="57.44414" y="76.69802" style="fill: #da2426; fill-opacity: 0.5; stroke: #da2426; stroke-opacity: 0.5"/>
     <use xlink:href="#m6f8c41d46d" x="80.118856" y="95.553489" style="fill: #da2426; fill-opacity: 0.5; stroke: #da2426; stroke-opacity: 0.5"/>
     <use xlink:href="#m6f8c41d46d" x="57.49587" y="71.511742" style="fill: #da2426; fill-opacity: 0.5; stroke: #da2426; stroke-opacity: 0.5"/>
     <use xlink:href="#m6f8c41d46d" x="61.755537" y="63.7267" style="fill: #da2426; fill-opacity: 0.5; stroke: #da2426; stroke-opacity: 0.5"/>
     <use xlink:href="#m6f8c41d46d" x="69.845245" y="72.652108" style="fill: #da2426; fill-opacity: 0.5; stroke: #da2426; stroke-opacity: 0.5"/>
     <use xlink:href="#m6f8c41d46d" x="51.912227" y="90.309566" style="fill: #da2426; fill-opacity: 0.5; stroke: #da2426; stroke-opacity: 0.5"/>
     <use xlink:href="#m6f8c41d46d" x="67.743764" y="91.230437" style="fill: #da2426; fill-opacity: 0.5; stroke: #da2426; stroke-opacity: 0.5"/>
     <use xlink:href="#m6f8c41d46d" x="55.481763" y="84.141587" style="fill: #da2426; fill-opacity: 0.5; stroke: #da2426; stroke-opacity: 0.5"/>
     <use xlink:href="#m6f8c41d46d" x="8.770686" y="94.769217" style="fill: #da2426; fill-opacity: 0.5; stroke: #da2426; stroke-opacity: 0.5"/>
     <use xlink:href="#m6f8c41d46d" x="39.830348" y="83.724481" style="fill: #da2426; fill-opacity: 0.5; stroke: #da2426; stroke-opacity: 0.5"/>
     <use xlink:href="#m6f8c41d46d" x="50.559657" y="84.469126" style="fill: #da2426; fill-opacity: 0.5; stroke: #da2426; stroke-opacity: 0.5"/>
     <use xlink:href="#m6f8c41d46d" x="38.853508" y="82.885915" style="fill: #da2426; fill-opacity: 0.5; stroke: #da2426; stroke-opacity: 0.5"/>
     <use xlink:href="#m6f8c41d46d" x="41.256212" y="100.768029" style="fill: #da2426; fill-opacity: 0.5; stroke: #da2426; stroke-opacity: 0.5"/>
     <use xlink:href="#m6f8c41d46d" x="62.775341" y="79.986255" style="fill: #da2426; fill-opacity: 0.5; stroke: #da2426; stroke-opacity: 0.5"/>
     <use xlink:href="#m6f8c41d46d" x="57.401448" y="80.221121" style="fill: #da2426; fill-opacity: 0.5; stroke: #da2426; stroke-opacity: 0.5"/>
     <use xlink:href="#m6f8c41d46d" x="77.118785" y="99.212058" style="fill: #da2426; fill-opacity: 0.5; stroke: #da2426; stroke-opacity: 0.5"/>
     <use xlink:href="#m6f8c41d46d" x="71.278335" y="82.102017" style="fill: #da2426; fill-opacity: 0.5; stroke: #da2426; stroke-opacity: 0.5"/>
     <use xlink:href="#m6f8c41d46d" x="69.536836" y="86.231713" style="fill: #da2426; fill-opacity: 0.5; stroke: #da2426; stroke-opacity: 0.5"/>
     <use xlink:href="#m6f8c41d46d" x="53.512045" y="84.32823" style="fill: #da2426; fill-opacity: 0.5; stroke: #da2426; stroke-opacity: 0.5"/>
     <use xlink:href="#m6f8c41d46d" x="55.620554" y="82.644658" style="fill: #da2426; fill-opacity: 0.5; stroke: #da2426; stroke-opacity: 0.5"/>
     <use xlink:href="#m6f8c41d46d" x="51.305759" y="87.670445" style="fill: #da2426; fill-opacity: 0.5; stroke: #da2426; stroke-opacity: 0.5"/>
     <use xlink:href="#m6f8c41d46d" x="68.863452" y="92.207469" style="fill: #da2426; fill-opacity: 0.5; stroke: #da2426; stroke-opacity: 0.5"/>
     <use xlink:href="#m6f8c41d46d" x="77.761879" y="92.463905" style="fill: #da2426; fill-opacity: 0.5; stroke: #da2426; stroke-opacity: 0.5"/>
     <use xlink:href="#m6f8c41d46d" x="76.633459" y="86.223205" style="fill: #da2426; fill-opacity: 0.5; stroke: #da2426; stroke-opacity: 0.5"/>
     <use xlink:href="#m6f8c41d46d" x="58.24532" y="91.119006" style="fill: #da2426; fill-opacity: 0.5; stroke: #da2426; stroke-opacity: 0.5"/>
     <use xlink:href="#m6f8c41d46d" x="50.554124" y="86.895413" style="fill: #da2426; fill-opacity: 0.5; stroke: #da2426; stroke-opacity: 0.5"/>
     <use xlink:href="#m6f8c41d46d" x="66.305372" y="77.68706" style="fill: #da2426; fill-opacity: 0.5; stroke: #da2426; stroke-opacity: 0.5"/>
     <use xlink:href="#m6f8c41d46d" x="86.699527" y="92.48557" style="fill: #da2426; fill-opacity: 0.5; stroke: #da2426; stroke-opacity: 0.5"/>
     <use xlink:href="#m6f8c41d46d" x="34.010171" y="76.249655" style="fill: #da2426; fill-opacity: 0.5; stroke: #da2426; stroke-opacity: 0.5"/>
     <use xlink:href="#m6f8c41d46d" x="51.436559" y="93.490259" style="fill: #da2426; fill-opacity: 0.5; stroke: #da2426; stroke-opacity: 0.5"/>
     <use xlink:href="#m6f8c41d46d" x="54.161456" y="83.749247" style="fill: #da2426; fill-opacity: 0.5; stroke: #da2426; stroke-opacity: 0.5"/>
     <use xlink:href="#m6f8c41d46d" x="50.063391" y="83.299744" style="fill: #da2426; fill-opacity: 0.5; stroke: #da2426; stroke-opacity: 0.5"/>
     <use xlink:href="#m6f8c41d46d" x="34.65846" y="98.6204" style="fill: #da2426; fill-opacity: 0.5; stroke: #da2426; stroke-opacity: 0.5"/>
     <use xlink:href="#m6f8c41d46d" x="68.95118" y="83.104192" style="fill: #da2426; fill-opacity: 0.5; stroke: #da2426; stroke-opacity: 0.5"/>
     <use xlink:href="#m6f8c41d46d" x="59.309662" y="78.756169" style="fill: #da2426; fill-opacity: 0.5; stroke: #da2426; stroke-opacity: 0.5"/>
     <use xlink:href="#m6f8c41d46d" x="57.932879" y="86.156392" style="fill: #da2426; fill-opacity: 0.5; stroke: #da2426; stroke-opacity: 0.5"/>
     <use xlink:href="#m6f8c41d46d" x="53.805912" y="77.139768" style="fill: #da2426; fill-opacity: 0.5; stroke: #da2426; stroke-opacity: 0.5"/>
     <use xlink:href="#m6f8c41d46d" x="48.962665" y="81.426387" style="fill: #da2426; fill-opacity: 0.5; stroke: #da2426; stroke-opacity: 0.5"/>
     <use xlink:href="#m6f8c41d46d" x="44.29956" y="81.838004" style="fill: #da2426; fill-opacity: 0.5; stroke: #da2426; stroke-opacity: 0.5"/>
     <use xlink:href="#m6f8c41d46d" x="43.85525" y="82.179814" style="fill: #da2426; fill-opacity: 0.5; stroke: #da2426; stroke-opacity: 0.5"/>
     <use xlink:href="#m6f8c41d46d" x="69.419336" y="89.666995" style="fill: #da2426; fill-opacity: 0.5; stroke: #da2426; stroke-opacity: 0.5"/>
     <use xlink:href="#m6f8c41d46d" x="75.85895" y="83.538143" style="fill: #da2426; fill-opacity: 0.5; stroke: #da2426; stroke-opacity: 0.5"/>
     <use xlink:href="#m6f8c41d46d" x="67.079312" y="79.1771" style="fill: #da2426; fill-opacity: 0.5; stroke: #da2426; stroke-opacity: 0.5"/>
     <use xlink:href="#m6f8c41d46d" x="66.150497" y="88.473162" style="fill: #da2426; fill-opacity: 0.5; stroke: #da2426; stroke-opacity: 0.5"/>
     <use xlink:href="#m6f8c41d46d" x="93.707962" y="92.000216" style="fill: #da2426; fill-opacity: 0.5; stroke: #da2426; stroke-opacity: 0.5"/>
     <use xlink:href="#m6f8c41d46d" x="57.047095" y="97.527393" style="fill: #da2426; fill-opacity: 0.5; stroke: #da2426; stroke-opacity: 0.5"/>
     <use xlink:href="#m6f8c41d46d" x="46.04447" y="83.145815" style="fill: #da2426; fill-opacity: 0.5; stroke: #da2426; stroke-opacity: 0.5"/>
     <use xlink:href="#m6f8c41d46d" x="50.139665" y="80.012855" style="fill: #da2426; fill-opacity: 0.5; stroke: #da2426; stroke-opacity: 0.5"/>
     <use xlink:href="#m6f8c41d46d" x="64.077182" y="83.236055" style="fill: #da2426; fill-opacity: 0.5; stroke: #da2426; stroke-opacity: 0.5"/>
     <use xlink:href="#m6f8c41d46d" x="70.134917" y="84.920654" style="fill: #da2426; fill-opacity: 0.5; stroke: #da2426; stroke-opacity: 0.5"/>
     <use xlink:href="#m6f8c41d46d" x="79.1469" y="80.691152" style="fill: #da2426; fill-opacity: 0.5; stroke: #da2426; stroke-opacity: 0.5"/>
     <use xlink:href="#m6f8c41d46d" x="59.043753" y="89.603466" style="fill: #da2426; fill-opacity: 0.5; stroke: #da2426; stroke-opacity: 0.5"/>
     <use xlink:href="#m6f8c41d46d" x="47.840339" y="99.641516" style="fill: #da2426; fill-opacity: 0.5; stroke: #da2426; stroke-opacity: 0.5"/>
     <use xlink:href="#m6f8c41d46d" x="67.138511" y="74.792247" style="fill: #da2426; fill-opacity: 0.5; stroke: #da2426; stroke-opacity: 0.5"/>
     <use xlink:href="#m6f8c41d46d" x="66.729514" y="85.404647" style="fill: #da2426; fill-opacity: 0.5; stroke: #da2426; stroke-opacity: 0.5"/>
     <use xlink:href="#m6f8c41d46d" x="56.523236" y="80.501838" style="fill: #da2426; fill-opacity: 0.5; stroke: #da2426; stroke-opacity: 0.5"/>
     <use xlink:href="#m6f8c41d46d" x="56.666498" y="93.344801" style="fill: #da2426; fill-opacity: 0.5; stroke: #da2426; stroke-opacity: 0.5"/>
     <use xlink:href="#m6f8c41d46d" x="54.495075" y="91.401066" style="fill: #da2426; fill-opacity: 0.5; stroke: #da2426; stroke-opacity: 0.5"/>
     <use xlink:href="#m6f8c41d46d" x="76.271682" y="85.750745" style="fill: #da2426; fill-opacity: 0.5; stroke: #da2426; stroke-opacity: 0.5"/>
     <use xlink:href="#m6f8c41d46d" x="58.083062" y="85.515339" style="fill: #da2426; fill-opacity: 0.5; stroke: #da2426; stroke-opacity: 0.5"/>
    </g>
   </g>
   <g id="PathCollection_2">
    <defs>
     <path id="m9876e6808f" d="M -5 0 
L 5 0 
M 0 5 
L 0 -5 
" style="stroke: #ff0000; stroke-width: 1.5"/>
    </defs>
    <g clip-path="url(#p00e91a715a)">
     <use xlink:href="#m9876e6808f" x="61.2" y="82.8" style="fill: #ff0000; stroke: #ff0000; stroke-width: 1.5"/>
    </g>
   </g>
   <g id="PathCollection_3">
    <defs>
     <path id="m4c1832de0d" d="M -0 3.535534 
L 3.535534 0 
L 0 -3.535534 
L -3.535534 -0 
z
" style="stroke: #000000"/>
    </defs>
    <g clip-path="url(#p00e91a715a)">
     <use xlink:href="#m4c1832de0d" x="60.492038" y="85.300012" style="stroke: #000000"/>
    </g>
   </g>
   <g id="matplotlib.axis_1">
    <g id="xtick_1">
     <g id="line2d_1">
      <defs>
       <path id="mf47fa2212c" d="M 0 0 
L 0 3.5 
" style="stroke: #000000; stroke-width: 0.8"/>
      </defs>
      <g>
       <use xlink:href="#mf47fa2212c" x="23.76" y="129.6" style="stroke: #000000; stroke-width: 0.8"/>
      </g>
     </g>
     <g id="text_1">
      <!-- −2 -->
      <g transform="translate(16.388906 144.198438)scale(0.1 -0.1)">
       <defs>
        <path id="DejaVuSans-2212" d="M 678 2272 
L 4684 2272 
L 4684 1741 
L 678 1741 
L 678 2272 
z
" transform="scale(0.015625)"/>
        <path id="DejaVuSans-32" d="M 1228 531 
L 3431 531 
L 3431 0 
L 469 0 
L 469 531 
Q 828 903 1448 1529 
Q 2069 2156 2228 2338 
Q 2531 2678 2651 2914 
Q 2772 3150 2772 3378 
Q 2772 3750 2511 3984 
Q 2250 4219 1831 4219 
Q 1534 4219 1204 4116 
Q 875 4013 500 3803 
L 500 4441 
Q 881 4594 1212 4672 
Q 1544 4750 1819 4750 
Q 2544 4750 2975 4387 
Q 3406 4025 3406 3419 
Q 3406 3131 3298 2873 
Q 3191 2616 2906 2266 
Q 2828 2175 2409 1742 
Q 1991 1309 1228 531 
z
" transform="scale(0.015625)"/>
       </defs>
       <use xlink:href="#DejaVuSans-2212"/>
       <use xlink:href="#DejaVuSans-32" x="83.789062"/>
      </g>
     </g>
    </g>
    <g id="xtick_2">
     <g id="line2d_2">
      <g>
       <use xlink:href="#mf47fa2212c" x="61.2" y="129.6" style="stroke: #000000; stroke-width: 0.8"/>
      </g>
     </g>
     <g id="text_2">
      <!-- 0 -->
      <g transform="translate(58.01875 144.198438)scale(0.1 -0.1)">
       <defs>
        <path id="DejaVuSans-30" d="M 2034 4250 
Q 1547 4250 1301 3770 
Q 1056 3291 1056 2328 
Q 1056 1369 1301 889 
Q 1547 409 2034 409 
Q 2525 409 2770 889 
Q 3016 1369 3016 2328 
Q 3016 3291 2770 3770 
Q 2525 4250 2034 4250 
z
M 2034 4750 
Q 2819 4750 3233 4129 
Q 3647 3509 3647 2328 
Q 3647 1150 3233 529 
Q 2819 -91 2034 -91 
Q 1250 -91 836 529 
Q 422 1150 422 2328 
Q 422 3509 836 4129 
Q 1250 4750 2034 4750 
z
" transform="scale(0.015625)"/>
       </defs>
       <use xlink:href="#DejaVuSans-30"/>
      </g>
     </g>
    </g>
    <g id="xtick_3">
     <g id="line2d_3">
      <g>
       <use xlink:href="#mf47fa2212c" x="98.64" y="129.6" style="stroke: #000000; stroke-width: 0.8"/>
      </g>
     </g>
     <g id="text_3">
      <!-- 2 -->
      <g transform="translate(95.45875 144.198438)scale(0.1 -0.1)">
       <use xlink:href="#DejaVuSans-32"/>
      </g>
     </g>
    </g>
    <g id="text_4">
     <!-- x (m) -->
     <g transform="translate(47.879687 157.876563)scale(0.1 -0.1)">
      <defs>
       <path id="DejaVuSans-78" d="M 3513 3500 
L 2247 1797 
L 3578 0 
L 2900 0 
L 1881 1375 
L 863 0 
L 184 0 
L 1544 1831 
L 300 3500 
L 978 3500 
L 1906 2253 
L 2834 3500 
L 3513 3500 
z
" transform="scale(0.015625)"/>
       <path id="DejaVuSans-20" transform="scale(0.015625)"/>
       <path id="DejaVuSans-28" d="M 1984 4856 
Q 1566 4138 1362 3434 
Q 1159 2731 1159 2009 
Q 1159 1288 1364 580 
Q 1569 -128 1984 -844 
L 1484 -844 
Q 1016 -109 783 600 
Q 550 1309 550 2009 
Q 550 2706 781 3412 
Q 1013 4119 1484 4856 
L 1984 4856 
z
" transform="scale(0.015625)"/>
       <path id="DejaVuSans-6d" d="M 3328 2828 
Q 3544 3216 3844 3400 
Q 4144 3584 4550 3584 
Q 5097 3584 5394 3201 
Q 5691 2819 5691 2113 
L 5691 0 
L 5113 0 
L 5113 2094 
Q 5113 2597 4934 2840 
Q 4756 3084 4391 3084 
Q 3944 3084 3684 2787 
Q 3425 2491 3425 1978 
L 3425 0 
L 2847 0 
L 2847 2094 
Q 2847 2600 2669 2842 
Q 2491 3084 2119 3084 
Q 1678 3084 1418 2786 
Q 1159 2488 1159 1978 
L 1159 0 
L 581 0 
L 581 3500 
L 1159 3500 
L 1159 2956 
Q 1356 3278 1631 3431 
Q 1906 3584 2284 3584 
Q 2666 3584 2933 3390 
Q 3200 3197 3328 2828 
z
" transform="scale(0.015625)"/>
       <path id="DejaVuSans-29" d="M 513 4856 
L 1013 4856 
Q 1481 4119 1714 3412 
Q 1947 2706 1947 2009 
Q 1947 1309 1714 600 
Q 1481 -109 1013 -844 
L 513 -844 
Q 928 -128 1133 580 
Q 1338 1288 1338 2009 
Q 1338 2731 1133 3434 
Q 928 4138 513 4856 
z
" transform="scale(0.015625)"/>
      </defs>
      <use xlink:href="#DejaVuSans-78"/>
      <use xlink:href="#DejaVuSans-20" x="59.179688"/>
      <use xlink:href="#DejaVuSans-28" x="90.966797"/>
      <use xlink:href="#DejaVuSans-6d" x="129.980469"/>
      <use xlink:href="#DejaVuSans-29" x="227.392578"/>
     </g>
    </g>
   </g>
   <g id="matplotlib.axis_2">
    <g id="ytick_1">
     <g id="line2d_4">
      <defs>
       <path id="m86bba38d31" d="M 0 0 
L -3.5 0 
" style="stroke: #000000; stroke-width: 0.8"/>
      </defs>
      <g>
       <use xlink:href="#m86bba38d31" x="14.4" y="120.24" style="stroke: #000000; stroke-width: 0.8"/>
      </g>
     </g>
     <g id="text_5">
      <!-- −2 -->
      <g transform="translate(-7.342187 124.039219)scale(0.1 -0.1)">
       <use xlink:href="#DejaVuSans-2212"/>
       <use xlink:href="#DejaVuSans-32" x="83.789062"/>
      </g>
     </g>
    </g>
    <g id="ytick_2">
     <g id="line2d_5">
      <g>
       <use xlink:href="#m86bba38d31" x="14.4" y="82.8" style="stroke: #000000; stroke-width: 0.8"/>
      </g>
     </g>
     <g id="text_6">
      <!-- 0 -->
      <g transform="translate(1.0375 86.599219)scale(0.1 -0.1)">
       <use xlink:href="#DejaVuSans-30"/>
      </g>
     </g>
    </g>
    <g id="ytick_3">
     <g id="line2d_6">
      <g>
       <use xlink:href="#m86bba38d31" x="14.4" y="45.36" style="stroke: #000000; stroke-width: 0.8"/>
      </g>
     </g>
     <g id="text_7">
      <!-- 2 -->
      <g transform="translate(1.0375 49.159219)scale(0.1 -0.1)">
       <use xlink:href="#DejaVuSans-32"/>
      </g>
     </g>
    </g>
    <g id="text_8">
     <!-- y (m) -->
     <g transform="translate(-13.421875 96.120313)rotate(-90)scale(0.1 -0.1)">
      <defs>
       <path id="DejaVuSans-79" d="M 2059 -325 
Q 1816 -950 1584 -1140 
Q 1353 -1331 966 -1331 
L 506 -1331 
L 506 -850 
L 844 -850 
Q 1081 -850 1212 -737 
Q 1344 -625 1503 -206 
L 1606 56 
L 191 3500 
L 800 3500 
L 1894 763 
L 2988 3500 
L 3597 3500 
L 2059 -325 
z
" transform="scale(0.015625)"/>
      </defs>
      <use xlink:href="#DejaVuSans-79"/>
      <use xlink:href="#DejaVuSans-20" x="59.179688"/>
      <use xlink:href="#DejaVuSans-28" x="90.966797"/>
      <use xlink:href="#DejaVuSans-6d" x="129.980469"/>
      <use xlink:href="#DejaVuSans-29" x="227.392578"/>
     </g>
    </g>
   </g>
   <g id="patch_3">
    <path d="M 14.4 129.6 
L 14.4 36 
" style="fill: none; stroke: #000000; stroke-width: 0.8; stroke-linejoin: miter; stroke-linecap: square"/>
   </g>
   <g id="patch_4">
    <path d="M 108 129.6 
L 108 36 
" style="fill: none; stroke: #000000; stroke-width: 0.8; stroke-linejoin: miter; stroke-linecap: square"/>
   </g>
   <g id="patch_5">
    <path d="M 14.4 129.6 
L 108 129.6 
" style="fill: none; stroke: #000000; stroke-width: 0.8; stroke-linejoin: miter; stroke-linecap: square"/>
   </g>
   <g id="patch_6">
    <path d="M 14.4 36 
L 108 36 
" style="fill: none; stroke: #000000; stroke-width: 0.8; stroke-linejoin: miter; stroke-linecap: square"/>
   </g>
  </g>
  <g id="axes_2">
   <g id="patch_7">
    <path d="M 14.4 33.12 
L 108 33.12 
L 108 4.32 
L 14.4 4.32 
z
" style="fill: #ffffff"/>
   </g>
   <g id="patch_8">
    <path d="M 14.4 33.12 
L 19.08 33.12 
L 19.08 33.12 
L 14.4 33.12 
z
" clip-path="url(#p22d2e1c1d8)" style="fill: #da2426"/>
   </g>
   <g id="patch_9">
    <path d="M 19.08 33.12 
L 23.76 33.12 
L 23.76 33.12 
L 19.08 33.12 
z
" clip-path="url(#p22d2e1c1d8)" style="fill: #da2426"/>
   </g>
   <g id="patch_10">
    <path d="M 23.76 33.12 
L 28.44 33.12 
L 28.44 32.16 
L 23.76 32.16 
z
" clip-path="url(#p22d2e1c1d8)" style="fill: #da2426"/>
   </g>
   <g id="patch_11">
    <path d="M 28.44 33.12 
L 33.12 33.12 
L 33.12 31.2 
L 28.44 31.2 
z
" clip-path="url(#p22d2e1c1d8)" style="fill: #da2426"/>
   </g>
   <g id="patch_12">
    <path d="M 33.12 33.12 
L 37.8 33.12 
L 37.8 31.2 
L 33.12 31.2 
z
" clip-path="url(#p22d2e1c1d8)" style="fill: #da2426"/>
   </g>
   <g id="patch_13">
    <path d="M 37.8 33.12 
L 42.48 33.12 
L 42.48 25.44 
L 37.8 25.44 
z
" clip-path="url(#p22d2e1c1d8)" style="fill: #da2426"/>
   </g>
   <g id="patch_14">
    <path d="M 42.48 33.12 
L 47.16 33.12 
L 47.16 22.56 
L 42.48 22.56 
z
" clip-path="url(#p22d2e1c1d8)" style="fill: #da2426"/>
   </g>
   <g id="patch_15">
    <path d="M 47.16 33.12 
L 51.84 33.12 
L 51.84 14.88 
L 47.16 14.88 
z
" clip-path="url(#p22d2e1c1d8)" style="fill: #da2426"/>
   </g>
   <g id="patch_16">
    <path d="M 51.84 33.12 
L 56.52 33.12 
L 56.52 13.92 
L 51.84 13.92 
z
" clip-path="url(#p22d2e1c1d8)" style="fill: #da2426"/>
   </g>
   <g id="patch_17">
    <path d="M 56.52 33.12 
L 61.2 33.12 
L 61.2 17.76 
L 56.52 17.76 
z
" clip-path="url(#p22d2e1c1d8)" style="fill: #da2426"/>
   </g>
   <g id="patch_18">
    <path d="M 61.2 33.12 
L 65.88 33.12 
L 65.88 21.6 
L 61.2 21.6 
z
" clip-path="url(#p22d2e1c1d8)" style="fill: #da2426"/>
   </g>
   <g id="patch_19">
    <path d="M 65.88 33.12 
L 70.56 33.12 
L 70.56 13.92 
L 65.88 13.92 
z
" clip-path="url(#p22d2e1c1d8)" style="fill: #da2426"/>
   </g>
   <g id="patch_20">
    <path d="M 70.56 33.12 
L 75.24 33.12 
L 75.24 27.36 
L 70.56 27.36 
z
" clip-path="url(#p22d2e1c1d8)" style="fill: #da2426"/>
   </g>
   <g id="patch_21">
    <path d="M 75.24 33.12 
L 79.92 33.12 
L 79.92 21.6 
L 75.24 21.6 
z
" clip-path="url(#p22d2e1c1d8)" style="fill: #da2426"/>
   </g>
   <g id="patch_22">
    <path d="M 79.92 33.12 
L 84.6 33.12 
L 84.6 25.44 
L 79.92 25.44 
z
" clip-path="url(#p22d2e1c1d8)" style="fill: #da2426"/>
   </g>
   <g id="patch_23">
    <path d="M 84.6 33.12 
L 89.28 33.12 
L 89.28 31.2 
L 84.6 31.2 
z
" clip-path="url(#p22d2e1c1d8)" style="fill: #da2426"/>
   </g>
   <g id="patch_24">
    <path d="M 89.28 33.12 
L 93.96 33.12 
L 93.96 30.24 
L 89.28 30.24 
z
" clip-path="url(#p22d2e1c1d8)" style="fill: #da2426"/>
   </g>
   <g id="patch_25">
    <path d="M 93.96 33.12 
L 98.64 33.12 
L 98.64 33.12 
L 93.96 33.12 
z
" clip-path="url(#p22d2e1c1d8)" style="fill: #da2426"/>
   </g>
   <g id="patch_26">
    <path d="M 98.64 33.12 
L 103.32 33.12 
L 103.32 30.24 
L 98.64 30.24 
z
" clip-path="url(#p22d2e1c1d8)" style="fill: #da2426"/>
   </g>
   <g id="patch_27">
    <path d="M 103.32 33.12 
L 108 33.12 
L 108 33.12 
L 103.32 33.12 
z
" clip-path="url(#p22d2e1c1d8)" style="fill: #da2426"/>
   </g>
   <g id="matplotlib.axis_3">
    <g id="xtick_4">
     <g id="line2d_7">
      <g>
       <use xlink:href="#mf47fa2212c" x="23.76" y="33.12" style="stroke: #000000; stroke-width: 0.8"/>
      </g>
     </g>
    </g>
    <g id="xtick_5">
     <g id="line2d_8">
      <g>
       <use xlink:href="#mf47fa2212c" x="61.2" y="33.12" style="stroke: #000000; stroke-width: 0.8"/>
      </g>
     </g>
    </g>
    <g id="xtick_6">
     <g id="line2d_9">
      <g>
       <use xlink:href="#mf47fa2212c" x="98.64" y="33.12" style="stroke: #000000; stroke-width: 0.8"/>
      </g>
     </g>
    </g>
   </g>
   <g id="matplotlib.axis_4">
    <g id="ytick_4">
     <g id="line2d_10">
      <g>
       <use xlink:href="#m86bba38d31" x="14.4" y="33.12" style="stroke: #000000; stroke-width: 0.8"/>
      </g>
     </g>
     <g id="text_9">
      <!-- 0 -->
      <g transform="translate(1.0375 36.919219)scale(0.1 -0.1)">
       <use xlink:href="#DejaVuSans-30"/>
      </g>
     </g>
    </g>
    <g id="ytick_5">
     <g id="line2d_11">
      <g>
       <use xlink:href="#m86bba38d31" x="14.4" y="9.12" style="stroke: #000000; stroke-width: 0.8"/>
      </g>
     </g>
     <g id="text_10">
      <!-- 25 -->
      <g transform="translate(-5.325 12.919219)scale(0.1 -0.1)">
       <defs>
        <path id="DejaVuSans-35" d="M 691 4666 
L 3169 4666 
L 3169 4134 
L 1269 4134 
L 1269 2991 
Q 1406 3038 1543 3061 
Q 1681 3084 1819 3084 
Q 2600 3084 3056 2656 
Q 3513 2228 3513 1497 
Q 3513 744 3044 326 
Q 2575 -91 1722 -91 
Q 1428 -91 1123 -41 
Q 819 9 494 109 
L 494 744 
Q 775 591 1075 516 
Q 1375 441 1709 441 
Q 2250 441 2565 725 
Q 2881 1009 2881 1497 
Q 2881 1984 2565 2268 
Q 2250 2553 1709 2553 
Q 1456 2553 1204 2497 
Q 953 2441 691 2322 
L 691 4666 
z
" transform="scale(0.015625)"/>
       </defs>
       <use xlink:href="#DejaVuSans-32"/>
       <use xlink:href="#DejaVuSans-35" x="63.623047"/>
      </g>
     </g>
    </g>
   </g>
   <g id="line2d_12">
    <path d="M 61.2 33.12 
L 61.2 4.32 
" clip-path="url(#p22d2e1c1d8)" style="fill: none; stroke: #ff0000; stroke-width: 1.5; stroke-linecap: square"/>
   </g>
   <g id="patch_28">
    <path d="M 14.4 33.12 
L 14.4 4.32 
" style="fill: none; stroke: #000000; stroke-width: 0.8; stroke-linejoin: miter; stroke-linecap: square"/>
   </g>
   <g id="patch_29">
    <path d="M 14.4 33.12 
L 108 33.12 
" style="fill: none; stroke: #000000; stroke-width: 0.8; stroke-linejoin: miter; stroke-linecap: square"/>
   </g>
  </g>
  <g id="axes_3">
   <g id="patch_30">
    <path d="M 110.88 129.6 
L 139.68 129.6 
L 139.68 36 
L 110.88 36 
z
" style="fill: #ffffff"/>
   </g>
   <g id="patch_31">
    <path d="M 110.88 129.6 
L 110.88 129.6 
L 110.88 124.92 
L 110.88 124.92 
z
" clip-path="url(#p657dc3147d)" style="fill: #da2426"/>
   </g>
   <g id="patch_32">
    <path d="M 110.88 124.92 
L 110.88 124.92 
L 110.88 120.24 
L 110.88 120.24 
z
" clip-path="url(#p657dc3147d)" style="fill: #da2426"/>
   </g>
   <g id="patch_33">
    <path d="M 110.88 120.24 
L 110.88 120.24 
L 110.88 115.56 
L 110.88 115.56 
z
" clip-path="url(#p657dc3147d)" style="fill: #da2426"/>
   </g>
   <g id="patch_34">
    <path d="M 110.88 115.56 
L 111.84 115.56 
L 111.84 110.88 
L 110.88 110.88 
z
" clip-path="url(#p657dc3147d)" style="fill: #da2426"/>
   </g>
   <g id="patch_35">
    <path d="M 110.88 110.88 
L 111.84 110.88 
L 111.84 106.2 
L 110.88 106.2 
z
" clip-path="url(#p657dc3147d)" style="fill: #da2426"/>
   </g>
   <g id="patch_36">
    <path d="M 110.88 106.2 
L 110.88 106.2 
L 110.88 101.52 
L 110.88 101.52 
z
" clip-path="url(#p657dc3147d)" style="fill: #da2426"/>
   </g>
   <g id="patch_37">
    <path d="M 110.88 101.52 
L 118.56 101.52 
L 118.56 96.84 
L 110.88 96.84 
z
" clip-path="url(#p657dc3147d)" style="fill: #da2426"/>
   </g>
   <g id="patch_38">
    <path d="M 110.88 96.84 
L 124.32 96.84 
L 124.32 92.16 
L 110.88 92.16 
z
" clip-path="url(#p657dc3147d)" style="fill: #da2426"/>
   </g>
   <g id="patch_39">
    <path d="M 110.88 92.16 
L 134.88 92.16 
L 134.88 87.48 
L 110.88 87.48 
z
" clip-path="url(#p657dc3147d)" style="fill: #da2426"/>
   </g>
   <g id="patch_40">
    <path d="M 110.88 87.48 
L 156.96 87.48 
L 156.96 82.8 
L 110.88 82.8 
z
" clip-path="url(#p657dc3147d)" style="fill: #da2426"/>
   </g>
   <g id="patch_41">
    <path d="M 110.88 82.8 
L 137.76 82.8 
L 137.76 78.12 
L 110.88 78.12 
z
" clip-path="url(#p657dc3147d)" style="fill: #da2426"/>
   </g>
   <g id="patch_42">
    <path d="M 110.88 78.12 
L 126.24 78.12 
L 126.24 73.44 
L 110.88 73.44 
z
" clip-path="url(#p657dc3147d)" style="fill: #da2426"/>
   </g>
   <g id="patch_43">
    <path d="M 110.88 73.44 
L 113.76 73.44 
L 113.76 68.76 
L 110.88 68.76 
z
" clip-path="url(#p657dc3147d)" style="fill: #da2426"/>
   </g>
   <g id="patch_44">
    <path d="M 110.88 68.76 
L 111.84 68.76 
L 111.84 64.08 
L 110.88 64.08 
z
" clip-path="url(#p657dc3147d)" style="fill: #da2426"/>
   </g>
   <g id="patch_45">
    <path d="M 110.88 64.08 
L 111.84 64.08 
L 111.84 59.4 
L 110.88 59.4 
z
" clip-path="url(#p657dc3147d)" style="fill: #da2426"/>
   </g>
   <g id="patch_46">
    <path d="M 110.88 59.4 
L 110.88 59.4 
L 110.88 54.72 
L 110.88 54.72 
z
" clip-path="url(#p657dc3147d)" style="fill: #da2426"/>
   </g>
   <g id="patch_47">
    <path d="M 110.88 54.72 
L 110.88 54.72 
L 110.88 50.04 
L 110.88 50.04 
z
" clip-path="url(#p657dc3147d)" style="fill: #da2426"/>
   </g>
   <g id="patch_48">
    <path d="M 110.88 50.04 
L 110.88 50.04 
L 110.88 45.36 
L 110.88 45.36 
z
" clip-path="url(#p657dc3147d)" style="fill: #da2426"/>
   </g>
   <g id="patch_49">
    <path d="M 110.88 45.36 
L 110.88 45.36 
L 110.88 40.68 
L 110.88 40.68 
z
" clip-path="url(#p657dc3147d)" style="fill: #da2426"/>
   </g>
   <g id="patch_50">
    <path d="M 110.88 40.68 
L 110.88 40.68 
L 110.88 36 
L 110.88 36 
z
" clip-path="url(#p657dc3147d)" style="fill: #da2426"/>
   </g>
   <g id="matplotlib.axis_5">
    <g id="xtick_7">
     <g id="line2d_13">
      <g>
       <use xlink:href="#mf47fa2212c" x="110.88" y="129.6" style="stroke: #000000; stroke-width: 0.8"/>
      </g>
     </g>
     <g id="text_11">
      <!-- 0 -->
      <g transform="translate(107.69875 144.198438)scale(0.1 -0.1)">
       <use xlink:href="#DejaVuSans-30"/>
      </g>
     </g>
    </g>
    <g id="xtick_8">
     <g id="line2d_14">
      <g>
       <use xlink:href="#mf47fa2212c" x="134.88" y="129.6" style="stroke: #000000; stroke-width: 0.8"/>
      </g>
     </g>
     <g id="text_12">
      <!-- 25 -->
      <g transform="translate(128.5175 144.198438)scale(0.1 -0.1)">
       <use xlink:href="#DejaVuSans-32"/>
       <use xlink:href="#DejaVuSans-35" x="63.623047"/>
      </g>
     </g>
    </g>
   </g>
   <g id="matplotlib.axis_6">
    <g id="ytick_6">
     <g id="line2d_15">
      <g>
       <use xlink:href="#m86bba38d31" x="110.88" y="120.24" style="stroke: #000000; stroke-width: 0.8"/>
      </g>
     </g>
    </g>
    <g id="ytick_7">
     <g id="line2d_16">
      <g>
       <use xlink:href="#m86bba38d31" x="110.88" y="82.8" style="stroke: #000000; stroke-width: 0.8"/>
      </g>
     </g>
    </g>
    <g id="ytick_8">
     <g id="line2d_17">
      <g>
       <use xlink:href="#m86bba38d31" x="110.88" y="45.36" style="stroke: #000000; stroke-width: 0.8"/>
      </g>
     </g>
    </g>
   </g>
   <g id="line2d_18">
    <path d="M 110.88 82.8 
L 139.68 82.8 
" clip-path="url(#p657dc3147d)" style="fill: none; stroke: #ff0000; stroke-width: 1.5; stroke-linecap: square"/>
   </g>
   <g id="patch_51">
    <path d="M 110.88 129.6 
L 110.88 36 
" style="fill: none; stroke: #000000; stroke-width: 0.8; stroke-linejoin: miter; stroke-linecap: square"/>
   </g>
   <g id="patch_52">
    <path d="M 110.88 129.6 
L 139.68 129.6 
" style="fill: none; stroke: #000000; stroke-width: 0.8; stroke-linejoin: miter; stroke-linecap: square"/>
   </g>
  </g>
 </g>
 <defs>
  <clipPath id="p00e91a715a">
   <rect x="14.4" y="36" width="93.6" height="93.6"/>
  </clipPath>
  <clipPath id="p22d2e1c1d8">
   <rect x="14.4" y="4.32" width="93.6" height="28.8"/>
  </clipPath>
  <clipPath id="p657dc3147d">
   <rect x="110.88" y="36" width="28.8" height="93.6"/>
  </clipPath>
 </defs>
</svg>
