<?xml version="1.0" encoding="utf-8" standalone="no"?>
<!DOCTYPE svg PUBLIC "-//W3C//DTD SVG 1.1//EN"
  "http://www.w3.org/Graphics/SVG/1.1/DTD/svg11.dtd">
<svg xmlns:xlink="http://www.w3.org/1999/xlink" width="144pt" height="144pt" viewBox="0 0 144 144" xmlns="http://www.w3.org/2000/svg" version="1.1">
 <metadata>
  <rdf:RDF xmlns:dc="http://purl.org/dc/elements/1.1/" xmlns:cc="http://creativecommons.org/ns#" xmlns:rdf="http://www.w3.org/1999/02/22-rdf-syntax-ns#">
   <cc:Work>
    <dc:type rdf:resource="http://purl.org/dc/dcmitype/StillImage"/>
    <dc:date>2024-02-07T14:58:08.863080</dc:date>
    <dc:format>image/svg+xml</dc:format>
    <dc:creator>
     <cc:Agent>
      <dc:title>Matplotlib v3.5.1, https://matplotlib.org/</dc:title>
     </cc:Agent>
    </dc:creator>
   </cc:Work>
  </rdf:RDF>
 </metadata>
 <defs>
  <style type="text/css">*{stroke-linejoin: round; stroke-linecap: butt}</style>
 </defs>
 <g id="figure_1">
  <g id="patch_1">
   <path d="M 0 144 
L 144 144 
L 144 0 
L 0 0 
L 0 144 
z
" style="fill: none"/>
  </g>
  <g id="axes_1">
   <g id="patch_2">
    <path d="M 14.4 129.6 
L 108 129.6 
L 108 36 
L 14.4 36 
z
" style="fill: #ffffff"/>
   </g>
   <g id="PathCollection_1">
    <defs>
     <path id="m29f50792e4" d="M 0 1.581139 
C 0.419323 1.581139 0.821528 1.41454 1.118034 1.118034 
C 1.41454 0.821528 1.581139 0.419323 1.581139 0 
C 1.581139 -0.419323 1.41454 -0.821528 1.118034 -1.118034 
C 0.821528 -1.41454 0.419323 -1.581139 0 -1.581139 
C -0.419323 -1.581139 -0.821528 -1.41454 -1.118034 -1.118034 
C -1.41454 -0.821528 -1.581139 -0.419323 -1.581139 0 
C -1.581139 0.419323 -1.41454 0.821528 -1.118034 1.118034 
C -0.821528 1.41454 -0.419323 1.581139 0 1.581139 
z
" style="stroke: #95529f; stroke-opacity: 0.5"/>
    </defs>
    <g clip-path="url(#p966d19bb03)">
     <use xlink:href="#m29f50792e4" x="86.078111" y="64.800431" style="fill: #95529f; fill-opacity: 0.5; stroke: #95529f; stroke-opacity: 0.5"/>
     <use xlink:href="#m29f50792e4" x="76.826878" y="56.036154" style="fill: #95529f; fill-opacity: 0.5; stroke: #95529f; stroke-opacity: 0.5"/>
     <use xlink:href="#m29f50792e4" x="72.012205" y="61.628716" style="fill: #95529f; fill-opacity: 0.5; stroke: #95529f; stroke-opacity: 0.5"/>
     <use xlink:href="#m29f50792e4" x="80.33336" y="44.425737" style="fill: #95529f; fill-opacity: 0.5; stroke: #95529f; stroke-opacity: 0.5"/>
     <use xlink:href="#m29f50792e4" x="74.768775" y="52.291281" style="fill: #95529f; fill-opacity: 0.5; stroke: #95529f; stroke-opacity: 0.5"/>
     <use xlink:href="#m29f50792e4" x="68.221967" y="43.285783" style="fill: #95529f; fill-opacity: 0.5; stroke: #95529f; stroke-opacity: 0.5"/>
     <use xlink:href="#m29f50792e4" x="82.304396" y="49.763668" style="fill: #95529f; fill-opacity: 0.5; stroke: #95529f; stroke-opacity: 0.5"/>
     <use xlink:href="#m29f50792e4" x="69.923738" y="54.692105" style="fill: #95529f; fill-opacity: 0.5; stroke: #95529f; stroke-opacity: 0.5"/>
     <use xlink:href="#m29f50792e4" x="69.563332" y="48.848639" style="fill: #95529f; fill-opacity: 0.5; stroke: #95529f; stroke-opacity: 0.5"/>
     <use xlink:href="#m29f50792e4" x="72.520562" y="53.401734" style="fill: #95529f; fill-opacity: 0.5; stroke: #95529f; stroke-opacity: 0.5"/>
     <use xlink:href="#m29f50792e4" x="70.623227" y="54.863009" style="fill: #95529f; fill-opacity: 0.5; stroke: #95529f; stroke-opacity: 0.5"/>
     <use xlink:href="#m29f50792e4" x="68.803281" y="76.586658" style="fill: #95529f; fill-opacity: 0.5; stroke: #95529f; stroke-opacity: 0.5"/>
     <use xlink:href="#m29f50792e4" x="52.212896" y="54.329584" style="fill: #95529f; fill-opacity: 0.5; stroke: #95529f; stroke-opacity: 0.5"/>
     <use xlink:href="#m29f50792e4" x="77.705654" y="52.524546" style="fill: #95529f; fill-opacity: 0.5; stroke: #95529f; stroke-opacity: 0.5"/>
     <use xlink:href="#m29f50792e4" x="65.639096" y="52.013327" style="fill: #95529f; fill-opacity: 0.5; stroke: #95529f; stroke-opacity: 0.5"/>
     <use xlink:href="#m29f50792e4" x="75.657906" y="48.530581" style="fill: #95529f; fill-opacity: 0.5; stroke: #95529f; stroke-opacity: 0.5"/>
     <use xlink:href="#m29f50792e4" x="68.910935" y="55.728197" style="fill: #95529f; fill-opacity: 0.5; stroke: #95529f; stroke-opacity: 0.5"/>
     <use xlink:href="#m29f50792e4" x="82.857402" y="42.805072" style="fill: #95529f; fill-opacity: 0.5; stroke: #95529f; stroke-opacity: 0.5"/>
     <use xlink:href="#m29f50792e4" x="79.845433" y="62.41512" style="fill: #95529f; fill-opacity: 0.5; stroke: #95529f; stroke-opacity: 0.5"/>
     <use xlink:href="#m29f50792e4" x="73.963474" y="54.785175" style="fill: #95529f; fill-opacity: 0.5; stroke: #95529f; stroke-opacity: 0.5"/>
     <use xlink:href="#m29f50792e4" x="80.497917" y="74.36216" style="fill: #95529f; fill-opacity: 0.5; stroke: #95529f; stroke-opacity: 0.5"/>
     <use xlink:href="#m29f50792e4" x="54.325842" y="50.966406" style="fill: #95529f; fill-opacity: 0.5; stroke: #95529f; stroke-opacity: 0.5"/>
     <use xlink:href="#m29f50792e4" x="71.906946" y="54.453522" style="fill: #95529f; fill-opacity: 0.5; stroke: #95529f; stroke-opacity: 0.5"/>
     <use xlink:href="#m29f50792e4" x="70.497689" y="54.634778" style="fill: #95529f; fill-opacity: 0.5; stroke: #95529f; stroke-opacity: 0.5"/>
     <use xlink:href="#m29f50792e4" x="84.777201" y="71.600914" style="fill: #95529f; fill-opacity: 0.5; stroke: #95529f; stroke-opacity: 0.5"/>
     <use xlink:href="#m29f50792e4" x="74.759266" y="54.938955" style="fill: #95529f; fill-opacity: 0.5; stroke: #95529f; stroke-opacity: 0.5"/>
     <use xlink:href="#m29f50792e4" x="74.528134" y="55.668088" style="fill: #95529f; fill-opacity: 0.5; stroke: #95529f; stroke-opacity: 0.5"/>
     <use xlink:href="#m29f50792e4" x="70.675071" y="41.97402" style="fill: #95529f; fill-opacity: 0.5; stroke: #95529f; stroke-opacity: 0.5"/>
     <use xlink:href="#m29f50792e4" x="73.849538" y="50.609192" style="fill: #95529f; fill-opacity: 0.5; stroke: #95529f; stroke-opacity: 0.5"/>
     <use xlink:href="#m29f50792e4" x="70.977515" y="57.219848" style="fill: #95529f; fill-opacity: 0.5; stroke: #95529f; stroke-opacity: 0.5"/>
     <use xlink:href="#m29f50792e4" x="65.825283" y="58.921977" style="fill: #95529f; fill-opacity: 0.5; stroke: #95529f; stroke-opacity: 0.5"/>
     <use xlink:href="#m29f50792e4" x="74.457601" y="53.959938" style="fill: #95529f; fill-opacity: 0.5; stroke: #95529f; stroke-opacity: 0.5"/>
     <use xlink:href="#m29f50792e4" x="67.668647" y="65.071996" style="fill: #95529f; fill-opacity: 0.5; stroke: #95529f; stroke-opacity: 0.5"/>
     <use xlink:href="#m29f50792e4" x="68.485017" y="50.462064" style="fill: #95529f; fill-opacity: 0.5; stroke: #95529f; stroke-opacity: 0.5"/>
     <use xlink:href="#m29f50792e4" x="74.499896" y="51.762815" style="fill: #95529f; fill-opacity: 0.5; stroke: #95529f; stroke-opacity: 0.5"/>
     <use xlink:href="#m29f50792e4" x="56.922091" y="56.99201" style="fill: #95529f; fill-opacity: 0.5; stroke: #95529f; stroke-opacity: 0.5"/>
     <use xlink:href="#m29f50792e4" x="82.638578" y="50.368028" style="fill: #95529f; fill-opacity: 0.5; stroke: #95529f; stroke-opacity: 0.5"/>
     <use xlink:href="#m29f50792e4" x="80.787473" y="63.380898" style="fill: #95529f; fill-opacity: 0.5; stroke: #95529f; stroke-opacity: 0.5"/>
     <use xlink:href="#m29f50792e4" x="64.257015" y="47.031745" style="fill: #95529f; fill-opacity: 0.5; stroke: #95529f; stroke-opacity: 0.5"/>
     <use xlink:href="#m29f50792e4" x="60.699391" y="58.036161" style="fill: #95529f; fill-opacity: 0.5; stroke: #95529f; stroke-opacity: 0.5"/>
     <use xlink:href="#m29f50792e4" x="65.323918" y="55.464421" style="fill: #95529f; fill-opacity: 0.5; stroke: #95529f; stroke-opacity: 0.5"/>
     <use xlink:href="#m29f50792e4" x="80.584006" y="71.071245" style="fill: #95529f; fill-opacity: 0.5; stroke: #95529f; stroke-opacity: 0.5"/>
     <use xlink:href="#m29f50792e4" x="71.242067" y="61.69083" style="fill: #95529f; fill-opacity: 0.5; stroke: #95529f; stroke-opacity: 0.5"/>
     <use xlink:href="#m29f50792e4" x="60.896773" y="54.315816" style="fill: #95529f; fill-opacity: 0.5; stroke: #95529f; stroke-opacity: 0.5"/>
     <use xlink:href="#m29f50792e4" x="69.446011" y="52.89763" style="fill: #95529f; fill-opacity: 0.5; stroke: #95529f; stroke-opacity: 0.5"/>
     <use xlink:href="#m29f50792e4" x="69.115163" y="57.215431" style="fill: #95529f; fill-opacity: 0.5; stroke: #95529f; stroke-opacity: 0.5"/>
     <use xlink:href="#m29f50792e4" x="61.686334" y="56.038283" style="fill: #95529f; fill-opacity: 0.5; stroke: #95529f; stroke-opacity: 0.5"/>
     <use xlink:href="#m29f50792e4" x="70.232698" y="56.745376" style="fill: #95529f; fill-opacity: 0.5; stroke: #95529f; stroke-opacity: 0.5"/>
     <use xlink:href="#m29f50792e4" x="75.947384" y="48.598934" style="fill: #95529f; fill-opacity: 0.5; stroke: #95529f; stroke-opacity: 0.5"/>
     <use xlink:href="#m29f50792e4" x="71.692832" y="49.07943" style="fill: #95529f; fill-opacity: 0.5; stroke: #95529f; stroke-opacity: 0.5"/>
     <use xlink:href="#m29f50792e4" x="72.414321" y="59.538532" style="fill: #95529f; fill-opacity: 0.5; stroke: #95529f; stroke-opacity: 0.5"/>
     <use xlink:href="#m29f50792e4" x="67.344905" y="43.685796" style="fill: #95529f; fill-opacity: 0.5; stroke: #95529f; stroke-opacity: 0.5"/>
     <use xlink:href="#m29f50792e4" x="61.197047" y="41.680096" style="fill: #95529f; fill-opacity: 0.5; stroke: #95529f; stroke-opacity: 0.5"/>
     <use xlink:href="#m29f50792e4" x="77.19461" y="61.85669" style="fill: #95529f; fill-opacity: 0.5; stroke: #95529f; stroke-opacity: 0.5"/>
     <use xlink:href="#m29f50792e4" x="63.411264" y="57.782375" style="fill: #95529f; fill-opacity: 0.5; stroke: #95529f; stroke-opacity: 0.5"/>
     <use xlink:href="#m29f50792e4" x="67.607451" y="57.528464" style="fill: #95529f; fill-opacity: 0.5; stroke: #95529f; stroke-opacity: 0.5"/>
     <use xlink:href="#m29f50792e4" x="84.301733" y="56.794672" style="fill: #95529f; fill-opacity: 0.5; stroke: #95529f; stroke-opacity: 0.5"/>
     <use xlink:href="#m29f50792e4" x="72.023287" y="54.477804" style="fill: #95529f; fill-opacity: 0.5; stroke: #95529f; stroke-opacity: 0.5"/>
     <use xlink:href="#m29f50792e4" x="67.075575" y="54.258363" style="fill: #95529f; fill-opacity: 0.5; stroke: #95529f; stroke-opacity: 0.5"/>
     <use xlink:href="#m29f50792e4" x="63.246672" y="52.521494" style="fill: #95529f; fill-opacity: 0.5; stroke: #95529f; stroke-opacity: 0.5"/>
     <use xlink:href="#m29f50792e4" x="63.09955" y="57.039355" style="fill: #95529f; fill-opacity: 0.5; stroke: #95529f; stroke-opacity: 0.5"/>
     <use xlink:href="#m29f50792e4" x="86.345995" y="51.930648" style="fill: #95529f; fill-opacity: 0.5; stroke: #95529f; stroke-opacity: 0.5"/>
     <use xlink:href="#m29f50792e4" x="67.52757" y="44.290734" style="fill: #95529f; fill-opacity: 0.5; stroke: #95529f; stroke-opacity: 0.5"/>
     <use xlink:href="#m29f50792e4" x="53.229882" y="49.205199" style="fill: #95529f; fill-opacity: 0.5; stroke: #95529f; stroke-opacity: 0.5"/>
     <use xlink:href="#m29f50792e4" x="70.758706" y="56.145439" style="fill: #95529f; fill-opacity: 0.5; stroke: #95529f; stroke-opacity: 0.5"/>
     <use xlink:href="#m29f50792e4" x="71.028781" y="63.96915" style="fill: #95529f; fill-opacity: 0.5; stroke: #95529f; stroke-opacity: 0.5"/>
     <use xlink:href="#m29f50792e4" x="72.678888" y="51.434581" style="fill: #95529f; fill-opacity: 0.5; stroke: #95529f; stroke-opacity: 0.5"/>
     <use xlink:href="#m29f50792e4" x="87.678094" y="61.207411" style="fill: #95529f; fill-opacity: 0.5; stroke: #95529f; stroke-opacity: 0.5"/>
     <use xlink:href="#m29f50792e4" x="52.315331" y="58.125039" style="fill: #95529f; fill-opacity: 0.5; stroke: #95529f; stroke-opacity: 0.5"/>
     <use xlink:href="#m29f50792e4" x="65.386622" y="73.378534" style="fill: #95529f; fill-opacity: 0.5; stroke: #95529f; stroke-opacity: 0.5"/>
     <use xlink:href="#m29f50792e4" x="66.459762" y="51.493883" style="fill: #95529f; fill-opacity: 0.5; stroke: #95529f; stroke-opacity: 0.5"/>
     <use xlink:href="#m29f50792e4" x="70.234367" y="53.307112" style="fill: #95529f; fill-opacity: 0.5; stroke: #95529f; stroke-opacity: 0.5"/>
     <use xlink:href="#m29f50792e4" x="72.640661" y="60.65637" style="fill: #95529f; fill-opacity: 0.5; stroke: #95529f; stroke-opacity: 0.5"/>
     <use xlink:href="#m29f50792e4" x="66.671396" y="55.029756" style="fill: #95529f; fill-opacity: 0.5; stroke: #95529f; stroke-opacity: 0.5"/>
     <use xlink:href="#m29f50792e4" x="70.164265" y="63.823583" style="fill: #95529f; fill-opacity: 0.5; stroke: #95529f; stroke-opacity: 0.5"/>
     <use xlink:href="#m29f50792e4" x="67.4791" y="52.355432" style="fill: #95529f; fill-opacity: 0.5; stroke: #95529f; stroke-opacity: 0.5"/>
     <use xlink:href="#m29f50792e4" x="69.121093" y="60.256045" style="fill: #95529f; fill-opacity: 0.5; stroke: #95529f; stroke-opacity: 0.5"/>
     <use xlink:href="#m29f50792e4" x="77.925091" y="55.508876" style="fill: #95529f; fill-opacity: 0.5; stroke: #95529f; stroke-opacity: 0.5"/>
     <use xlink:href="#m29f50792e4" x="72.774437" y="66.597565" style="fill: #95529f; fill-opacity: 0.5; stroke: #95529f; stroke-opacity: 0.5"/>
     <use xlink:href="#m29f50792e4" x="62.519703" y="66.139216" style="fill: #95529f; fill-opacity: 0.5; stroke: #95529f; stroke-opacity: 0.5"/>
     <use xlink:href="#m29f50792e4" x="67.957342" y="46.594096" style="fill: #95529f; fill-opacity: 0.5; stroke: #95529f; stroke-opacity: 0.5"/>
     <use xlink:href="#m29f50792e4" x="64.407052" y="51.212221" style="fill: #95529f; fill-opacity: 0.5; stroke: #95529f; stroke-opacity: 0.5"/>
     <use xlink:href="#m29f50792e4" x="71.296458" y="53.545215" style="fill: #95529f; fill-opacity: 0.5; stroke: #95529f; stroke-opacity: 0.5"/>
     <use xlink:href="#m29f50792e4" x="66.79281" y="48.850612" style="fill: #95529f; fill-opacity: 0.5; stroke: #95529f; stroke-opacity: 0.5"/>
     <use xlink:href="#m29f50792e4" x="72.420066" y="50.602314" style="fill: #95529f; fill-opacity: 0.5; stroke: #95529f; stroke-opacity: 0.5"/>
     <use xlink:href="#m29f50792e4" x="63.043242" y="66.795745" style="fill: #95529f; fill-opacity: 0.5; stroke: #95529f; stroke-opacity: 0.5"/>
     <use xlink:href="#m29f50792e4" x="79.158809" y="38.663306" style="fill: #95529f; fill-opacity: 0.5; stroke: #95529f; stroke-opacity: 0.5"/>
     <use xlink:href="#m29f50792e4" x="69.102086" y="62.984664" style="fill: #95529f; fill-opacity: 0.5; stroke: #95529f; stroke-opacity: 0.5"/>
     <use xlink:href="#m29f50792e4" x="72.279208" y="55.574486" style="fill: #95529f; fill-opacity: 0.5; stroke: #95529f; stroke-opacity: 0.5"/>
     <use xlink:href="#m29f50792e4" x="66.405445" y="56.552998" style="fill: #95529f; fill-opacity: 0.5; stroke: #95529f; stroke-opacity: 0.5"/>
     <use xlink:href="#m29f50792e4" x="46.14577" y="44.989702" style="fill: #95529f; fill-opacity: 0.5; stroke: #95529f; stroke-opacity: 0.5"/>
     <use xlink:href="#m29f50792e4" x="67.108283" y="62.573531" style="fill: #95529f; fill-opacity: 0.5; stroke: #95529f; stroke-opacity: 0.5"/>
     <use xlink:href="#m29f50792e4" x="76.390897" y="54.867027" style="fill: #95529f; fill-opacity: 0.5; stroke: #95529f; stroke-opacity: 0.5"/>
     <use xlink:href="#m29f50792e4" x="67.191763" y="53.005975" style="fill: #95529f; fill-opacity: 0.5; stroke: #95529f; stroke-opacity: 0.5"/>
     <use xlink:href="#m29f50792e4" x="74.433589" y="71.093507" style="fill: #95529f; fill-opacity: 0.5; stroke: #95529f; stroke-opacity: 0.5"/>
     <use xlink:href="#m29f50792e4" x="76.549889" y="42.656745" style="fill: #95529f; fill-opacity: 0.5; stroke: #95529f; stroke-opacity: 0.5"/>
     <use xlink:href="#m29f50792e4" x="82.249154" y="53.434238" style="fill: #95529f; fill-opacity: 0.5; stroke: #95529f; stroke-opacity: 0.5"/>
     <use xlink:href="#m29f50792e4" x="77.544177" y="50.637969" style="fill: #95529f; fill-opacity: 0.5; stroke: #95529f; stroke-opacity: 0.5"/>
     <use xlink:href="#m29f50792e4" x="80.077082" y="64.417991" style="fill: #95529f; fill-opacity: 0.5; stroke: #95529f; stroke-opacity: 0.5"/>
     <use xlink:href="#m29f50792e4" x="50.76371" y="61.711815" style="fill: #95529f; fill-opacity: 0.5; stroke: #95529f; stroke-opacity: 0.5"/>
     <use xlink:href="#m29f50792e4" x="57.585379" y="56.935063" style="fill: #95529f; fill-opacity: 0.5; stroke: #95529f; stroke-opacity: 0.5"/>
     <use xlink:href="#m29f50792e4" x="60.547489" y="44.085601" style="fill: #95529f; fill-opacity: 0.5; stroke: #95529f; stroke-opacity: 0.5"/>
     <use xlink:href="#m29f50792e4" x="65.021048" y="56.804953" style="fill: #95529f; fill-opacity: 0.5; stroke: #95529f; stroke-opacity: 0.5"/>
     <use xlink:href="#m29f50792e4" x="71.106322" y="57.560935" style="fill: #95529f; fill-opacity: 0.5; stroke: #95529f; stroke-opacity: 0.5"/>
     <use xlink:href="#m29f50792e4" x="54.223973" y="55.158486" style="fill: #95529f; fill-opacity: 0.5; stroke: #95529f; stroke-opacity: 0.5"/>
     <use xlink:href="#m29f50792e4" x="55.937897" y="50.655122" style="fill: #95529f; fill-opacity: 0.5; stroke: #95529f; stroke-opacity: 0.5"/>
     <use xlink:href="#m29f50792e4" x="70.156811" y="47.421267" style="fill: #95529f; fill-opacity: 0.5; stroke: #95529f; stroke-opacity: 0.5"/>
     <use xlink:href="#m29f50792e4" x="67.048134" y="55.975355" style="fill: #95529f; fill-opacity: 0.5; stroke: #95529f; stroke-opacity: 0.5"/>
     <use xlink:href="#m29f50792e4" x="64.481979" y="42.64576" style="fill: #95529f; fill-opacity: 0.5; stroke: #95529f; stroke-opacity: 0.5"/>
     <use xlink:href="#m29f50792e4" x="88.490653" y="71.031896" style="fill: #95529f; fill-opacity: 0.5; stroke: #95529f; stroke-opacity: 0.5"/>
     <use xlink:href="#m29f50792e4" x="65.071471" y="46.58377" style="fill: #95529f; fill-opacity: 0.5; stroke: #95529f; stroke-opacity: 0.5"/>
     <use xlink:href="#m29f50792e4" x="73.446741" y="52.18096" style="fill: #95529f; fill-opacity: 0.5; stroke: #95529f; stroke-opacity: 0.5"/>
     <use xlink:href="#m29f50792e4" x="82.580021" y="54.801127" style="fill: #95529f; fill-opacity: 0.5; stroke: #95529f; stroke-opacity: 0.5"/>
     <use xlink:href="#m29f50792e4" x="68.965522" y="57.56334" style="fill: #95529f; fill-opacity: 0.5; stroke: #95529f; stroke-opacity: 0.5"/>
     <use xlink:href="#m29f50792e4" x="81.517512" y="53.795452" style="fill: #95529f; fill-opacity: 0.5; stroke: #95529f; stroke-opacity: 0.5"/>
    </g>
   </g>
   <g id="PathCollection_2">
    <defs>
     <path id="mc0beaa409a" d="M -5 0 
L 5 0 
M 0 5 
L 0 -5 
" style="stroke: #ff0000; stroke-width: 1.5"/>
    </defs>
    <g clip-path="url(#p966d19bb03)">
     <use xlink:href="#mc0beaa409a" x="61.2" y="82.8" style="fill: #ff0000; stroke: #ff0000; stroke-width: 1.5"/>
    </g>
   </g>
   <g id="PathCollection_3">
    <defs>
     <path id="m768604e333" d="M -0 3.535534 
L 3.535534 0 
L 0 -3.535534 
L -3.535534 -0 
z
" style="stroke: #000000"/>
    </defs>
    <g clip-path="url(#p966d19bb03)">
     <use xlink:href="#m768604e333" x="70.324608" y="55.263216" style="stroke: #000000"/>
    </g>
   </g>
   <g id="matplotlib.axis_1">
    <g id="xtick_1">
     <g id="line2d_1">
      <defs>
       <path id="m4c63d1112c" d="M 0 0 
L 0 3.5 
" style="stroke: #000000; stroke-width: 0.8"/>
      </defs>
      <g>
       <use xlink:href="#m4c63d1112c" x="18.654545" y="129.6" style="stroke: #000000; stroke-width: 0.8"/>
      </g>
     </g>
     <g id="text_1">
      <!-- −5 -->
      <g transform="translate(11.283452 144.198438)scale(0.1 -0.1)">
       <defs>
        <path id="DejaVuSans-2212" d="M 678 2272 
L 4684 2272 
L 4684 1741 
L 678 1741 
L 678 2272 
z
" transform="scale(0.015625)"/>
        <path id="DejaVuSans-35" d="M 691 4666 
L 3169 4666 
L 3169 4134 
L 1269 4134 
L 1269 2991 
Q 1406 3038 1543 3061 
Q 1681 3084 1819 3084 
Q 2600 3084 3056 2656 
Q 3513 2228 3513 1497 
Q 3513 744 3044 326 
Q 2575 -91 1722 -91 
Q 1428 -91 1123 -41 
Q 819 9 494 109 
L 494 744 
Q 775 591 1075 516 
Q 1375 441 1709 441 
Q 2250 441 2565 725 
Q 2881 1009 2881 1497 
Q 2881 1984 2565 2268 
Q 2250 2553 1709 2553 
Q 1456 2553 1204 2497 
Q 953 2441 691 2322 
L 691 4666 
z
" transform="scale(0.015625)"/>
       </defs>
       <use xlink:href="#DejaVuSans-2212"/>
       <use xlink:href="#DejaVuSans-35" x="83.789062"/>
      </g>
     </g>
    </g>
    <g id="xtick_2">
     <g id="line2d_2">
      <g>
       <use xlink:href="#m4c63d1112c" x="61.2" y="129.6" style="stroke: #000000; stroke-width: 0.8"/>
      </g>
     </g>
     <g id="text_2">
      <!-- 0 -->
      <g transform="translate(58.01875 144.198438)scale(0.1 -0.1)">
       <defs>
        <path id="DejaVuSans-30" d="M 2034 4250 
Q 1547 4250 1301 3770 
Q 1056 3291 1056 2328 
Q 1056 1369 1301 889 
Q 1547 409 2034 409 
Q 2525 409 2770 889 
Q 3016 1369 3016 2328 
Q 3016 3291 2770 3770 
Q 2525 4250 2034 4250 
z
M 2034 4750 
Q 2819 4750 3233 4129 
Q 3647 3509 3647 2328 
Q 3647 1150 3233 529 
Q 2819 -91 2034 -91 
Q 1250 -91 836 529 
Q 422 1150 422 2328 
Q 422 3509 836 4129 
Q 1250 4750 2034 4750 
z
" transform="scale(0.015625)"/>
       </defs>
       <use xlink:href="#DejaVuSans-30"/>
      </g>
     </g>
    </g>
    <g id="xtick_3">
     <g id="line2d_3">
      <g>
       <use xlink:href="#m4c63d1112c" x="103.745455" y="129.6" style="stroke: #000000; stroke-width: 0.8"/>
      </g>
     </g>
     <g id="text_3">
      <!-- 5 -->
      <g transform="translate(100.564205 144.198438)scale(0.1 -0.1)">
       <use xlink:href="#DejaVuSans-35"/>
      </g>
     </g>
    </g>
    <g id="text_4">
     <!-- x (m) -->
     <g transform="translate(47.879687 157.876563)scale(0.1 -0.1)">
      <defs>
       <path id="DejaVuSans-78" d="M 3513 3500 
L 2247 1797 
L 3578 0 
L 2900 0 
L 1881 1375 
L 863 0 
L 184 0 
L 1544 1831 
L 300 3500 
L 978 3500 
L 1906 2253 
L 2834 3500 
L 3513 3500 
z
" transform="scale(0.015625)"/>
       <path id="DejaVuSans-20" transform="scale(0.015625)"/>
       <path id="DejaVuSans-28" d="M 1984 4856 
Q 1566 4138 1362 3434 
Q 1159 2731 1159 2009 
Q 1159 1288 1364 580 
Q 1569 -128 1984 -844 
L 1484 -844 
Q 1016 -109 783 600 
Q 550 1309 550 2009 
Q 550 2706 781 3412 
Q 1013 4119 1484 4856 
L 1984 4856 
z
" transform="scale(0.015625)"/>
       <path id="DejaVuSans-6d" d="M 3328 2828 
Q 3544 3216 3844 3400 
Q 4144 3584 4550 3584 
Q 5097 3584 5394 3201 
Q 5691 2819 5691 2113 
L 5691 0 
L 5113 0 
L 5113 2094 
Q 5113 2597 4934 2840 
Q 4756 3084 4391 3084 
Q 3944 3084 3684 2787 
Q 3425 2491 3425 1978 
L 3425 0 
L 2847 0 
L 2847 2094 
Q 2847 2600 2669 2842 
Q 2491 3084 2119 3084 
Q 1678 3084 1418 2786 
Q 1159 2488 1159 1978 
L 1159 0 
L 581 0 
L 581 3500 
L 1159 3500 
L 1159 2956 
Q 1356 3278 1631 3431 
Q 1906 3584 2284 3584 
Q 2666 3584 2933 3390 
Q 3200 3197 3328 2828 
z
" transform="scale(0.015625)"/>
       <path id="DejaVuSans-29" d="M 513 4856 
L 1013 4856 
Q 1481 4119 1714 3412 
Q 1947 2706 1947 2009 
Q 1947 1309 1714 600 
Q 1481 -109 1013 -844 
L 513 -844 
Q 928 -128 1133 580 
Q 1338 1288 1338 2009 
Q 1338 2731 1133 3434 
Q 928 4138 513 4856 
z
" transform="scale(0.015625)"/>
      </defs>
      <use xlink:href="#DejaVuSans-78"/>
      <use xlink:href="#DejaVuSans-20" x="59.179688"/>
      <use xlink:href="#DejaVuSans-28" x="90.966797"/>
      <use xlink:href="#DejaVuSans-6d" x="129.980469"/>
      <use xlink:href="#DejaVuSans-29" x="227.392578"/>
     </g>
    </g>
   </g>
   <g id="matplotlib.axis_2">
    <g id="ytick_1">
     <g id="line2d_4">
      <defs>
       <path id="m330bd83675" d="M 0 0 
L -3.5 0 
" style="stroke: #000000; stroke-width: 0.8"/>
      </defs>
      <g>
       <use xlink:href="#m330bd83675" x="14.4" y="125.345455" style="stroke: #000000; stroke-width: 0.8"/>
      </g>
     </g>
     <g id="text_5">
      <!-- −5 -->
      <g transform="translate(-7.342187 129.144673)scale(0.1 -0.1)">
       <use xlink:href="#DejaVuSans-2212"/>
       <use xlink:href="#DejaVuSans-35" x="83.789062"/>
      </g>
     </g>
    </g>
    <g id="ytick_2">
     <g id="line2d_5">
      <g>
       <use xlink:href="#m330bd83675" x="14.4" y="82.8" style="stroke: #000000; stroke-width: 0.8"/>
      </g>
     </g>
     <g id="text_6">
      <!-- 0 -->
      <g transform="translate(1.0375 86.599219)scale(0.1 -0.1)">
       <use xlink:href="#DejaVuSans-30"/>
      </g>
     </g>
    </g>
    <g id="ytick_3">
     <g id="line2d_6">
      <g>
       <use xlink:href="#m330bd83675" x="14.4" y="40.254545" style="stroke: #000000; stroke-width: 0.8"/>
      </g>
     </g>
     <g id="text_7">
      <!-- 5 -->
      <g transform="translate(1.0375 44.053764)scale(0.1 -0.1)">
       <use xlink:href="#DejaVuSans-35"/>
      </g>
     </g>
    </g>
   </g>
   <g id="patch_3">
    <path d="M 14.4 129.6 
L 14.4 36 
" style="fill: none; stroke: #000000; stroke-width: 0.8; stroke-linejoin: miter; stroke-linecap: square"/>
   </g>
   <g id="patch_4">
    <path d="M 108 129.6 
L 108 36 
" style="fill: none; stroke: #000000; stroke-width: 0.8; stroke-linejoin: miter; stroke-linecap: square"/>
   </g>
   <g id="patch_5">
    <path d="M 14.4 129.6 
L 108 129.6 
" style="fill: none; stroke: #000000; stroke-width: 0.8; stroke-linejoin: miter; stroke-linecap: square"/>
   </g>
   <g id="patch_6">
    <path d="M 14.4 36 
L 108 36 
" style="fill: none; stroke: #000000; stroke-width: 0.8; stroke-linejoin: miter; stroke-linecap: square"/>
   </g>
  </g>
  <g id="axes_2">
   <g id="patch_7">
    <path d="M 14.4 33.12 
L 108 33.12 
L 108 4.32 
L 14.4 4.32 
z
" style="fill: #ffffff"/>
   </g>
   <g id="patch_8">
    <path d="M 14.4 33.12 
L 16.527273 33.12 
L 16.527273 33.12 
L 14.4 33.12 
z
" clip-path="url(#p5942bf420b)" style="fill: #95529f"/>
   </g>
   <g id="patch_9">
    <path d="M 16.527273 33.12 
L 18.654545 33.12 
L 18.654545 33.12 
L 16.527273 33.12 
z
" clip-path="url(#p5942bf420b)" style="fill: #95529f"/>
   </g>
   <g id="patch_10">
    <path d="M 18.654545 33.12 
L 20.781818 33.12 
L 20.781818 33.12 
L 18.654545 33.12 
z
" clip-path="url(#p5942bf420b)" style="fill: #95529f"/>
   </g>
   <g id="patch_11">
    <path d="M 20.781818 33.12 
L 22.909091 33.12 
L 22.909091 33.12 
L 20.781818 33.12 
z
" clip-path="url(#p5942bf420b)" style="fill: #95529f"/>
   </g>
   <g id="patch_12">
    <path d="M 22.909091 33.12 
L 25.036364 33.12 
L 25.036364 33.12 
L 22.909091 33.12 
z
" clip-path="url(#p5942bf420b)" style="fill: #95529f"/>
   </g>
   <g id="patch_13">
    <path d="M 25.036364 33.12 
L 27.163636 33.12 
L 27.163636 33.12 
L 25.036364 33.12 
z
" clip-path="url(#p5942bf420b)" style="fill: #95529f"/>
   </g>
   <g id="patch_14">
    <path d="M 27.163636 33.12 
L 29.290909 33.12 
L 29.290909 33.12 
L 27.163636 33.12 
z
" clip-path="url(#p5942bf420b)" style="fill: #95529f"/>
   </g>
   <g id="patch_15">
    <path d="M 29.290909 33.12 
L 31.418182 33.12 
L 31.418182 33.12 
L 29.290909 33.12 
z
" clip-path="url(#p5942bf420b)" style="fill: #95529f"/>
   </g>
   <g id="patch_16">
    <path d="M 31.418182 33.12 
L 33.545455 33.12 
L 33.545455 33.12 
L 31.418182 33.12 
z
" clip-path="url(#p5942bf420b)" style="fill: #95529f"/>
   </g>
   <g id="patch_17">
    <path d="M 33.545455 33.12 
L 35.672727 33.12 
L 35.672727 33.12 
L 33.545455 33.12 
z
" clip-path="url(#p5942bf420b)" style="fill: #95529f"/>
   </g>
   <g id="patch_18">
    <path d="M 35.672727 33.12 
L 37.8 33.12 
L 37.8 33.12 
L 35.672727 33.12 
z
" clip-path="url(#p5942bf420b)" style="fill: #95529f"/>
   </g>
   <g id="patch_19">
    <path d="M 37.8 33.12 
L 39.927273 33.12 
L 39.927273 33.12 
L 37.8 33.12 
z
" clip-path="url(#p5942bf420b)" style="fill: #95529f"/>
   </g>
   <g id="patch_20">
    <path d="M 39.927273 33.12 
L 42.054545 33.12 
L 42.054545 33.12 
L 39.927273 33.12 
z
" clip-path="url(#p5942bf420b)" style="fill: #95529f"/>
   </g>
   <g id="patch_21">
    <path d="M 42.054545 33.12 
L 44.181818 33.12 
L 44.181818 33.12 
L 42.054545 33.12 
z
" clip-path="url(#p5942bf420b)" style="fill: #95529f"/>
   </g>
   <g id="patch_22">
    <path d="M 44.181818 33.12 
L 46.309091 33.12 
L 46.309091 31.68 
L 44.181818 31.68 
z
" clip-path="url(#p5942bf420b)" style="fill: #95529f"/>
   </g>
   <g id="patch_23">
    <path d="M 46.309091 33.12 
L 48.436364 33.12 
L 48.436364 33.12 
L 46.309091 33.12 
z
" clip-path="url(#p5942bf420b)" style="fill: #95529f"/>
   </g>
   <g id="patch_24">
    <path d="M 48.436364 33.12 
L 50.563636 33.12 
L 50.563636 33.12 
L 48.436364 33.12 
z
" clip-path="url(#p5942bf420b)" style="fill: #95529f"/>
   </g>
   <g id="patch_25">
    <path d="M 50.563636 33.12 
L 52.690909 33.12 
L 52.690909 28.8 
L 50.563636 28.8 
z
" clip-path="url(#p5942bf420b)" style="fill: #95529f"/>
   </g>
   <g id="patch_26">
    <path d="M 52.690909 33.12 
L 54.818182 33.12 
L 54.818182 28.8 
L 52.690909 28.8 
z
" clip-path="url(#p5942bf420b)" style="fill: #95529f"/>
   </g>
   <g id="patch_27">
    <path d="M 54.818182 33.12 
L 56.945455 33.12 
L 56.945455 30.24 
L 54.818182 30.24 
z
" clip-path="url(#p5942bf420b)" style="fill: #95529f"/>
   </g>
   <g id="patch_28">
    <path d="M 56.945455 33.12 
L 59.072727 33.12 
L 59.072727 31.68 
L 56.945455 31.68 
z
" clip-path="url(#p5942bf420b)" style="fill: #95529f"/>
   </g>
   <g id="patch_29">
    <path d="M 59.072727 33.12 
L 61.2 33.12 
L 61.2 27.36 
L 59.072727 27.36 
z
" clip-path="url(#p5942bf420b)" style="fill: #95529f"/>
   </g>
   <g id="patch_30">
    <path d="M 61.2 33.12 
L 63.327273 33.12 
L 63.327273 25.92 
L 61.2 25.92 
z
" clip-path="url(#p5942bf420b)" style="fill: #95529f"/>
   </g>
   <g id="patch_31">
    <path d="M 63.327273 33.12 
L 65.454545 33.12 
L 65.454545 21.6 
L 63.327273 21.6 
z
" clip-path="url(#p5942bf420b)" style="fill: #95529f"/>
   </g>
   <g id="patch_32">
    <path d="M 65.454545 33.12 
L 67.581818 33.12 
L 67.581818 14.4 
L 65.454545 14.4 
z
" clip-path="url(#p5942bf420b)" style="fill: #95529f"/>
   </g>
   <g id="patch_33">
    <path d="M 67.581818 33.12 
L 69.709091 33.12 
L 69.709091 14.4 
L 67.581818 14.4 
z
" clip-path="url(#p5942bf420b)" style="fill: #95529f"/>
   </g>
   <g id="patch_34">
    <path d="M 69.709091 33.12 
L 71.836364 33.12 
L 71.836364 11.52 
L 69.709091 11.52 
z
" clip-path="url(#p5942bf420b)" style="fill: #95529f"/>
   </g>
   <g id="patch_35">
    <path d="M 71.836364 33.12 
L 73.963636 33.12 
L 73.963636 14.4 
L 71.836364 14.4 
z
" clip-path="url(#p5942bf420b)" style="fill: #95529f"/>
   </g>
   <g id="patch_36">
    <path d="M 73.963636 33.12 
L 76.090909 33.12 
L 76.090909 21.6 
L 73.963636 21.6 
z
" clip-path="url(#p5942bf420b)" style="fill: #95529f"/>
   </g>
   <g id="patch_37">
    <path d="M 76.090909 33.12 
L 78.218182 33.12 
L 78.218182 23.04 
L 76.090909 23.04 
z
" clip-path="url(#p5942bf420b)" style="fill: #95529f"/>
   </g>
   <g id="patch_38">
    <path d="M 78.218182 33.12 
L 80.345455 33.12 
L 80.345455 27.36 
L 78.218182 27.36 
z
" clip-path="url(#p5942bf420b)" style="fill: #95529f"/>
   </g>
   <g id="patch_39">
    <path d="M 80.345455 33.12 
L 82.472727 33.12 
L 82.472727 24.48 
L 80.345455 24.48 
z
" clip-path="url(#p5942bf420b)" style="fill: #95529f"/>
   </g>
   <g id="patch_40">
    <path d="M 82.472727 33.12 
L 84.6 33.12 
L 84.6 27.36 
L 82.472727 27.36 
z
" clip-path="url(#p5942bf420b)" style="fill: #95529f"/>
   </g>
   <g id="patch_41">
    <path d="M 84.6 33.12 
L 86.727273 33.12 
L 86.727273 28.8 
L 84.6 28.8 
z
" clip-path="url(#p5942bf420b)" style="fill: #95529f"/>
   </g>
   <g id="patch_42">
    <path d="M 86.727273 33.12 
L 88.854545 33.12 
L 88.854545 30.24 
L 86.727273 30.24 
z
" clip-path="url(#p5942bf420b)" style="fill: #95529f"/>
   </g>
   <g id="patch_43">
    <path d="M 88.854545 33.12 
L 90.981818 33.12 
L 90.981818 33.12 
L 88.854545 33.12 
z
" clip-path="url(#p5942bf420b)" style="fill: #95529f"/>
   </g>
   <g id="patch_44">
    <path d="M 90.981818 33.12 
L 93.109091 33.12 
L 93.109091 33.12 
L 90.981818 33.12 
z
" clip-path="url(#p5942bf420b)" style="fill: #95529f"/>
   </g>
   <g id="patch_45">
    <path d="M 93.109091 33.12 
L 95.236364 33.12 
L 95.236364 33.12 
L 93.109091 33.12 
z
" clip-path="url(#p5942bf420b)" style="fill: #95529f"/>
   </g>
   <g id="patch_46">
    <path d="M 95.236364 33.12 
L 97.363636 33.12 
L 97.363636 33.12 
L 95.236364 33.12 
z
" clip-path="url(#p5942bf420b)" style="fill: #95529f"/>
   </g>
   <g id="patch_47">
    <path d="M 97.363636 33.12 
L 99.490909 33.12 
L 99.490909 33.12 
L 97.363636 33.12 
z
" clip-path="url(#p5942bf420b)" style="fill: #95529f"/>
   </g>
   <g id="patch_48">
    <path d="M 99.490909 33.12 
L 101.618182 33.12 
L 101.618182 33.12 
L 99.490909 33.12 
z
" clip-path="url(#p5942bf420b)" style="fill: #95529f"/>
   </g>
   <g id="patch_49">
    <path d="M 101.618182 33.12 
L 103.745455 33.12 
L 103.745455 33.12 
L 101.618182 33.12 
z
" clip-path="url(#p5942bf420b)" style="fill: #95529f"/>
   </g>
   <g id="patch_50">
    <path d="M 103.745455 33.12 
L 105.872727 33.12 
L 105.872727 33.12 
L 103.745455 33.12 
z
" clip-path="url(#p5942bf420b)" style="fill: #95529f"/>
   </g>
   <g id="patch_51">
    <path d="M 105.872727 33.12 
L 108 33.12 
L 108 33.12 
L 105.872727 33.12 
z
" clip-path="url(#p5942bf420b)" style="fill: #95529f"/>
   </g>
   <g id="matplotlib.axis_3">
    <g id="xtick_4">
     <g id="line2d_7">
      <g>
       <use xlink:href="#m4c63d1112c" x="18.654545" y="33.12" style="stroke: #000000; stroke-width: 0.8"/>
      </g>
     </g>
    </g>
    <g id="xtick_5">
     <g id="line2d_8">
      <g>
       <use xlink:href="#m4c63d1112c" x="61.2" y="33.12" style="stroke: #000000; stroke-width: 0.8"/>
      </g>
     </g>
    </g>
    <g id="xtick_6">
     <g id="line2d_9">
      <g>
       <use xlink:href="#m4c63d1112c" x="103.745455" y="33.12" style="stroke: #000000; stroke-width: 0.8"/>
      </g>
     </g>
    </g>
   </g>
   <g id="matplotlib.axis_4">
    <g id="ytick_4">
     <g id="line2d_10">
      <g>
       <use xlink:href="#m330bd83675" x="14.4" y="33.12" style="stroke: #000000; stroke-width: 0.8"/>
      </g>
     </g>
     <g id="text_8">
      <!-- 0 -->
      <g transform="translate(1.0375 36.919219)scale(0.1 -0.1)">
       <use xlink:href="#DejaVuSans-30"/>
      </g>
     </g>
    </g>
    <g id="ytick_5">
     <g id="line2d_11">
      <g>
       <use xlink:href="#m330bd83675" x="14.4" y="4.32" style="stroke: #000000; stroke-width: 0.8"/>
      </g>
     </g>
     <g id="text_9">
      <!-- 20 -->
      <g transform="translate(-5.325 8.119219)scale(0.1 -0.1)">
       <defs>
        <path id="DejaVuSans-32" d="M 1228 531 
L 3431 531 
L 3431 0 
L 469 0 
L 469 531 
Q 828 903 1448 1529 
Q 2069 2156 2228 2338 
Q 2531 2678 2651 2914 
Q 2772 3150 2772 3378 
Q 2772 3750 2511 3984 
Q 2250 4219 1831 4219 
Q 1534 4219 1204 4116 
Q 875 4013 500 3803 
L 500 4441 
Q 881 4594 1212 4672 
Q 1544 4750 1819 4750 
Q 2544 4750 2975 4387 
Q 3406 4025 3406 3419 
Q 3406 3131 3298 2873 
Q 3191 2616 2906 2266 
Q 2828 2175 2409 1742 
Q 1991 1309 1228 531 
z
" transform="scale(0.015625)"/>
       </defs>
       <use xlink:href="#DejaVuSans-32"/>
       <use xlink:href="#DejaVuSans-30" x="63.623047"/>
      </g>
     </g>
    </g>
   </g>
   <g id="line2d_12">
    <path d="M 61.2 33.12 
L 61.2 4.32 
" clip-path="url(#p5942bf420b)" style="fill: none; stroke: #ff0000; stroke-width: 1.5; stroke-linecap: square"/>
   </g>
   <g id="patch_52">
    <path d="M 14.4 33.12 
L 14.4 4.32 
" style="fill: none; stroke: #000000; stroke-width: 0.8; stroke-linejoin: miter; stroke-linecap: square"/>
   </g>
   <g id="patch_53">
    <path d="M 14.4 33.12 
L 108 33.12 
" style="fill: none; stroke: #000000; stroke-width: 0.8; stroke-linejoin: miter; stroke-linecap: square"/>
   </g>
   <g id="text_10">
    <!-- conflict -->
    <g transform="translate(39.33 -1.68)scale(0.12 -0.12)">
     <defs>
      <path id="DejaVuSans-63" d="M 3122 3366 
L 3122 2828 
Q 2878 2963 2633 3030 
Q 2388 3097 2138 3097 
Q 1578 3097 1268 2742 
Q 959 2388 959 1747 
Q 959 1106 1268 751 
Q 1578 397 2138 397 
Q 2388 397 2633 464 
Q 2878 531 3122 666 
L 3122 134 
Q 2881 22 2623 -34 
Q 2366 -91 2075 -91 
Q 1284 -91 818 406 
Q 353 903 353 1747 
Q 353 2603 823 3093 
Q 1294 3584 2113 3584 
Q 2378 3584 2631 3529 
Q 2884 3475 3122 3366 
z
" transform="scale(0.015625)"/>
      <path id="DejaVuSans-6f" d="M 1959 3097 
Q 1497 3097 1228 2736 
Q 959 2375 959 1747 
Q 959 1119 1226 758 
Q 1494 397 1959 397 
Q 2419 397 2687 759 
Q 2956 1122 2956 1747 
Q 2956 2369 2687 2733 
Q 2419 3097 1959 3097 
z
M 1959 3584 
Q 2709 3584 3137 3096 
Q 3566 2609 3566 1747 
Q 3566 888 3137 398 
Q 2709 -91 1959 -91 
Q 1206 -91 779 398 
Q 353 888 353 1747 
Q 353 2609 779 3096 
Q 1206 3584 1959 3584 
z
" transform="scale(0.015625)"/>
      <path id="DejaVuSans-6e" d="M 3513 2113 
L 3513 0 
L 2938 0 
L 2938 2094 
Q 2938 2591 2744 2837 
Q 2550 3084 2163 3084 
Q 1697 3084 1428 2787 
Q 1159 2491 1159 1978 
L 1159 0 
L 581 0 
L 581 3500 
L 1159 3500 
L 1159 2956 
Q 1366 3272 1645 3428 
Q 1925 3584 2291 3584 
Q 2894 3584 3203 3211 
Q 3513 2838 3513 2113 
z
" transform="scale(0.015625)"/>
      <path id="DejaVuSans-66" d="M 2375 4863 
L 2375 4384 
L 1825 4384 
Q 1516 4384 1395 4259 
Q 1275 4134 1275 3809 
L 1275 3500 
L 2222 3500 
L 2222 3053 
L 1275 3053 
L 1275 0 
L 697 0 
L 697 3053 
L 147 3053 
L 147 3500 
L 697 3500 
L 697 3744 
Q 697 4328 969 4595 
Q 1241 4863 1831 4863 
L 2375 4863 
z
" transform="scale(0.015625)"/>
      <path id="DejaVuSans-6c" d="M 603 4863 
L 1178 4863 
L 1178 0 
L 603 0 
L 603 4863 
z
" transform="scale(0.015625)"/>
      <path id="DejaVuSans-69" d="M 603 3500 
L 1178 3500 
L 1178 0 
L 603 0 
L 603 3500 
z
M 603 4863 
L 1178 4863 
L 1178 4134 
L 603 4134 
L 603 4863 
z
" transform="scale(0.015625)"/>
      <path id="DejaVuSans-74" d="M 1172 4494 
L 1172 3500 
L 2356 3500 
L 2356 3053 
L 1172 3053 
L 1172 1153 
Q 1172 725 1289 603 
Q 1406 481 1766 481 
L 2356 481 
L 2356 0 
L 1766 0 
Q 1100 0 847 248 
Q 594 497 594 1153 
L 594 3053 
L 172 3053 
L 172 3500 
L 594 3500 
L 594 4494 
L 1172 4494 
z
" transform="scale(0.015625)"/>
     </defs>
     <use xlink:href="#DejaVuSans-63"/>
     <use xlink:href="#DejaVuSans-6f" x="54.980469"/>
     <use xlink:href="#DejaVuSans-6e" x="116.162109"/>
     <use xlink:href="#DejaVuSans-66" x="179.541016"/>
     <use xlink:href="#DejaVuSans-6c" x="214.746094"/>
     <use xlink:href="#DejaVuSans-69" x="242.529297"/>
     <use xlink:href="#DejaVuSans-63" x="270.3125"/>
     <use xlink:href="#DejaVuSans-74" x="325.292969"/>
    </g>
   </g>
  </g>
  <g id="axes_3">
   <g id="patch_54">
    <path d="M 110.88 129.6 
L 139.68 129.6 
L 139.68 36 
L 110.88 36 
z
" style="fill: #ffffff"/>
   </g>
   <g id="patch_55">
    <path d="M 110.88 129.6 
L 110.88 129.6 
L 110.88 127.472727 
L 110.88 127.472727 
z
" clip-path="url(#p4afdc59d79)" style="fill: #95529f"/>
   </g>
   <g id="patch_56">
    <path d="M 110.88 127.472727 
L 110.88 127.472727 
L 110.88 125.345455 
L 110.88 125.345455 
z
" clip-path="url(#p4afdc59d79)" style="fill: #95529f"/>
   </g>
   <g id="patch_57">
    <path d="M 110.88 125.345455 
L 110.88 125.345455 
L 110.88 123.218182 
L 110.88 123.218182 
z
" clip-path="url(#p4afdc59d79)" style="fill: #95529f"/>
   </g>
   <g id="patch_58">
    <path d="M 110.88 123.218182 
L 110.88 123.218182 
L 110.88 121.090909 
L 110.88 121.090909 
z
" clip-path="url(#p4afdc59d79)" style="fill: #95529f"/>
   </g>
   <g id="patch_59">
    <path d="M 110.88 121.090909 
L 110.88 121.090909 
L 110.88 118.963636 
L 110.88 118.963636 
z
" clip-path="url(#p4afdc59d79)" style="fill: #95529f"/>
   </g>
   <g id="patch_60">
    <path d="M 110.88 118.963636 
L 110.88 118.963636 
L 110.88 116.836364 
L 110.88 116.836364 
z
" clip-path="url(#p4afdc59d79)" style="fill: #95529f"/>
   </g>
   <g id="patch_61">
    <path d="M 110.88 116.836364 
L 110.88 116.836364 
L 110.88 114.709091 
L 110.88 114.709091 
z
" clip-path="url(#p4afdc59d79)" style="fill: #95529f"/>
   </g>
   <g id="patch_62">
    <path d="M 110.88 114.709091 
L 110.88 114.709091 
L 110.88 112.581818 
L 110.88 112.581818 
z
" clip-path="url(#p4afdc59d79)" style="fill: #95529f"/>
   </g>
   <g id="patch_63">
    <path d="M 110.88 112.581818 
L 110.88 112.581818 
L 110.88 110.454545 
L 110.88 110.454545 
z
" clip-path="url(#p4afdc59d79)" style="fill: #95529f"/>
   </g>
   <g id="patch_64">
    <path d="M 110.88 110.454545 
L 110.88 110.454545 
L 110.88 108.327273 
L 110.88 108.327273 
z
" clip-path="url(#p4afdc59d79)" style="fill: #95529f"/>
   </g>
   <g id="patch_65">
    <path d="M 110.88 108.327273 
L 110.88 108.327273 
L 110.88 106.2 
L 110.88 106.2 
z
" clip-path="url(#p4afdc59d79)" style="fill: #95529f"/>
   </g>
   <g id="patch_66">
    <path d="M 110.88 106.2 
L 110.88 106.2 
L 110.88 104.072727 
L 110.88 104.072727 
z
" clip-path="url(#p4afdc59d79)" style="fill: #95529f"/>
   </g>
   <g id="patch_67">
    <path d="M 110.88 104.072727 
L 110.88 104.072727 
L 110.88 101.945455 
L 110.88 101.945455 
z
" clip-path="url(#p4afdc59d79)" style="fill: #95529f"/>
   </g>
   <g id="patch_68">
    <path d="M 110.88 101.945455 
L 110.88 101.945455 
L 110.88 99.818182 
L 110.88 99.818182 
z
" clip-path="url(#p4afdc59d79)" style="fill: #95529f"/>
   </g>
   <g id="patch_69">
    <path d="M 110.88 99.818182 
L 110.88 99.818182 
L 110.88 97.690909 
L 110.88 97.690909 
z
" clip-path="url(#p4afdc59d79)" style="fill: #95529f"/>
   </g>
   <g id="patch_70">
    <path d="M 110.88 97.690909 
L 110.88 97.690909 
L 110.88 95.563636 
L 110.88 95.563636 
z
" clip-path="url(#p4afdc59d79)" style="fill: #95529f"/>
   </g>
   <g id="patch_71">
    <path d="M 110.88 95.563636 
L 110.88 95.563636 
L 110.88 93.436364 
L 110.88 93.436364 
z
" clip-path="url(#p4afdc59d79)" style="fill: #95529f"/>
   </g>
   <g id="patch_72">
    <path d="M 110.88 93.436364 
L 110.88 93.436364 
L 110.88 91.309091 
L 110.88 91.309091 
z
" clip-path="url(#p4afdc59d79)" style="fill: #95529f"/>
   </g>
   <g id="patch_73">
    <path d="M 110.88 91.309091 
L 110.88 91.309091 
L 110.88 89.181818 
L 110.88 89.181818 
z
" clip-path="url(#p4afdc59d79)" style="fill: #95529f"/>
   </g>
   <g id="patch_74">
    <path d="M 110.88 89.181818 
L 110.88 89.181818 
L 110.88 87.054545 
L 110.88 87.054545 
z
" clip-path="url(#p4afdc59d79)" style="fill: #95529f"/>
   </g>
   <g id="patch_75">
    <path d="M 110.88 87.054545 
L 110.88 87.054545 
L 110.88 84.927273 
L 110.88 84.927273 
z
" clip-path="url(#p4afdc59d79)" style="fill: #95529f"/>
   </g>
   <g id="patch_76">
    <path d="M 110.88 84.927273 
L 110.88 84.927273 
L 110.88 82.8 
L 110.88 82.8 
z
" clip-path="url(#p4afdc59d79)" style="fill: #95529f"/>
   </g>
   <g id="patch_77">
    <path d="M 110.88 82.8 
L 110.88 82.8 
L 110.88 80.672727 
L 110.88 80.672727 
z
" clip-path="url(#p4afdc59d79)" style="fill: #95529f"/>
   </g>
   <g id="patch_78">
    <path d="M 110.88 80.672727 
L 110.88 80.672727 
L 110.88 78.545455 
L 110.88 78.545455 
z
" clip-path="url(#p4afdc59d79)" style="fill: #95529f"/>
   </g>
   <g id="patch_79">
    <path d="M 110.88 78.545455 
L 112.32 78.545455 
L 112.32 76.418182 
L 110.88 76.418182 
z
" clip-path="url(#p4afdc59d79)" style="fill: #95529f"/>
   </g>
   <g id="patch_80">
    <path d="M 110.88 76.418182 
L 112.32 76.418182 
L 112.32 74.290909 
L 110.88 74.290909 
z
" clip-path="url(#p4afdc59d79)" style="fill: #95529f"/>
   </g>
   <g id="patch_81">
    <path d="M 110.88 74.290909 
L 112.32 74.290909 
L 112.32 72.163636 
L 110.88 72.163636 
z
" clip-path="url(#p4afdc59d79)" style="fill: #95529f"/>
   </g>
   <g id="patch_82">
    <path d="M 110.88 72.163636 
L 116.64 72.163636 
L 116.64 70.036364 
L 110.88 70.036364 
z
" clip-path="url(#p4afdc59d79)" style="fill: #95529f"/>
   </g>
   <g id="patch_83">
    <path d="M 110.88 70.036364 
L 110.88 70.036364 
L 110.88 67.909091 
L 110.88 67.909091 
z
" clip-path="url(#p4afdc59d79)" style="fill: #95529f"/>
   </g>
   <g id="patch_84">
    <path d="M 110.88 67.909091 
L 115.2 67.909091 
L 115.2 65.781818 
L 110.88 65.781818 
z
" clip-path="url(#p4afdc59d79)" style="fill: #95529f"/>
   </g>
   <g id="patch_85">
    <path d="M 110.88 65.781818 
L 118.08 65.781818 
L 118.08 63.654545 
L 110.88 63.654545 
z
" clip-path="url(#p4afdc59d79)" style="fill: #95529f"/>
   </g>
   <g id="patch_86">
    <path d="M 110.88 63.654545 
L 122.4 63.654545 
L 122.4 61.527273 
L 110.88 61.527273 
z
" clip-path="url(#p4afdc59d79)" style="fill: #95529f"/>
   </g>
   <g id="patch_87">
    <path d="M 110.88 61.527273 
L 116.64 61.527273 
L 116.64 59.4 
L 110.88 59.4 
z
" clip-path="url(#p4afdc59d79)" style="fill: #95529f"/>
   </g>
   <g id="patch_88">
    <path d="M 110.88 59.4 
L 120.96 59.4 
L 120.96 57.272727 
L 110.88 57.272727 
z
" clip-path="url(#p4afdc59d79)" style="fill: #95529f"/>
   </g>
   <g id="patch_89">
    <path d="M 110.88 57.272727 
L 138.24 57.272727 
L 138.24 55.145455 
L 110.88 55.145455 
z
" clip-path="url(#p4afdc59d79)" style="fill: #95529f"/>
   </g>
   <g id="patch_90">
    <path d="M 110.88 55.145455 
L 138.24 55.145455 
L 138.24 53.018182 
L 110.88 53.018182 
z
" clip-path="url(#p4afdc59d79)" style="fill: #95529f"/>
   </g>
   <g id="patch_91">
    <path d="M 110.88 53.018182 
L 131.04 53.018182 
L 131.04 50.890909 
L 110.88 50.890909 
z
" clip-path="url(#p4afdc59d79)" style="fill: #95529f"/>
   </g>
   <g id="patch_92">
    <path d="M 110.88 50.890909 
L 126.72 50.890909 
L 126.72 48.763636 
L 110.88 48.763636 
z
" clip-path="url(#p4afdc59d79)" style="fill: #95529f"/>
   </g>
   <g id="patch_93">
    <path d="M 110.88 48.763636 
L 116.64 48.763636 
L 116.64 46.636364 
L 110.88 46.636364 
z
" clip-path="url(#p4afdc59d79)" style="fill: #95529f"/>
   </g>
   <g id="patch_94">
    <path d="M 110.88 46.636364 
L 115.2 46.636364 
L 115.2 44.509091 
L 110.88 44.509091 
z
" clip-path="url(#p4afdc59d79)" style="fill: #95529f"/>
   </g>
   <g id="patch_95">
    <path d="M 110.88 44.509091 
L 122.4 44.509091 
L 122.4 42.381818 
L 110.88 42.381818 
z
" clip-path="url(#p4afdc59d79)" style="fill: #95529f"/>
   </g>
   <g id="patch_96">
    <path d="M 110.88 42.381818 
L 113.76 42.381818 
L 113.76 40.254545 
L 110.88 40.254545 
z
" clip-path="url(#p4afdc59d79)" style="fill: #95529f"/>
   </g>
   <g id="patch_97">
    <path d="M 110.88 40.254545 
L 112.32 40.254545 
L 112.32 38.127273 
L 110.88 38.127273 
z
" clip-path="url(#p4afdc59d79)" style="fill: #95529f"/>
   </g>
   <g id="patch_98">
    <path d="M 110.88 38.127273 
L 110.88 38.127273 
L 110.88 36 
L 110.88 36 
z
" clip-path="url(#p4afdc59d79)" style="fill: #95529f"/>
   </g>
   <g id="matplotlib.axis_5">
    <g id="xtick_7">
     <g id="line2d_13">
      <g>
       <use xlink:href="#m4c63d1112c" x="110.88" y="129.6" style="stroke: #000000; stroke-width: 0.8"/>
      </g>
     </g>
     <g id="text_11">
      <!-- 0 -->
      <g transform="translate(107.69875 144.198438)scale(0.1 -0.1)">
       <use xlink:href="#DejaVuSans-30"/>
      </g>
     </g>
    </g>
    <g id="xtick_8">
     <g id="line2d_14">
      <g>
       <use xlink:href="#m4c63d1112c" x="139.68" y="129.6" style="stroke: #000000; stroke-width: 0.8"/>
      </g>
     </g>
     <g id="text_12">
      <!-- 20 -->
      <g transform="translate(133.3175 144.198438)scale(0.1 -0.1)">
       <use xlink:href="#DejaVuSans-32"/>
       <use xlink:href="#DejaVuSans-30" x="63.623047"/>
      </g>
     </g>
    </g>
   </g>
   <g id="matplotlib.axis_6">
    <g id="ytick_6">
     <g id="line2d_15">
      <g>
       <use xlink:href="#m330bd83675" x="110.88" y="125.345455" style="stroke: #000000; stroke-width: 0.8"/>
      </g>
     </g>
    </g>
    <g id="ytick_7">
     <g id="line2d_16">
      <g>
       <use xlink:href="#m330bd83675" x="110.88" y="82.8" style="stroke: #000000; stroke-width: 0.8"/>
      </g>
     </g>
    </g>
    <g id="ytick_8">
     <g id="line2d_17">
      <g>
       <use xlink:href="#m330bd83675" x="110.88" y="40.254545" style="stroke: #000000; stroke-width: 0.8"/>
      </g>
     </g>
    </g>
   </g>
   <g id="line2d_18">
    <path d="M 110.88 82.8 
L 139.68 82.8 
" clip-path="url(#p4afdc59d79)" style="fill: none; stroke: #ff0000; stroke-width: 1.5; stroke-linecap: square"/>
   </g>
   <g id="patch_99">
    <path d="M 110.88 129.6 
L 110.88 36 
" style="fill: none; stroke: #000000; stroke-width: 0.8; stroke-linejoin: miter; stroke-linecap: square"/>
   </g>
   <g id="patch_100">
    <path d="M 110.88 129.6 
L 139.68 129.6 
" style="fill: none; stroke: #000000; stroke-width: 0.8; stroke-linejoin: miter; stroke-linecap: square"/>
   </g>
  </g>
 </g>
 <defs>
  <clipPath id="p966d19bb03">
   <rect x="14.4" y="36" width="93.6" height="93.6"/>
  </clipPath>
  <clipPath id="p5942bf420b">
   <rect x="14.4" y="4.32" width="93.6" height="28.8"/>
  </clipPath>
  <clipPath id="p4afdc59d79">
   <rect x="110.88" y="36" width="28.8" height="93.6"/>
  </clipPath>
 </defs>
</svg>
